solid ascii
  facet normal 0.000000e+000 0.000000e+000 -1.000000e+000
    outer loop
      vertex   -1.150000e+002 1.450000e+002 -1.500000e+000
      vertex   -1.350000e+002 1.450000e+002 -1.500000e+000
      vertex   -1.150000e+002 1.480000e+002 -1.500000e+000
    endloop
  endfacet
  facet normal -0.000000e+000 0.000000e+000 -1.000000e+000
    outer loop
      vertex   -1.150000e+002 1.480000e+002 -1.500000e+000
      vertex   -1.350000e+002 1.450000e+002 -1.500000e+000
      vertex   -1.350000e+002 1.480000e+002 -1.500000e+000
    endloop
  endfacet
  facet normal 0.000000e+000 0.000000e+000 1.000000e+000
    outer loop
      vertex   -1.150000e+002 1.480000e+002 3.000000e+000
      vertex   -1.350000e+002 1.480000e+002 3.000000e+000
      vertex   -1.150000e+002 1.450000e+002 3.000000e+000
    endloop
  endfacet
  facet normal 0.000000e+000 0.000000e+000 1.000000e+000
    outer loop
      vertex   -1.150000e+002 1.450000e+002 3.000000e+000
      vertex   -1.350000e+002 1.480000e+002 3.000000e+000
      vertex   -1.350000e+002 1.450000e+002 3.000000e+000
    endloop
  endfacet
  facet normal -0.000000e+000 1.000000e+000 0.000000e+000
    outer loop
      vertex   -1.350000e+002 1.480000e+002 -1.500000e+000
      vertex   -1.350000e+002 1.480000e+002 3.000000e+000
      vertex   -1.150000e+002 1.480000e+002 -1.500000e+000
    endloop
  endfacet
  facet normal 0.000000e+000 1.000000e+000 -0.000000e+000
    outer loop
      vertex   -1.150000e+002 1.480000e+002 -1.500000e+000
      vertex   -1.350000e+002 1.480000e+002 3.000000e+000
      vertex   -1.150000e+002 1.480000e+002 3.000000e+000
    endloop
  endfacet
  facet normal -1.000000e+000 0.000000e+000 0.000000e+000
    outer loop
      vertex   -1.350000e+002 1.450000e+002 -1.500000e+000
      vertex   -1.350000e+002 1.450000e+002 3.000000e+000
      vertex   -1.350000e+002 1.480000e+002 -1.500000e+000
    endloop
  endfacet
  facet normal -1.000000e+000 0.000000e+000 0.000000e+000
    outer loop
      vertex   -1.350000e+002 1.480000e+002 -1.500000e+000
      vertex   -1.350000e+002 1.450000e+002 3.000000e+000
      vertex   -1.350000e+002 1.480000e+002 3.000000e+000
    endloop
  endfacet
  facet normal -0.000000e+000 -1.000000e+000 0.000000e+000
    outer loop
      vertex   -1.150000e+002 1.450000e+002 -1.500000e+000
      vertex   -1.150000e+002 1.450000e+002 3.000000e+000
      vertex   -1.350000e+002 1.450000e+002 -1.500000e+000
    endloop
  endfacet
  facet normal 0.000000e+000 -1.000000e+000 0.000000e+000
    outer loop
      vertex   -1.350000e+002 1.450000e+002 -1.500000e+000
      vertex   -1.150000e+002 1.450000e+002 3.000000e+000
      vertex   -1.350000e+002 1.450000e+002 3.000000e+000
    endloop
  endfacet
  facet normal 1.000000e+000 0.000000e+000 -0.000000e+000
    outer loop
      vertex   -1.150000e+002 1.480000e+002 -1.500000e+000
      vertex   -1.150000e+002 1.480000e+002 3.000000e+000
      vertex   -1.150000e+002 1.450000e+002 -1.500000e+000
    endloop
  endfacet
  facet normal 1.000000e+000 0.000000e+000 -0.000000e+000
    outer loop
      vertex   -1.150000e+002 1.450000e+002 -1.500000e+000
      vertex   -1.150000e+002 1.480000e+002 3.000000e+000
      vertex   -1.150000e+002 1.450000e+002 3.000000e+000
    endloop
  endfacet
endsolid
