solid ascii
  facet normal 0.000000e+000 1.000000e+000 0.000000e+000
    outer loop
      vertex   -1.580000e+002 1.450000e+002 -5.500000e+000
      vertex   -1.580000e+002 1.450000e+002 -7.500000e+000
      vertex   -1.600000e+002 1.450000e+002 -5.500000e+000
    endloop
  endfacet
  facet normal 0.000000e+000 1.000000e+000 0.000000e+000
    outer loop
      vertex   -1.600000e+002 1.450000e+002 -5.500000e+000
      vertex   -1.580000e+002 1.450000e+002 -7.500000e+000
      vertex   -1.600000e+002 1.450000e+002 -7.500000e+000
    endloop
  endfacet
  facet normal 0.000000e+000 -1.000000e+000 0.000000e+000
    outer loop
      vertex   -1.600000e+002 7.500000e+001 -5.500000e+000
      vertex   -1.600000e+002 7.500000e+001 -7.500000e+000
      vertex   -1.580000e+002 7.500000e+001 -5.500000e+000
    endloop
  endfacet
  facet normal 0.000000e+000 -1.000000e+000 -0.000000e+000
    outer loop
      vertex   -1.580000e+002 7.500000e+001 -5.500000e+000
      vertex   -1.600000e+002 7.500000e+001 -7.500000e+000
      vertex   -1.580000e+002 7.500000e+001 -7.500000e+000
    endloop
  endfacet
  facet normal 0.000000e+000 -0.000000e+000 1.000000e+000
    outer loop
      vertex   -1.580000e+002 7.500000e+001 -5.500000e+000
      vertex   -1.580000e+002 1.100000e+002 -5.500000e+000
      vertex   -1.600000e+002 7.500000e+001 -5.500000e+000
    endloop
  endfacet
  facet normal 0.000000e+000 -0.000000e+000 1.000000e+000
    outer loop
      vertex   -1.600000e+002 7.500000e+001 -5.500000e+000
      vertex   -1.580000e+002 1.100000e+002 -5.500000e+000
      vertex   -1.600000e+002 1.100000e+002 -5.500000e+000
    endloop
  endfacet
  facet normal 0.000000e+000 0.000000e+000 1.000000e+000
    outer loop
      vertex   -1.600000e+002 1.100000e+002 -5.500000e+000
      vertex   -1.580000e+002 1.100000e+002 -5.500000e+000
      vertex   -1.580000e+002 1.450000e+002 -5.500000e+000
    endloop
  endfacet
  facet normal -0.000000e+000 0.000000e+000 1.000000e+000
    outer loop
      vertex   -1.600000e+002 1.450000e+002 -5.500000e+000
      vertex   -1.600000e+002 1.100000e+002 -5.500000e+000
      vertex   -1.580000e+002 1.450000e+002 -5.500000e+000
    endloop
  endfacet
  facet normal 0.000000e+000 0.000000e+000 -1.000000e+000
    outer loop
      vertex   -1.600000e+002 7.500000e+001 -7.500000e+000
      vertex   -1.600000e+002 1.100000e+002 -7.500000e+000
      vertex   -1.580000e+002 7.500000e+001 -7.500000e+000
    endloop
  endfacet
  facet normal 0.000000e+000 0.000000e+000 -1.000000e+000
    outer loop
      vertex   -1.580000e+002 7.500000e+001 -7.500000e+000
      vertex   -1.600000e+002 1.100000e+002 -7.500000e+000
      vertex   -1.580000e+002 1.100000e+002 -7.500000e+000
    endloop
  endfacet
  facet normal 0.000000e+000 0.000000e+000 -1.000000e+000
    outer loop
      vertex   -1.580000e+002 1.100000e+002 -7.500000e+000
      vertex   -1.600000e+002 1.100000e+002 -7.500000e+000
      vertex   -1.600000e+002 1.450000e+002 -7.500000e+000
    endloop
  endfacet
  facet normal -0.000000e+000 -0.000000e+000 -1.000000e+000
    outer loop
      vertex   -1.580000e+002 1.450000e+002 -7.500000e+000
      vertex   -1.580000e+002 1.100000e+002 -7.500000e+000
      vertex   -1.600000e+002 1.450000e+002 -7.500000e+000
    endloop
  endfacet
  facet normal -1.000000e+000 -0.000000e+000 -0.000000e+000
    outer loop
      vertex   -1.600000e+002 1.450000e+002 -5.500000e+000
      vertex   -1.600000e+002 1.450000e+002 -7.500000e+000
      vertex   -1.600000e+002 1.100000e+002 -5.500000e+000
    endloop
  endfacet
  facet normal -1.000000e+000 -0.000000e+000 -0.000000e+000
    outer loop
      vertex   -1.600000e+002 1.100000e+002 -5.500000e+000
      vertex   -1.600000e+002 1.450000e+002 -7.500000e+000
      vertex   -1.600000e+002 1.100000e+002 -7.500000e+000
    endloop
  endfacet
  facet normal -1.000000e+000 -0.000000e+000 -0.000000e+000
    outer loop
      vertex   -1.600000e+002 7.500000e+001 -5.500000e+000
      vertex   -1.600000e+002 1.100000e+002 -7.500000e+000
      vertex   -1.600000e+002 7.500000e+001 -7.500000e+000
    endloop
  endfacet
  facet normal -1.000000e+000 0.000000e+000 0.000000e+000
    outer loop
      vertex   -1.600000e+002 7.500000e+001 -5.500000e+000
      vertex   -1.600000e+002 1.100000e+002 -5.500000e+000
      vertex   -1.600000e+002 1.100000e+002 -7.500000e+000
    endloop
  endfacet
  facet normal 1.000000e+000 -0.000000e+000 0.000000e+000
    outer loop
      vertex   -1.580000e+002 7.500000e+001 -5.500000e+000
      vertex   -1.580000e+002 7.500000e+001 -7.500000e+000
      vertex   -1.580000e+002 1.100000e+002 -5.500000e+000
    endloop
  endfacet
  facet normal 1.000000e+000 -0.000000e+000 0.000000e+000
    outer loop
      vertex   -1.580000e+002 1.100000e+002 -5.500000e+000
      vertex   -1.580000e+002 7.500000e+001 -7.500000e+000
      vertex   -1.580000e+002 1.100000e+002 -7.500000e+000
    endloop
  endfacet
  facet normal 1.000000e+000 -0.000000e+000 0.000000e+000
    outer loop
      vertex   -1.580000e+002 1.450000e+002 -5.500000e+000
      vertex   -1.580000e+002 1.100000e+002 -7.500000e+000
      vertex   -1.580000e+002 1.450000e+002 -7.500000e+000
    endloop
  endfacet
  facet normal 1.000000e+000 0.000000e+000 0.000000e+000
    outer loop
      vertex   -1.580000e+002 1.450000e+002 -5.500000e+000
      vertex   -1.580000e+002 1.100000e+002 -5.500000e+000
      vertex   -1.580000e+002 1.100000e+002 -7.500000e+000
    endloop
  endfacet
endsolid
