solid ascii
  facet normal 6.910300e-001 -5.440226e-016 7.228261e-001
    outer loop
      vertex   -8.877492e+001 1.037500e+002 2.400000e+001
      vertex   -8.877492e+001 1.162500e+002 2.400000e+001
      vertex   -8.882625e+001 1.100000e+002 2.404908e+001
    endloop
  endfacet
  facet normal 7.183493e-001 -3.147335e-004 6.956825e-001
    outer loop
      vertex   -8.901792e+001 1.037500e+002 2.424416e+001
      vertex   -8.882625e+001 1.100000e+002 2.404908e+001
      vertex   -8.907153e+001 1.100000e+002 2.430235e+001
    endloop
  endfacet
  facet normal 7.614459e-001 -3.366782e-004 6.482284e-001
    outer loop
      vertex   -8.924515e+001 1.037500e+002 2.450305e+001
      vertex   -8.907153e+001 1.100000e+002 2.430235e+001
      vertex   -8.930007e+001 1.100000e+002 2.457081e+001
    endloop
  endfacet
  facet normal 8.014136e-001 -3.567149e-004 5.981105e-001
    outer loop
      vertex   -8.945574e+001 1.037500e+002 2.477566e+001
      vertex   -8.930007e+001 1.100000e+002 2.457081e+001
      vertex   -8.951095e+001 1.100000e+002 2.485336e+001
    endloop
  endfacet
  facet normal 8.380880e-001 -3.748434e-004 5.455349e-001
    outer loop
      vertex   -8.964884e+001 1.037500e+002 2.506091e+001
      vertex   -8.951095e+001 1.100000e+002 2.485336e+001
      vertex   -8.970329e+001 1.100000e+002 2.514884e+001
    endloop
  endfacet
  facet normal 8.713186e-001 -3.910638e-004 4.907175e-001
    outer loop
      vertex   -8.982372e+001 1.037500e+002 2.535770e+001
      vertex   -8.970329e+001 1.100000e+002 2.514884e+001
      vertex   -8.987630e+001 1.100000e+002 2.545604e+001
    endloop
  endfacet
  facet normal 9.009688e-001 -4.053759e-004 4.338837e-001
    outer loop
      vertex   -8.997966e+001 1.037500e+002 2.566485e+001
      vertex   -8.987630e+001 1.100000e+002 2.545604e+001
      vertex   -9.002927e+001 1.100000e+002 2.577369e+001
    endloop
  endfacet
  facet normal 9.269167e-001 -4.177799e-004 3.752670e-001
    outer loop
      vertex   -9.011608e+001 1.037500e+002 2.598116e+001
      vertex   -9.002927e+001 1.100000e+002 2.577369e+001
      vertex   -9.016158e+001 1.100000e+002 2.610049e+001
    endloop
  endfacet
  facet normal 9.490557e-001 -4.282756e-004 3.151082e-001
    outer loop
      vertex   -9.023243e+001 1.037500e+002 2.630538e+001
      vertex   -9.016158e+001 1.100000e+002 2.610049e+001
      vertex   -9.027267e+001 1.100000e+002 2.643510e+001
    endloop
  endfacet
  facet normal 9.672948e-001 -4.368630e-004 2.536546e-001
    outer loop
      vertex   -9.032825e+001 1.037500e+002 2.663626e+001
      vertex   -9.027267e+001 1.100000e+002 2.643510e+001
      vertex   -9.036210e+001 1.100000e+002 2.677613e+001
    endloop
  endfacet
  facet normal 9.815591e-001 -4.435421e-004 1.911586e-001
    outer loop
      vertex   -9.040317e+001 1.037500e+002 2.697249e+001
      vertex   -9.036210e+001 1.100000e+002 2.677613e+001
      vertex   -9.042950e+001 1.100000e+002 2.712220e+001
    endloop
  endfacet
  facet normal 9.917899e-001 -4.483129e-004 1.278771e-001
    outer loop
      vertex   -9.045689e+001 1.037500e+002 2.731274e+001
      vertex   -9.042950e+001 1.100000e+002 2.712220e+001
      vertex   -9.047459e+001 1.100000e+002 2.747187e+001
    endloop
  endfacet
  facet normal 9.979453e-001 -4.511754e-004 6.407021e-002
    outer loop
      vertex   -9.048921e+001 1.037500e+002 2.765570e+001
      vertex   -9.047459e+001 1.100000e+002 2.747187e+001
      vertex   -9.049717e+001 1.100000e+002 2.782372e+001
    endloop
  endfacet
  facet normal 9.999999e-001 -4.521296e-004 0.000000e+000
    outer loop
      vertex   -9.050000e+001 1.037500e+002 2.800000e+001
      vertex   -9.049717e+001 1.100000e+002 2.782372e+001
      vertex   -9.049717e+001 1.100000e+002 2.817628e+001
    endloop
  endfacet
  facet normal 9.979453e-001 -4.511754e-004 -6.407021e-002
    outer loop
      vertex   -9.048921e+001 1.037500e+002 2.834430e+001
      vertex   -9.049717e+001 1.100000e+002 2.817628e+001
      vertex   -9.047459e+001 1.100000e+002 2.852813e+001
    endloop
  endfacet
  facet normal 9.917899e-001 -4.483129e-004 -1.278771e-001
    outer loop
      vertex   -9.045689e+001 1.037500e+002 2.868726e+001
      vertex   -9.047459e+001 1.100000e+002 2.852813e+001
      vertex   -9.042950e+001 1.100000e+002 2.887780e+001
    endloop
  endfacet
  facet normal 9.815591e-001 -4.435421e-004 -1.911586e-001
    outer loop
      vertex   -9.040317e+001 1.037500e+002 2.902751e+001
      vertex   -9.042950e+001 1.100000e+002 2.887780e+001
      vertex   -9.036210e+001 1.100000e+002 2.922387e+001
    endloop
  endfacet
  facet normal 9.672948e-001 -4.368630e-004 -2.536546e-001
    outer loop
      vertex   -9.032825e+001 1.037500e+002 2.936374e+001
      vertex   -9.036210e+001 1.100000e+002 2.922387e+001
      vertex   -9.027267e+001 1.100000e+002 2.956490e+001
    endloop
  endfacet
  facet normal 9.490557e-001 -4.282756e-004 -3.151082e-001
    outer loop
      vertex   -9.023243e+001 1.037500e+002 2.969462e+001
      vertex   -9.027267e+001 1.100000e+002 2.956490e+001
      vertex   -9.016158e+001 1.100000e+002 2.989951e+001
    endloop
  endfacet
  facet normal 9.269167e-001 -4.177799e-004 -3.752670e-001
    outer loop
      vertex   -9.011608e+001 1.037500e+002 3.001884e+001
      vertex   -9.016158e+001 1.100000e+002 2.989951e+001
      vertex   -9.002927e+001 1.100000e+002 3.022631e+001
    endloop
  endfacet
  facet normal 9.009688e-001 -4.053759e-004 -4.338837e-001
    outer loop
      vertex   -8.997966e+001 1.037500e+002 3.033515e+001
      vertex   -9.002927e+001 1.100000e+002 3.022631e+001
      vertex   -8.987630e+001 1.100000e+002 3.054396e+001
    endloop
  endfacet
  facet normal 8.713186e-001 -3.910638e-004 -4.907175e-001
    outer loop
      vertex   -8.982372e+001 1.037500e+002 3.064230e+001
      vertex   -8.987630e+001 1.100000e+002 3.054396e+001
      vertex   -8.970329e+001 1.100000e+002 3.085116e+001
    endloop
  endfacet
  facet normal 8.380880e-001 -3.748434e-004 -5.455349e-001
    outer loop
      vertex   -8.964884e+001 1.037500e+002 3.093909e+001
      vertex   -8.970329e+001 1.100000e+002 3.085116e+001
      vertex   -8.951095e+001 1.100000e+002 3.114664e+001
    endloop
  endfacet
  facet normal 8.014136e-001 -3.567149e-004 -5.981105e-001
    outer loop
      vertex   -8.945574e+001 1.037500e+002 3.122434e+001
      vertex   -8.951095e+001 1.100000e+002 3.114664e+001
      vertex   -8.930007e+001 1.100000e+002 3.142919e+001
    endloop
  endfacet
  facet normal 7.614459e-001 -3.366782e-004 -6.482284e-001
    outer loop
      vertex   -8.924515e+001 1.037500e+002 3.149695e+001
      vertex   -8.930007e+001 1.100000e+002 3.142919e+001
      vertex   -8.907153e+001 1.100000e+002 3.169765e+001
    endloop
  endfacet
  facet normal 7.183493e-001 -3.147335e-004 -6.956825e-001
    outer loop
      vertex   -8.901792e+001 1.037500e+002 3.175584e+001
      vertex   -8.907153e+001 1.100000e+002 3.169765e+001
      vertex   -8.882625e+001 1.100000e+002 3.195092e+001
    endloop
  endfacet
  facet normal 6.910300e-001 -1.329699e-015 -7.228261e-001
    outer loop
      vertex   -8.877492e+001 1.037500e+002 3.200000e+001
      vertex   -8.882625e+001 1.100000e+002 3.195092e+001
      vertex   -8.877492e+001 1.162500e+002 3.200000e+001
    endloop
  endfacet
  facet normal 7.087869e-001 2.825164e-004 -7.054226e-001
    outer loop
      vertex   -8.877492e+001 1.037500e+002 3.200000e+001
      vertex   -8.901792e+001 1.037500e+002 3.175584e+001
      vertex   -8.882625e+001 1.100000e+002 3.195092e+001
    endloop
  endfacet
  facet normal 7.511215e-001 -3.090141e-004 6.601639e-001
    outer loop
      vertex   -8.924208e+001 1.162500e+002 2.449932e+001
      vertex   -8.907153e+001 1.100000e+002 2.430235e+001
      vertex   -8.901626e+001 1.162500e+002 2.424239e+001
    endloop
  endfacet
  facet normal 7.614459e-001 3.488694e-004 6.482284e-001
    outer loop
      vertex   -8.924208e+001 1.162500e+002 2.449932e+001
      vertex   -8.930007e+001 1.100000e+002 2.457081e+001
      vertex   -8.907153e+001 1.100000e+002 2.430235e+001
    endloop
  endfacet
  facet normal 7.907059e-001 -3.347912e-004 6.121961e-001
    outer loop
      vertex   -8.924208e+001 1.162500e+002 2.449932e+001
      vertex   -8.945148e+001 1.162500e+002 2.476978e+001
      vertex   -8.930007e+001 1.100000e+002 2.457081e+001
    endloop
  endfacet
  facet normal 8.014136e-001 3.730378e-004 5.981105e-001
    outer loop
      vertex   -8.930007e+001 1.100000e+002 2.457081e+001
      vertex   -8.945148e+001 1.162500e+002 2.476978e+001
      vertex   -8.951095e+001 1.100000e+002 2.485336e+001
    endloop
  endfacet
  facet normal 8.272320e-001 -3.573510e-004 5.618603e-001
    outer loop
      vertex   -8.951095e+001 1.100000e+002 2.485336e+001
      vertex   -8.945148e+001 1.162500e+002 2.476978e+001
      vertex   -8.964367e+001 1.162500e+002 2.505274e+001
    endloop
  endfacet
  facet normal 8.605585e-001 -3.766936e-004 5.093515e-001
    outer loop
      vertex   -8.970329e+001 1.100000e+002 2.514884e+001
      vertex   -8.964367e+001 1.162500e+002 2.505274e+001
      vertex   -8.981790e+001 1.162500e+002 2.534710e+001
    endloop
  endfacet
  facet normal 8.905565e-001 -3.928187e-004 4.548725e-001
    outer loop
      vertex   -8.987630e+001 1.100000e+002 2.545604e+001
      vertex   -8.981790e+001 1.162500e+002 2.534710e+001
      vertex   -8.997349e+001 1.162500e+002 2.565172e+001
    endloop
  endfacet
  facet normal 9.171100e-001 -4.057263e-004 3.986341e-001
    outer loop
      vertex   -9.002927e+001 1.100000e+002 2.577369e+001
      vertex   -8.997349e+001 1.162500e+002 2.565172e+001
      vertex   -9.010984e+001 1.162500e+002 2.596542e+001
    endloop
  endfacet
  facet normal 9.401162e-001 -4.154165e-004 3.408539e-001
    outer loop
      vertex   -9.016158e+001 1.100000e+002 2.610049e+001
      vertex   -9.010984e+001 1.162500e+002 2.596542e+001
      vertex   -9.022643e+001 1.162500e+002 2.628700e+001
    endloop
  endfacet
  facet normal 9.594862e-001 -4.218891e-004 2.817553e-001
    outer loop
      vertex   -9.027267e+001 1.100000e+002 2.643510e+001
      vertex   -9.022643e+001 1.162500e+002 2.628700e+001
      vertex   -9.032281e+001 1.162500e+002 2.661519e+001
    endloop
  endfacet
  facet normal 9.751451e-001 -4.251441e-004 2.215670e-001
    outer loop
      vertex   -9.036210e+001 1.100000e+002 2.677613e+001
      vertex   -9.032281e+001 1.162500e+002 2.661519e+001
      vertex   -9.039860e+001 1.162500e+002 2.694875e+001
    endloop
  endfacet
  facet normal 9.870322e-001 -4.251816e-004 1.605216e-001
    outer loop
      vertex   -9.042950e+001 1.100000e+002 2.712220e+001
      vertex   -9.039860e+001 1.162500e+002 2.694875e+001
      vertex   -9.045351e+001 1.162500e+002 2.728637e+001
    endloop
  endfacet
  facet normal 9.951017e-001 -4.220015e-004 9.885544e-002
    outer loop
      vertex   -9.047459e+001 1.100000e+002 2.747187e+001
      vertex   -9.045351e+001 1.162500e+002 2.728637e+001
      vertex   -9.048732e+001 1.162500e+002 2.762675e+001
    endloop
  endfacet
  facet normal 9.993223e-001 -4.156038e-004 3.680687e-002
    outer loop
      vertex   -9.049717e+001 1.100000e+002 2.782372e+001
      vertex   -9.048732e+001 1.162500e+002 2.762675e+001
      vertex   -9.049991e+001 1.162500e+002 2.796857e+001
    endloop
  endfacet
  facet normal 9.996777e-001 -4.059886e-004 -2.538406e-002
    outer loop
      vertex   -9.049717e+001 1.100000e+002 2.817628e+001
      vertex   -9.049991e+001 1.162500e+002 2.796857e+001
      vertex   -9.049123e+001 1.162500e+002 2.831052e+001
    endloop
  endfacet
  facet normal 9.961665e-001 -3.931559e-004 -8.747682e-002
    outer loop
      vertex   -9.047459e+001 1.100000e+002 2.852813e+001
      vertex   -9.049123e+001 1.162500e+002 2.831052e+001
      vertex   -9.046131e+001 1.162500e+002 2.865126e+001
    endloop
  endfacet
  facet normal 9.888023e-001 -3.771057e-004 -1.492312e-001
    outer loop
      vertex   -9.042950e+001 1.100000e+002 2.887780e+001
      vertex   -9.046131e+001 1.162500e+002 2.865126e+001
      vertex   -9.041026e+001 1.162500e+002 2.898949e+001
    endloop
  endfacet
  facet normal 9.776135e-001 -3.578382e-004 -2.104084e-001
    outer loop
      vertex   -9.036210e+001 1.100000e+002 2.922387e+001
      vertex   -9.041026e+001 1.162500e+002 2.898949e+001
      vertex   -9.033829e+001 1.162500e+002 2.932389e+001
    endloop
  endfacet
  facet normal 9.626435e-001 -3.353533e-004 -2.707718e-001
    outer loop
      vertex   -9.027267e+001 1.100000e+002 2.956490e+001
      vertex   -9.033829e+001 1.162500e+002 2.932389e+001
      vertex   -9.024567e+001 1.162500e+002 2.965316e+001
    endloop
  endfacet
  facet normal 9.439502e-001 -3.096511e-004 -3.300879e-001
    outer loop
      vertex   -9.016158e+001 1.100000e+002 2.989951e+001
      vertex   -9.024567e+001 1.162500e+002 2.965316e+001
      vertex   -9.013276e+001 1.162500e+002 2.997605e+001
    endloop
  endfacet
  facet normal 9.216058e-001 -2.807318e-004 -3.881272e-001
    outer loop
      vertex   -9.002927e+001 1.100000e+002 3.022631e+001
      vertex   -9.013276e+001 1.162500e+002 2.997605e+001
      vertex   -9.000000e+001 1.162500e+002 3.029129e+001
    endloop
  endfacet
  facet normal 8.952728e-001 -2.914631e-004 -4.455182e-001
    outer loop
      vertex   -8.987630e+001 1.100000e+002 3.054396e+001
      vertex   -9.000000e+001 1.162500e+002 3.029129e+001
      vertex   -8.984294e+001 1.162500e+002 3.060690e+001
    endloop
  endfacet
  facet normal 8.648927e-001 -2.913383e-004 -5.019567e-001
    outer loop
      vertex   -8.970329e+001 1.100000e+002 3.085116e+001
      vertex   -8.984294e+001 1.162500e+002 3.060690e+001
      vertex   -8.966599e+001 1.162500e+002 3.091179e+001
    endloop
  endfacet
  facet normal 8.309593e-001 -2.912134e-004 -5.563331e-001
    outer loop
      vertex   -8.951095e+001 1.100000e+002 3.114664e+001
      vertex   -8.966599e+001 1.162500e+002 3.091179e+001
      vertex   -8.946987e+001 1.162500e+002 3.120473e+001
    endloop
  endfacet
  facet normal 7.936121e-001 -2.910885e-004 -6.084239e-001
    outer loop
      vertex   -8.930007e+001 1.100000e+002 3.142919e+001
      vertex   -8.946987e+001 1.162500e+002 3.120473e+001
      vertex   -8.925538e+001 1.162500e+002 3.148450e+001
    endloop
  endfacet
  facet normal 7.530046e-001 -2.909636e-004 -6.580152e-001
    outer loop
      vertex   -8.907153e+001 1.100000e+002 3.169765e+001
      vertex   -8.925538e+001 1.162500e+002 3.148450e+001
      vertex   -8.902341e+001 1.162500e+002 3.174995e+001
    endloop
  endfacet
  facet normal 7.093035e-001 -2.908387e-004 -7.049031e-001
    outer loop
      vertex   -8.882625e+001 1.100000e+002 3.195092e+001
      vertex   -8.902341e+001 1.162500e+002 3.174995e+001
      vertex   -8.877492e+001 1.162500e+002 3.200000e+001
    endloop
  endfacet
  facet normal 7.183493e-001 2.910058e-004 -6.956825e-001
    outer loop
      vertex   -8.882625e+001 1.100000e+002 3.195092e+001
      vertex   -8.907153e+001 1.100000e+002 3.169765e+001
      vertex   -8.902341e+001 1.162500e+002 3.174995e+001
    endloop
  endfacet
  facet normal 8.380880e-001 3.939890e-004 5.455349e-001
    outer loop
      vertex   -8.951095e+001 1.100000e+002 2.485336e+001
      vertex   -8.964367e+001 1.162500e+002 2.505274e+001
      vertex   -8.970329e+001 1.100000e+002 2.514884e+001
    endloop
  endfacet
  facet normal 8.713186e-001 4.117228e-004 4.907175e-001
    outer loop
      vertex   -8.970329e+001 1.100000e+002 2.514884e+001
      vertex   -8.981790e+001 1.162500e+002 2.534710e+001
      vertex   -8.987630e+001 1.100000e+002 2.545604e+001
    endloop
  endfacet
  facet normal 9.009688e-001 4.262392e-004 4.338837e-001
    outer loop
      vertex   -8.987630e+001 1.100000e+002 2.545604e+001
      vertex   -8.997349e+001 1.162500e+002 2.565172e+001
      vertex   -9.002927e+001 1.100000e+002 2.577369e+001
    endloop
  endfacet
  facet normal 9.269167e-001 4.375381e-004 3.752670e-001
    outer loop
      vertex   -9.002927e+001 1.100000e+002 2.577369e+001
      vertex   -9.010984e+001 1.162500e+002 2.596542e+001
      vertex   -9.016158e+001 1.100000e+002 2.610049e+001
    endloop
  endfacet
  facet normal 9.490557e-001 4.456195e-004 3.151082e-001
    outer loop
      vertex   -9.016158e+001 1.100000e+002 2.610049e+001
      vertex   -9.022643e+001 1.162500e+002 2.628700e+001
      vertex   -9.027267e+001 1.100000e+002 2.643510e+001
    endloop
  endfacet
  facet normal 9.672948e-001 4.504834e-004 2.536546e-001
    outer loop
      vertex   -9.027267e+001 1.100000e+002 2.643510e+001
      vertex   -9.032281e+001 1.162500e+002 2.661519e+001
      vertex   -9.036210e+001 1.100000e+002 2.677613e+001
    endloop
  endfacet
  facet normal 9.815591e-001 4.521296e-004 1.911586e-001
    outer loop
      vertex   -9.036210e+001 1.100000e+002 2.677613e+001
      vertex   -9.039860e+001 1.162500e+002 2.694875e+001
      vertex   -9.042950e+001 1.100000e+002 2.712220e+001
    endloop
  endfacet
  facet normal 9.917899e-001 4.505583e-004 1.278771e-001
    outer loop
      vertex   -9.042950e+001 1.100000e+002 2.712220e+001
      vertex   -9.045351e+001 1.162500e+002 2.728637e+001
      vertex   -9.047459e+001 1.100000e+002 2.747187e+001
    endloop
  endfacet
  facet normal 9.979453e-001 4.457694e-004 6.407021e-002
    outer loop
      vertex   -9.047459e+001 1.100000e+002 2.747187e+001
      vertex   -9.048732e+001 1.162500e+002 2.762675e+001
      vertex   -9.049717e+001 1.100000e+002 2.782372e+001
    endloop
  endfacet
  facet normal 9.999999e-001 4.377630e-004 0.000000e+000
    outer loop
      vertex   -9.049717e+001 1.100000e+002 2.782372e+001
      vertex   -9.049991e+001 1.162500e+002 2.796857e+001
      vertex   -9.049717e+001 1.100000e+002 2.817628e+001
    endloop
  endfacet
  facet normal 9.979453e-001 4.265390e-004 -6.407021e-002
    outer loop
      vertex   -9.049717e+001 1.100000e+002 2.817628e+001
      vertex   -9.049123e+001 1.162500e+002 2.831052e+001
      vertex   -9.047459e+001 1.100000e+002 2.852813e+001
    endloop
  endfacet
  facet normal 9.917899e-001 4.120976e-004 -1.278772e-001
    outer loop
      vertex   -9.047459e+001 1.100000e+002 2.852813e+001
      vertex   -9.046131e+001 1.162500e+002 2.865126e+001
      vertex   -9.042950e+001 1.100000e+002 2.887780e+001
    endloop
  endfacet
  facet normal 9.815591e-001 3.944387e-004 -1.911586e-001
    outer loop
      vertex   -9.042950e+001 1.100000e+002 2.887780e+001
      vertex   -9.041026e+001 1.162500e+002 2.898949e+001
      vertex   -9.036210e+001 1.100000e+002 2.922387e+001
    endloop
  endfacet
  facet normal 9.672948e-001 3.735624e-004 -2.536546e-001
    outer loop
      vertex   -9.036210e+001 1.100000e+002 2.922387e+001
      vertex   -9.033829e+001 1.162500e+002 2.932389e+001
      vertex   -9.027267e+001 1.100000e+002 2.956490e+001
    endloop
  endfacet
  facet normal 9.490557e-001 3.494689e-004 -3.151082e-001
    outer loop
      vertex   -9.027267e+001 1.100000e+002 2.956490e+001
      vertex   -9.024567e+001 1.162500e+002 2.965316e+001
      vertex   -9.016158e+001 1.100000e+002 2.989951e+001
    endloop
  endfacet
  facet normal 9.269167e-001 3.221582e-004 -3.752670e-001
    outer loop
      vertex   -9.016158e+001 1.100000e+002 2.989951e+001
      vertex   -9.013276e+001 1.162500e+002 2.997605e+001
      vertex   -9.002927e+001 1.100000e+002 3.022631e+001
    endloop
  endfacet
  facet normal 9.009688e-001 2.916303e-004 -4.338837e-001
    outer loop
      vertex   -9.002927e+001 1.100000e+002 3.022631e+001
      vertex   -9.000000e+001 1.162500e+002 3.029129e+001
      vertex   -8.987630e+001 1.100000e+002 3.054396e+001
    endloop
  endfacet
  facet normal 8.713187e-001 2.915054e-004 -4.907175e-001
    outer loop
      vertex   -8.987630e+001 1.100000e+002 3.054396e+001
      vertex   -8.984294e+001 1.162500e+002 3.060690e+001
      vertex   -8.970329e+001 1.100000e+002 3.085116e+001
    endloop
  endfacet
  facet normal 8.380881e-001 2.913805e-004 -5.455349e-001
    outer loop
      vertex   -8.970329e+001 1.100000e+002 3.085116e+001
      vertex   -8.966599e+001 1.162500e+002 3.091179e+001
      vertex   -8.951095e+001 1.100000e+002 3.114664e+001
    endloop
  endfacet
  facet normal 8.014136e-001 2.912557e-004 -5.981105e-001
    outer loop
      vertex   -8.951095e+001 1.100000e+002 3.114664e+001
      vertex   -8.946987e+001 1.162500e+002 3.120473e+001
      vertex   -8.930007e+001 1.100000e+002 3.142919e+001
    endloop
  endfacet
  facet normal 7.614459e-001 2.911307e-004 -6.482284e-001
    outer loop
      vertex   -8.930007e+001 1.100000e+002 3.142919e+001
      vertex   -8.925538e+001 1.162500e+002 3.148450e+001
      vertex   -8.907153e+001 1.100000e+002 3.169765e+001
    endloop
  endfacet
  facet normal 7.515566e-001 3.054151e-004 -6.596685e-001
    outer loop
      vertex   -8.901792e+001 1.037500e+002 3.175584e+001
      vertex   -8.924515e+001 1.037500e+002 3.149695e+001
      vertex   -8.907153e+001 1.100000e+002 3.169765e+001
    endloop
  endfacet
  facet normal 7.913782e-001 3.264058e-004 -6.113268e-001
    outer loop
      vertex   -8.924515e+001 1.037500e+002 3.149695e+001
      vertex   -8.945574e+001 1.037500e+002 3.122434e+001
      vertex   -8.930007e+001 1.100000e+002 3.142919e+001
    endloop
  endfacet
  facet normal 8.280954e-001 3.454884e-004 -5.605870e-001
    outer loop
      vertex   -8.945574e+001 1.037500e+002 3.122434e+001
      vertex   -8.964884e+001 1.037500e+002 3.093909e+001
      vertex   -8.951095e+001 1.100000e+002 3.114664e+001
    endloop
  endfacet
  facet normal 8.615643e-001 3.626629e-004 -5.076483e-001
    outer loop
      vertex   -8.964884e+001 1.037500e+002 3.093909e+001
      vertex   -8.982372e+001 1.037500e+002 3.064230e+001
      vertex   -8.970329e+001 1.100000e+002 3.085116e+001
    endloop
  endfacet
  facet normal 8.916536e-001 3.779292e-004 -4.527182e-001
    outer loop
      vertex   -8.982372e+001 1.037500e+002 3.064230e+001
      vertex   -8.997966e+001 1.037500e+002 3.033515e+001
      vertex   -8.987630e+001 1.100000e+002 3.054396e+001
    endloop
  endfacet
  facet normal 9.182452e-001 3.912872e-004 -3.960122e-001
    outer loop
      vertex   -8.997966e+001 1.037500e+002 3.033515e+001
      vertex   -9.011608e+001 1.037500e+002 3.001884e+001
      vertex   -9.002927e+001 1.100000e+002 3.022631e+001
    endloop
  endfacet
  facet normal 9.412348e-001 4.027370e-004 -3.377528e-001
    outer loop
      vertex   -9.011608e+001 1.037500e+002 3.001884e+001
      vertex   -9.023243e+001 1.037500e+002 2.969462e+001
      vertex   -9.016158e+001 1.100000e+002 2.989951e+001
    endloop
  endfacet
  facet normal 9.605322e-001 4.122786e-004 -2.781686e-001
    outer loop
      vertex   -9.023243e+001 1.037500e+002 2.969462e+001
      vertex   -9.032825e+001 1.037500e+002 2.936374e+001
      vertex   -9.027267e+001 1.100000e+002 2.956490e+001
    endloop
  endfacet
  facet normal 9.760618e-001 4.199119e-004 -2.174931e-001
    outer loop
      vertex   -9.032825e+001 1.037500e+002 2.936374e+001
      vertex   -9.040317e+001 1.037500e+002 2.902751e+001
      vertex   -9.036210e+001 1.100000e+002 2.922387e+001
    endloop
  endfacet
  facet normal 9.877626e-001 4.256368e-004 -1.559645e-001
    outer loop
      vertex   -9.040317e+001 1.037500e+002 2.902751e+001
      vertex   -9.045689e+001 1.037500e+002 2.868726e+001
      vertex   -9.042950e+001 1.100000e+002 2.887780e+001
    endloop
  endfacet
  facet normal 9.955887e-001 4.294535e-004 -9.382409e-002
    outer loop
      vertex   -9.045689e+001 1.037500e+002 2.868726e+001
      vertex   -9.048921e+001 1.037500e+002 2.834430e+001
      vertex   -9.047459e+001 1.100000e+002 2.852813e+001
    endloop
  endfacet
  facet normal 9.995095e-001 4.313618e-004 -3.131564e-002
    outer loop
      vertex   -9.048921e+001 1.037500e+002 2.834430e+001
      vertex   -9.050000e+001 1.037500e+002 2.800000e+001
      vertex   -9.049717e+001 1.100000e+002 2.817628e+001
    endloop
  endfacet
  facet normal 9.995095e-001 4.313618e-004 3.131564e-002
    outer loop
      vertex   -9.050000e+001 1.037500e+002 2.800000e+001
      vertex   -9.048921e+001 1.037500e+002 2.765570e+001
      vertex   -9.049717e+001 1.100000e+002 2.782372e+001
    endloop
  endfacet
  facet normal 9.955887e-001 4.294535e-004 9.382409e-002
    outer loop
      vertex   -9.048921e+001 1.037500e+002 2.765570e+001
      vertex   -9.045689e+001 1.037500e+002 2.731274e+001
      vertex   -9.047459e+001 1.100000e+002 2.747187e+001
    endloop
  endfacet
  facet normal 9.877626e-001 4.256368e-004 1.559645e-001
    outer loop
      vertex   -9.045689e+001 1.037500e+002 2.731274e+001
      vertex   -9.040317e+001 1.037500e+002 2.697249e+001
      vertex   -9.042950e+001 1.100000e+002 2.712220e+001
    endloop
  endfacet
  facet normal 9.760618e-001 4.199119e-004 2.174931e-001
    outer loop
      vertex   -9.040317e+001 1.037500e+002 2.697249e+001
      vertex   -9.032825e+001 1.037500e+002 2.663626e+001
      vertex   -9.036210e+001 1.100000e+002 2.677613e+001
    endloop
  endfacet
  facet normal 9.605322e-001 4.122786e-004 2.781686e-001
    outer loop
      vertex   -9.032825e+001 1.037500e+002 2.663626e+001
      vertex   -9.023243e+001 1.037500e+002 2.630538e+001
      vertex   -9.027267e+001 1.100000e+002 2.643510e+001
    endloop
  endfacet
  facet normal 9.412348e-001 4.027370e-004 3.377528e-001
    outer loop
      vertex   -9.023243e+001 1.037500e+002 2.630538e+001
      vertex   -9.011608e+001 1.037500e+002 2.598116e+001
      vertex   -9.016158e+001 1.100000e+002 2.610049e+001
    endloop
  endfacet
  facet normal 9.182452e-001 3.912872e-004 3.960122e-001
    outer loop
      vertex   -9.011608e+001 1.037500e+002 2.598116e+001
      vertex   -8.997966e+001 1.037500e+002 2.566485e+001
      vertex   -9.002927e+001 1.100000e+002 2.577369e+001
    endloop
  endfacet
  facet normal 8.916536e-001 3.779292e-004 4.527182e-001
    outer loop
      vertex   -8.997966e+001 1.037500e+002 2.566485e+001
      vertex   -8.982372e+001 1.037500e+002 2.535770e+001
      vertex   -8.987630e+001 1.100000e+002 2.545604e+001
    endloop
  endfacet
  facet normal 8.615643e-001 3.626629e-004 5.076483e-001
    outer loop
      vertex   -8.982372e+001 1.037500e+002 2.535770e+001
      vertex   -8.964884e+001 1.037500e+002 2.506091e+001
      vertex   -8.970329e+001 1.100000e+002 2.514884e+001
    endloop
  endfacet
  facet normal 8.280954e-001 3.454884e-004 5.605870e-001
    outer loop
      vertex   -8.964884e+001 1.037500e+002 2.506091e+001
      vertex   -8.945574e+001 1.037500e+002 2.477566e+001
      vertex   -8.951095e+001 1.100000e+002 2.485336e+001
    endloop
  endfacet
  facet normal 7.913782e-001 3.264058e-004 6.113268e-001
    outer loop
      vertex   -8.945574e+001 1.037500e+002 2.477566e+001
      vertex   -8.924515e+001 1.037500e+002 2.450305e+001
      vertex   -8.930007e+001 1.100000e+002 2.457081e+001
    endloop
  endfacet
  facet normal 7.515566e-001 3.054151e-004 6.596685e-001
    outer loop
      vertex   -8.924515e+001 1.037500e+002 2.450305e+001
      vertex   -8.901792e+001 1.037500e+002 2.424416e+001
      vertex   -8.907153e+001 1.100000e+002 2.430235e+001
    endloop
  endfacet
  facet normal 7.087869e-001 2.825164e-004 7.054226e-001
    outer loop
      vertex   -8.901792e+001 1.037500e+002 2.424416e+001
      vertex   -8.877492e+001 1.037500e+002 2.400000e+001
      vertex   -8.882625e+001 1.100000e+002 2.404908e+001
    endloop
  endfacet
  facet normal 7.086319e-001 -2.800199e-004 7.055783e-001
    outer loop
      vertex   -8.877492e+001 1.162500e+002 2.400000e+001
      vertex   -8.901626e+001 1.162500e+002 2.424239e+001
      vertex   -8.882625e+001 1.100000e+002 2.404908e+001
    endloop
  endfacet
  facet normal 7.183493e-001 3.214837e-004 6.956825e-001
    outer loop
      vertex   -8.882625e+001 1.100000e+002 2.404908e+001
      vertex   -8.901626e+001 1.162500e+002 2.424239e+001
      vertex   -8.907153e+001 1.100000e+002 2.430235e+001
    endloop
  endfacet
  facet normal 1.000000e+000 0.000000e+000 -0.000000e+000
    outer loop
      vertex   -7.800000e+001 1.162500e+002 2.200000e+001
      vertex   -7.800000e+001 1.162500e+002 3.400000e+001
      vertex   -7.800000e+001 1.037500e+002 2.200000e+001
    endloop
  endfacet
  facet normal 1.000000e+000 0.000000e+000 -0.000000e+000
    outer loop
      vertex   -7.800000e+001 1.037500e+002 2.200000e+001
      vertex   -7.800000e+001 1.162500e+002 3.400000e+001
      vertex   -7.800000e+001 1.037500e+002 3.400000e+001
    endloop
  endfacet
  facet normal -0.000000e+000 0.000000e+000 1.000000e+000
    outer loop
      vertex   -9.200000e+001 1.162500e+002 3.400000e+001
      vertex   -9.200000e+001 1.037500e+002 3.400000e+001
      vertex   -7.800000e+001 1.162500e+002 3.400000e+001
    endloop
  endfacet
  facet normal -0.000000e+000 0.000000e+000 1.000000e+000
    outer loop
      vertex   -7.800000e+001 1.162500e+002 3.400000e+001
      vertex   -9.200000e+001 1.037500e+002 3.400000e+001
      vertex   -7.800000e+001 1.037500e+002 3.400000e+001
    endloop
  endfacet
  facet normal -6.910300e-001 -1.329633e-015 -7.228261e-001
    outer loop
      vertex   -8.122508e+001 1.037500e+002 3.200000e+001
      vertex   -8.122508e+001 1.162500e+002 3.200000e+001
      vertex   -8.117375e+001 1.100000e+002 3.195092e+001
    endloop
  endfacet
  facet normal -7.183493e-001 -3.147335e-004 -6.956825e-001
    outer loop
      vertex   -8.098208e+001 1.037500e+002 3.175584e+001
      vertex   -8.117375e+001 1.100000e+002 3.195092e+001
      vertex   -8.092847e+001 1.100000e+002 3.169765e+001
    endloop
  endfacet
  facet normal -7.614459e-001 -3.366782e-004 -6.482284e-001
    outer loop
      vertex   -8.075485e+001 1.037500e+002 3.149695e+001
      vertex   -8.092847e+001 1.100000e+002 3.169765e+001
      vertex   -8.069993e+001 1.100000e+002 3.142919e+001
    endloop
  endfacet
  facet normal -8.014136e-001 -3.567149e-004 -5.981105e-001
    outer loop
      vertex   -8.054426e+001 1.037500e+002 3.122434e+001
      vertex   -8.069993e+001 1.100000e+002 3.142919e+001
      vertex   -8.048905e+001 1.100000e+002 3.114664e+001
    endloop
  endfacet
  facet normal -8.380880e-001 -3.748434e-004 -5.455349e-001
    outer loop
      vertex   -8.035116e+001 1.037500e+002 3.093909e+001
      vertex   -8.048905e+001 1.100000e+002 3.114664e+001
      vertex   -8.029671e+001 1.100000e+002 3.085116e+001
    endloop
  endfacet
  facet normal -8.713186e-001 -3.910638e-004 -4.907175e-001
    outer loop
      vertex   -8.017628e+001 1.037500e+002 3.064230e+001
      vertex   -8.029671e+001 1.100000e+002 3.085116e+001
      vertex   -8.012370e+001 1.100000e+002 3.054396e+001
    endloop
  endfacet
  facet normal -9.009688e-001 -4.053759e-004 -4.338837e-001
    outer loop
      vertex   -8.002034e+001 1.037500e+002 3.033515e+001
      vertex   -8.012370e+001 1.100000e+002 3.054396e+001
      vertex   -7.997073e+001 1.100000e+002 3.022631e+001
    endloop
  endfacet
  facet normal -9.269167e-001 -4.177799e-004 -3.752670e-001
    outer loop
      vertex   -7.988392e+001 1.037500e+002 3.001884e+001
      vertex   -7.997073e+001 1.100000e+002 3.022631e+001
      vertex   -7.983842e+001 1.100000e+002 2.989951e+001
    endloop
  endfacet
  facet normal -9.490557e-001 -4.282756e-004 -3.151082e-001
    outer loop
      vertex   -7.976757e+001 1.037500e+002 2.969462e+001
      vertex   -7.983842e+001 1.100000e+002 2.989951e+001
      vertex   -7.972733e+001 1.100000e+002 2.956490e+001
    endloop
  endfacet
  facet normal -9.672948e-001 -4.368630e-004 -2.536546e-001
    outer loop
      vertex   -7.967175e+001 1.037500e+002 2.936374e+001
      vertex   -7.972733e+001 1.100000e+002 2.956490e+001
      vertex   -7.963790e+001 1.100000e+002 2.922387e+001
    endloop
  endfacet
  facet normal -9.815591e-001 -4.435421e-004 -1.911586e-001
    outer loop
      vertex   -7.959683e+001 1.037500e+002 2.902751e+001
      vertex   -7.963790e+001 1.100000e+002 2.922387e+001
      vertex   -7.957050e+001 1.100000e+002 2.887780e+001
    endloop
  endfacet
  facet normal -9.917899e-001 -4.483129e-004 -1.278771e-001
    outer loop
      vertex   -7.954311e+001 1.037500e+002 2.868726e+001
      vertex   -7.957050e+001 1.100000e+002 2.887780e+001
      vertex   -7.952541e+001 1.100000e+002 2.852813e+001
    endloop
  endfacet
  facet normal -9.979453e-001 -4.511754e-004 -6.407021e-002
    outer loop
      vertex   -7.951079e+001 1.037500e+002 2.834430e+001
      vertex   -7.952541e+001 1.100000e+002 2.852813e+001
      vertex   -7.950283e+001 1.100000e+002 2.817628e+001
    endloop
  endfacet
  facet normal -9.999999e-001 -4.521296e-004 -0.000000e+000
    outer loop
      vertex   -7.950000e+001 1.037500e+002 2.800000e+001
      vertex   -7.950283e+001 1.100000e+002 2.817628e+001
      vertex   -7.950283e+001 1.100000e+002 2.782372e+001
    endloop
  endfacet
  facet normal -9.979453e-001 -4.511754e-004 6.407021e-002
    outer loop
      vertex   -7.951079e+001 1.037500e+002 2.765570e+001
      vertex   -7.950283e+001 1.100000e+002 2.782372e+001
      vertex   -7.952541e+001 1.100000e+002 2.747187e+001
    endloop
  endfacet
  facet normal -9.917899e-001 -4.483129e-004 1.278771e-001
    outer loop
      vertex   -7.954311e+001 1.037500e+002 2.731274e+001
      vertex   -7.952541e+001 1.100000e+002 2.747187e+001
      vertex   -7.957050e+001 1.100000e+002 2.712220e+001
    endloop
  endfacet
  facet normal -9.815591e-001 -4.435421e-004 1.911586e-001
    outer loop
      vertex   -7.959683e+001 1.037500e+002 2.697249e+001
      vertex   -7.957050e+001 1.100000e+002 2.712220e+001
      vertex   -7.963790e+001 1.100000e+002 2.677613e+001
    endloop
  endfacet
  facet normal -9.672948e-001 -4.368630e-004 2.536546e-001
    outer loop
      vertex   -7.967175e+001 1.037500e+002 2.663626e+001
      vertex   -7.963790e+001 1.100000e+002 2.677613e+001
      vertex   -7.972733e+001 1.100000e+002 2.643510e+001
    endloop
  endfacet
  facet normal -9.490557e-001 -4.282756e-004 3.151082e-001
    outer loop
      vertex   -7.976757e+001 1.037500e+002 2.630538e+001
      vertex   -7.972733e+001 1.100000e+002 2.643510e+001
      vertex   -7.983842e+001 1.100000e+002 2.610049e+001
    endloop
  endfacet
  facet normal -9.269167e-001 -4.177799e-004 3.752670e-001
    outer loop
      vertex   -7.988392e+001 1.037500e+002 2.598116e+001
      vertex   -7.983842e+001 1.100000e+002 2.610049e+001
      vertex   -7.997073e+001 1.100000e+002 2.577369e+001
    endloop
  endfacet
  facet normal -9.009688e-001 -4.053759e-004 4.338837e-001
    outer loop
      vertex   -8.002034e+001 1.037500e+002 2.566485e+001
      vertex   -7.997073e+001 1.100000e+002 2.577369e+001
      vertex   -8.012370e+001 1.100000e+002 2.545604e+001
    endloop
  endfacet
  facet normal -8.713186e-001 -3.910638e-004 4.907175e-001
    outer loop
      vertex   -8.017628e+001 1.037500e+002 2.535770e+001
      vertex   -8.012370e+001 1.100000e+002 2.545604e+001
      vertex   -8.029671e+001 1.100000e+002 2.514884e+001
    endloop
  endfacet
  facet normal -8.380880e-001 -3.748434e-004 5.455349e-001
    outer loop
      vertex   -8.035116e+001 1.037500e+002 2.506091e+001
      vertex   -8.029671e+001 1.100000e+002 2.514884e+001
      vertex   -8.048905e+001 1.100000e+002 2.485336e+001
    endloop
  endfacet
  facet normal -8.014136e-001 -3.567149e-004 5.981105e-001
    outer loop
      vertex   -8.054426e+001 1.037500e+002 2.477566e+001
      vertex   -8.048905e+001 1.100000e+002 2.485336e+001
      vertex   -8.069993e+001 1.100000e+002 2.457081e+001
    endloop
  endfacet
  facet normal -7.614459e-001 -3.366782e-004 6.482284e-001
    outer loop
      vertex   -8.075485e+001 1.037500e+002 2.450305e+001
      vertex   -8.069993e+001 1.100000e+002 2.457081e+001
      vertex   -8.092847e+001 1.100000e+002 2.430235e+001
    endloop
  endfacet
  facet normal -7.183493e-001 -3.147335e-004 6.956825e-001
    outer loop
      vertex   -8.098208e+001 1.037500e+002 2.424416e+001
      vertex   -8.092847e+001 1.100000e+002 2.430235e+001
      vertex   -8.117375e+001 1.100000e+002 2.404908e+001
    endloop
  endfacet
  facet normal -6.910300e-001 -5.441898e-016 7.228261e-001
    outer loop
      vertex   -8.122508e+001 1.037500e+002 2.400000e+001
      vertex   -8.117375e+001 1.100000e+002 2.404908e+001
      vertex   -8.122508e+001 1.162500e+002 2.400000e+001
    endloop
  endfacet
  facet normal -7.087869e-001 2.825164e-004 7.054226e-001
    outer loop
      vertex   -8.122508e+001 1.037500e+002 2.400000e+001
      vertex   -8.098208e+001 1.037500e+002 2.424416e+001
      vertex   -8.117375e+001 1.100000e+002 2.404908e+001
    endloop
  endfacet
  facet normal -7.511215e-001 -3.090141e-004 -6.601639e-001
    outer loop
      vertex   -8.075792e+001 1.162500e+002 3.150068e+001
      vertex   -8.092847e+001 1.100000e+002 3.169765e+001
      vertex   -8.098374e+001 1.162500e+002 3.175761e+001
    endloop
  endfacet
  facet normal -7.614459e-001 3.488694e-004 -6.482284e-001
    outer loop
      vertex   -8.075792e+001 1.162500e+002 3.150068e+001
      vertex   -8.069993e+001 1.100000e+002 3.142919e+001
      vertex   -8.092847e+001 1.100000e+002 3.169765e+001
    endloop
  endfacet
  facet normal -7.907059e-001 -3.347912e-004 -6.121961e-001
    outer loop
      vertex   -8.075792e+001 1.162500e+002 3.150068e+001
      vertex   -8.054852e+001 1.162500e+002 3.123022e+001
      vertex   -8.069993e+001 1.100000e+002 3.142919e+001
    endloop
  endfacet
  facet normal -8.014136e-001 3.730378e-004 -5.981105e-001
    outer loop
      vertex   -8.069993e+001 1.100000e+002 3.142919e+001
      vertex   -8.054852e+001 1.162500e+002 3.123022e+001
      vertex   -8.048905e+001 1.100000e+002 3.114664e+001
    endloop
  endfacet
  facet normal -8.272320e-001 -3.573510e-004 -5.618603e-001
    outer loop
      vertex   -8.048905e+001 1.100000e+002 3.114664e+001
      vertex   -8.054852e+001 1.162500e+002 3.123022e+001
      vertex   -8.035633e+001 1.162500e+002 3.094726e+001
    endloop
  endfacet
  facet normal -8.605585e-001 -3.766936e-004 -5.093515e-001
    outer loop
      vertex   -8.029671e+001 1.100000e+002 3.085116e+001
      vertex   -8.035633e+001 1.162500e+002 3.094726e+001
      vertex   -8.018210e+001 1.162500e+002 3.065290e+001
    endloop
  endfacet
  facet normal -8.905565e-001 -3.928187e-004 -4.548725e-001
    outer loop
      vertex   -8.012370e+001 1.100000e+002 3.054396e+001
      vertex   -8.018210e+001 1.162500e+002 3.065290e+001
      vertex   -8.002651e+001 1.162500e+002 3.034828e+001
    endloop
  endfacet
  facet normal -9.171100e-001 -4.057263e-004 -3.986341e-001
    outer loop
      vertex   -7.997073e+001 1.100000e+002 3.022631e+001
      vertex   -8.002651e+001 1.162500e+002 3.034828e+001
      vertex   -7.989016e+001 1.162500e+002 3.003458e+001
    endloop
  endfacet
  facet normal -9.401162e-001 -4.154165e-004 -3.408539e-001
    outer loop
      vertex   -7.983842e+001 1.100000e+002 2.989951e+001
      vertex   -7.989016e+001 1.162500e+002 3.003458e+001
      vertex   -7.977357e+001 1.162500e+002 2.971300e+001
    endloop
  endfacet
  facet normal -9.594862e-001 -4.218891e-004 -2.817553e-001
    outer loop
      vertex   -7.972733e+001 1.100000e+002 2.956490e+001
      vertex   -7.977357e+001 1.162500e+002 2.971300e+001
      vertex   -7.967719e+001 1.162500e+002 2.938481e+001
    endloop
  endfacet
  facet normal -9.751451e-001 -4.251441e-004 -2.215670e-001
    outer loop
      vertex   -7.963790e+001 1.100000e+002 2.922387e+001
      vertex   -7.967719e+001 1.162500e+002 2.938481e+001
      vertex   -7.960140e+001 1.162500e+002 2.905125e+001
    endloop
  endfacet
  facet normal -9.870322e-001 -4.251816e-004 -1.605216e-001
    outer loop
      vertex   -7.957050e+001 1.100000e+002 2.887780e+001
      vertex   -7.960140e+001 1.162500e+002 2.905125e+001
      vertex   -7.954649e+001 1.162500e+002 2.871363e+001
    endloop
  endfacet
  facet normal -9.951017e-001 -4.220015e-004 -9.885544e-002
    outer loop
      vertex   -7.952541e+001 1.100000e+002 2.852813e+001
      vertex   -7.954649e+001 1.162500e+002 2.871363e+001
      vertex   -7.951268e+001 1.162500e+002 2.837325e+001
    endloop
  endfacet
  facet normal -9.993223e-001 -4.156038e-004 -3.680687e-002
    outer loop
      vertex   -7.950283e+001 1.100000e+002 2.817628e+001
      vertex   -7.951268e+001 1.162500e+002 2.837325e+001
      vertex   -7.950009e+001 1.162500e+002 2.803143e+001
    endloop
  endfacet
  facet normal -9.996777e-001 -4.059886e-004 2.538406e-002
    outer loop
      vertex   -7.950283e+001 1.100000e+002 2.782372e+001
      vertex   -7.950009e+001 1.162500e+002 2.803143e+001
      vertex   -7.950877e+001 1.162500e+002 2.768948e+001
    endloop
  endfacet
  facet normal -9.961665e-001 -3.931559e-004 8.747682e-002
    outer loop
      vertex   -7.952541e+001 1.100000e+002 2.747187e+001
      vertex   -7.950877e+001 1.162500e+002 2.768948e+001
      vertex   -7.953869e+001 1.162500e+002 2.734874e+001
    endloop
  endfacet
  facet normal -9.888023e-001 -3.771057e-004 1.492312e-001
    outer loop
      vertex   -7.957050e+001 1.100000e+002 2.712220e+001
      vertex   -7.953869e+001 1.162500e+002 2.734874e+001
      vertex   -7.958974e+001 1.162500e+002 2.701051e+001
    endloop
  endfacet
  facet normal -9.776135e-001 -3.578382e-004 2.104084e-001
    outer loop
      vertex   -7.963790e+001 1.100000e+002 2.677613e+001
      vertex   -7.958974e+001 1.162500e+002 2.701051e+001
      vertex   -7.966171e+001 1.162500e+002 2.667611e+001
    endloop
  endfacet
  facet normal -9.626435e-001 -3.353533e-004 2.707718e-001
    outer loop
      vertex   -7.972733e+001 1.100000e+002 2.643510e+001
      vertex   -7.966171e+001 1.162500e+002 2.667611e+001
      vertex   -7.975433e+001 1.162500e+002 2.634684e+001
    endloop
  endfacet
  facet normal -9.439502e-001 -3.096511e-004 3.300879e-001
    outer loop
      vertex   -7.983842e+001 1.100000e+002 2.610049e+001
      vertex   -7.975433e+001 1.162500e+002 2.634684e+001
      vertex   -7.986724e+001 1.162500e+002 2.602395e+001
    endloop
  endfacet
  facet normal -9.216058e-001 -2.807318e-004 3.881272e-001
    outer loop
      vertex   -7.997073e+001 1.100000e+002 2.577369e+001
      vertex   -7.986724e+001 1.162500e+002 2.602395e+001
      vertex   -8.000000e+001 1.162500e+002 2.570871e+001
    endloop
  endfacet
  facet normal -8.952728e-001 -2.914631e-004 4.455182e-001
    outer loop
      vertex   -8.012370e+001 1.100000e+002 2.545604e+001
      vertex   -8.000000e+001 1.162500e+002 2.570871e+001
      vertex   -8.015706e+001 1.162500e+002 2.539310e+001
    endloop
  endfacet
  facet normal -8.648927e-001 -2.913383e-004 5.019567e-001
    outer loop
      vertex   -8.029671e+001 1.100000e+002 2.514884e+001
      vertex   -8.015706e+001 1.162500e+002 2.539310e+001
      vertex   -8.033401e+001 1.162500e+002 2.508821e+001
    endloop
  endfacet
  facet normal -8.309593e-001 -2.912134e-004 5.563331e-001
    outer loop
      vertex   -8.048905e+001 1.100000e+002 2.485336e+001
      vertex   -8.033401e+001 1.162500e+002 2.508821e+001
      vertex   -8.053013e+001 1.162500e+002 2.479527e+001
    endloop
  endfacet
  facet normal -7.936121e-001 -2.910885e-004 6.084239e-001
    outer loop
      vertex   -8.069993e+001 1.100000e+002 2.457081e+001
      vertex   -8.053013e+001 1.162500e+002 2.479527e+001
      vertex   -8.074462e+001 1.162500e+002 2.451550e+001
    endloop
  endfacet
  facet normal -7.530046e-001 -2.909636e-004 6.580152e-001
    outer loop
      vertex   -8.092847e+001 1.100000e+002 2.430235e+001
      vertex   -8.074462e+001 1.162500e+002 2.451550e+001
      vertex   -8.097659e+001 1.162500e+002 2.425005e+001
    endloop
  endfacet
  facet normal -7.093035e-001 -2.908387e-004 7.049031e-001
    outer loop
      vertex   -8.117375e+001 1.100000e+002 2.404908e+001
      vertex   -8.097659e+001 1.162500e+002 2.425005e+001
      vertex   -8.122508e+001 1.162500e+002 2.400000e+001
    endloop
  endfacet
  facet normal -7.183493e-001 2.910058e-004 6.956825e-001
    outer loop
      vertex   -8.117375e+001 1.100000e+002 2.404908e+001
      vertex   -8.092847e+001 1.100000e+002 2.430235e+001
      vertex   -8.097659e+001 1.162500e+002 2.425005e+001
    endloop
  endfacet
  facet normal -8.380880e-001 3.939890e-004 -5.455349e-001
    outer loop
      vertex   -8.048905e+001 1.100000e+002 3.114664e+001
      vertex   -8.035633e+001 1.162500e+002 3.094726e+001
      vertex   -8.029671e+001 1.100000e+002 3.085116e+001
    endloop
  endfacet
  facet normal -8.713186e-001 4.117228e-004 -4.907175e-001
    outer loop
      vertex   -8.029671e+001 1.100000e+002 3.085116e+001
      vertex   -8.018210e+001 1.162500e+002 3.065290e+001
      vertex   -8.012370e+001 1.100000e+002 3.054396e+001
    endloop
  endfacet
  facet normal -9.009688e-001 4.262392e-004 -4.338837e-001
    outer loop
      vertex   -8.012370e+001 1.100000e+002 3.054396e+001
      vertex   -8.002651e+001 1.162500e+002 3.034828e+001
      vertex   -7.997073e+001 1.100000e+002 3.022631e+001
    endloop
  endfacet
  facet normal -9.269167e-001 4.375381e-004 -3.752670e-001
    outer loop
      vertex   -7.997073e+001 1.100000e+002 3.022631e+001
      vertex   -7.989016e+001 1.162500e+002 3.003458e+001
      vertex   -7.983842e+001 1.100000e+002 2.989951e+001
    endloop
  endfacet
  facet normal -9.490557e-001 4.456195e-004 -3.151082e-001
    outer loop
      vertex   -7.983842e+001 1.100000e+002 2.989951e+001
      vertex   -7.977357e+001 1.162500e+002 2.971300e+001
      vertex   -7.972733e+001 1.100000e+002 2.956490e+001
    endloop
  endfacet
  facet normal -9.672948e-001 4.504834e-004 -2.536546e-001
    outer loop
      vertex   -7.972733e+001 1.100000e+002 2.956490e+001
      vertex   -7.967719e+001 1.162500e+002 2.938481e+001
      vertex   -7.963790e+001 1.100000e+002 2.922387e+001
    endloop
  endfacet
  facet normal -9.815591e-001 4.521296e-004 -1.911586e-001
    outer loop
      vertex   -7.963790e+001 1.100000e+002 2.922387e+001
      vertex   -7.960140e+001 1.162500e+002 2.905125e+001
      vertex   -7.957050e+001 1.100000e+002 2.887780e+001
    endloop
  endfacet
  facet normal -9.917899e-001 4.505583e-004 -1.278771e-001
    outer loop
      vertex   -7.957050e+001 1.100000e+002 2.887780e+001
      vertex   -7.954649e+001 1.162500e+002 2.871363e+001
      vertex   -7.952541e+001 1.100000e+002 2.852813e+001
    endloop
  endfacet
  facet normal -9.979453e-001 4.457694e-004 -6.407021e-002
    outer loop
      vertex   -7.952541e+001 1.100000e+002 2.852813e+001
      vertex   -7.951268e+001 1.162500e+002 2.837325e+001
      vertex   -7.950283e+001 1.100000e+002 2.817628e+001
    endloop
  endfacet
  facet normal -9.999999e-001 4.377630e-004 0.000000e+000
    outer loop
      vertex   -7.950283e+001 1.100000e+002 2.817628e+001
      vertex   -7.950009e+001 1.162500e+002 2.803143e+001
      vertex   -7.950283e+001 1.100000e+002 2.782372e+001
    endloop
  endfacet
  facet normal -9.979453e-001 4.265390e-004 6.407021e-002
    outer loop
      vertex   -7.950283e+001 1.100000e+002 2.782372e+001
      vertex   -7.950877e+001 1.162500e+002 2.768948e+001
      vertex   -7.952541e+001 1.100000e+002 2.747187e+001
    endloop
  endfacet
  facet normal -9.917899e-001 4.120976e-004 1.278772e-001
    outer loop
      vertex   -7.952541e+001 1.100000e+002 2.747187e+001
      vertex   -7.953869e+001 1.162500e+002 2.734874e+001
      vertex   -7.957050e+001 1.100000e+002 2.712220e+001
    endloop
  endfacet
  facet normal -9.815591e-001 3.944387e-004 1.911586e-001
    outer loop
      vertex   -7.957050e+001 1.100000e+002 2.712220e+001
      vertex   -7.958974e+001 1.162500e+002 2.701051e+001
      vertex   -7.963790e+001 1.100000e+002 2.677613e+001
    endloop
  endfacet
  facet normal -9.672948e-001 3.735624e-004 2.536546e-001
    outer loop
      vertex   -7.963790e+001 1.100000e+002 2.677613e+001
      vertex   -7.966171e+001 1.162500e+002 2.667611e+001
      vertex   -7.972733e+001 1.100000e+002 2.643510e+001
    endloop
  endfacet
  facet normal -9.490557e-001 3.494689e-004 3.151082e-001
    outer loop
      vertex   -7.972733e+001 1.100000e+002 2.643510e+001
      vertex   -7.975433e+001 1.162500e+002 2.634684e+001
      vertex   -7.983842e+001 1.100000e+002 2.610049e+001
    endloop
  endfacet
  facet normal -9.269167e-001 3.221582e-004 3.752670e-001
    outer loop
      vertex   -7.983842e+001 1.100000e+002 2.610049e+001
      vertex   -7.986724e+001 1.162500e+002 2.602395e+001
      vertex   -7.997073e+001 1.100000e+002 2.577369e+001
    endloop
  endfacet
  facet normal -9.009688e-001 2.916303e-004 4.338837e-001
    outer loop
      vertex   -7.997073e+001 1.100000e+002 2.577369e+001
      vertex   -8.000000e+001 1.162500e+002 2.570871e+001
      vertex   -8.012370e+001 1.100000e+002 2.545604e+001
    endloop
  endfacet
  facet normal -8.713187e-001 2.915054e-004 4.907175e-001
    outer loop
      vertex   -8.012370e+001 1.100000e+002 2.545604e+001
      vertex   -8.015706e+001 1.162500e+002 2.539310e+001
      vertex   -8.029671e+001 1.100000e+002 2.514884e+001
    endloop
  endfacet
  facet normal -8.380881e-001 2.913805e-004 5.455349e-001
    outer loop
      vertex   -8.029671e+001 1.100000e+002 2.514884e+001
      vertex   -8.033401e+001 1.162500e+002 2.508821e+001
      vertex   -8.048905e+001 1.100000e+002 2.485336e+001
    endloop
  endfacet
  facet normal -8.014136e-001 2.912557e-004 5.981105e-001
    outer loop
      vertex   -8.048905e+001 1.100000e+002 2.485336e+001
      vertex   -8.053013e+001 1.162500e+002 2.479527e+001
      vertex   -8.069993e+001 1.100000e+002 2.457081e+001
    endloop
  endfacet
  facet normal -7.614459e-001 2.911307e-004 6.482284e-001
    outer loop
      vertex   -8.069993e+001 1.100000e+002 2.457081e+001
      vertex   -8.074462e+001 1.162500e+002 2.451550e+001
      vertex   -8.092847e+001 1.100000e+002 2.430235e+001
    endloop
  endfacet
  facet normal -7.515566e-001 3.054151e-004 6.596685e-001
    outer loop
      vertex   -8.098208e+001 1.037500e+002 2.424416e+001
      vertex   -8.075485e+001 1.037500e+002 2.450305e+001
      vertex   -8.092847e+001 1.100000e+002 2.430235e+001
    endloop
  endfacet
  facet normal -7.913782e-001 3.264058e-004 6.113268e-001
    outer loop
      vertex   -8.075485e+001 1.037500e+002 2.450305e+001
      vertex   -8.054426e+001 1.037500e+002 2.477566e+001
      vertex   -8.069993e+001 1.100000e+002 2.457081e+001
    endloop
  endfacet
  facet normal -8.280954e-001 3.454884e-004 5.605870e-001
    outer loop
      vertex   -8.054426e+001 1.037500e+002 2.477566e+001
      vertex   -8.035116e+001 1.037500e+002 2.506091e+001
      vertex   -8.048905e+001 1.100000e+002 2.485336e+001
    endloop
  endfacet
  facet normal -8.615643e-001 3.626629e-004 5.076483e-001
    outer loop
      vertex   -8.035116e+001 1.037500e+002 2.506091e+001
      vertex   -8.017628e+001 1.037500e+002 2.535770e+001
      vertex   -8.029671e+001 1.100000e+002 2.514884e+001
    endloop
  endfacet
  facet normal -8.916536e-001 3.779292e-004 4.527182e-001
    outer loop
      vertex   -8.017628e+001 1.037500e+002 2.535770e+001
      vertex   -8.002034e+001 1.037500e+002 2.566485e+001
      vertex   -8.012370e+001 1.100000e+002 2.545604e+001
    endloop
  endfacet
  facet normal -9.182452e-001 3.912872e-004 3.960122e-001
    outer loop
      vertex   -8.002034e+001 1.037500e+002 2.566485e+001
      vertex   -7.988392e+001 1.037500e+002 2.598116e+001
      vertex   -7.997073e+001 1.100000e+002 2.577369e+001
    endloop
  endfacet
  facet normal -9.412348e-001 4.027370e-004 3.377528e-001
    outer loop
      vertex   -7.988392e+001 1.037500e+002 2.598116e+001
      vertex   -7.976757e+001 1.037500e+002 2.630538e+001
      vertex   -7.983842e+001 1.100000e+002 2.610049e+001
    endloop
  endfacet
  facet normal -9.605322e-001 4.122786e-004 2.781686e-001
    outer loop
      vertex   -7.976757e+001 1.037500e+002 2.630538e+001
      vertex   -7.967175e+001 1.037500e+002 2.663626e+001
      vertex   -7.972733e+001 1.100000e+002 2.643510e+001
    endloop
  endfacet
  facet normal -9.760618e-001 4.199119e-004 2.174931e-001
    outer loop
      vertex   -7.967175e+001 1.037500e+002 2.663626e+001
      vertex   -7.959683e+001 1.037500e+002 2.697249e+001
      vertex   -7.963790e+001 1.100000e+002 2.677613e+001
    endloop
  endfacet
  facet normal -9.877626e-001 4.256368e-004 1.559645e-001
    outer loop
      vertex   -7.959683e+001 1.037500e+002 2.697249e+001
      vertex   -7.954311e+001 1.037500e+002 2.731274e+001
      vertex   -7.957050e+001 1.100000e+002 2.712220e+001
    endloop
  endfacet
  facet normal -9.955887e-001 4.294535e-004 9.382409e-002
    outer loop
      vertex   -7.954311e+001 1.037500e+002 2.731274e+001
      vertex   -7.951079e+001 1.037500e+002 2.765570e+001
      vertex   -7.952541e+001 1.100000e+002 2.747187e+001
    endloop
  endfacet
  facet normal -9.995095e-001 4.313618e-004 3.131564e-002
    outer loop
      vertex   -7.951079e+001 1.037500e+002 2.765570e+001
      vertex   -7.950000e+001 1.037500e+002 2.800000e+001
      vertex   -7.950283e+001 1.100000e+002 2.782372e+001
    endloop
  endfacet
  facet normal -9.995095e-001 4.313618e-004 -3.131564e-002
    outer loop
      vertex   -7.950000e+001 1.037500e+002 2.800000e+001
      vertex   -7.951079e+001 1.037500e+002 2.834430e+001
      vertex   -7.950283e+001 1.100000e+002 2.817628e+001
    endloop
  endfacet
  facet normal -9.955887e-001 4.294535e-004 -9.382409e-002
    outer loop
      vertex   -7.951079e+001 1.037500e+002 2.834430e+001
      vertex   -7.954311e+001 1.037500e+002 2.868726e+001
      vertex   -7.952541e+001 1.100000e+002 2.852813e+001
    endloop
  endfacet
  facet normal -9.877626e-001 4.256368e-004 -1.559645e-001
    outer loop
      vertex   -7.954311e+001 1.037500e+002 2.868726e+001
      vertex   -7.959683e+001 1.037500e+002 2.902751e+001
      vertex   -7.957050e+001 1.100000e+002 2.887780e+001
    endloop
  endfacet
  facet normal -9.760618e-001 4.199119e-004 -2.174931e-001
    outer loop
      vertex   -7.959683e+001 1.037500e+002 2.902751e+001
      vertex   -7.967175e+001 1.037500e+002 2.936374e+001
      vertex   -7.963790e+001 1.100000e+002 2.922387e+001
    endloop
  endfacet
  facet normal -9.605322e-001 4.122786e-004 -2.781686e-001
    outer loop
      vertex   -7.967175e+001 1.037500e+002 2.936374e+001
      vertex   -7.976757e+001 1.037500e+002 2.969462e+001
      vertex   -7.972733e+001 1.100000e+002 2.956490e+001
    endloop
  endfacet
  facet normal -9.412348e-001 4.027370e-004 -3.377528e-001
    outer loop
      vertex   -7.976757e+001 1.037500e+002 2.969462e+001
      vertex   -7.988392e+001 1.037500e+002 3.001884e+001
      vertex   -7.983842e+001 1.100000e+002 2.989951e+001
    endloop
  endfacet
  facet normal -9.182452e-001 3.912872e-004 -3.960122e-001
    outer loop
      vertex   -7.988392e+001 1.037500e+002 3.001884e+001
      vertex   -8.002034e+001 1.037500e+002 3.033515e+001
      vertex   -7.997073e+001 1.100000e+002 3.022631e+001
    endloop
  endfacet
  facet normal -8.916536e-001 3.779292e-004 -4.527182e-001
    outer loop
      vertex   -8.002034e+001 1.037500e+002 3.033515e+001
      vertex   -8.017628e+001 1.037500e+002 3.064230e+001
      vertex   -8.012370e+001 1.100000e+002 3.054396e+001
    endloop
  endfacet
  facet normal -8.615643e-001 3.626629e-004 -5.076483e-001
    outer loop
      vertex   -8.017628e+001 1.037500e+002 3.064230e+001
      vertex   -8.035116e+001 1.037500e+002 3.093909e+001
      vertex   -8.029671e+001 1.100000e+002 3.085116e+001
    endloop
  endfacet
  facet normal -8.280954e-001 3.454884e-004 -5.605870e-001
    outer loop
      vertex   -8.035116e+001 1.037500e+002 3.093909e+001
      vertex   -8.054426e+001 1.037500e+002 3.122434e+001
      vertex   -8.048905e+001 1.100000e+002 3.114664e+001
    endloop
  endfacet
  facet normal -7.913782e-001 3.264058e-004 -6.113268e-001
    outer loop
      vertex   -8.054426e+001 1.037500e+002 3.122434e+001
      vertex   -8.075485e+001 1.037500e+002 3.149695e+001
      vertex   -8.069993e+001 1.100000e+002 3.142919e+001
    endloop
  endfacet
  facet normal -7.515566e-001 3.054151e-004 -6.596685e-001
    outer loop
      vertex   -8.075485e+001 1.037500e+002 3.149695e+001
      vertex   -8.098208e+001 1.037500e+002 3.175584e+001
      vertex   -8.092847e+001 1.100000e+002 3.169765e+001
    endloop
  endfacet
  facet normal -7.087869e-001 2.825164e-004 -7.054226e-001
    outer loop
      vertex   -8.098208e+001 1.037500e+002 3.175584e+001
      vertex   -8.122508e+001 1.037500e+002 3.200000e+001
      vertex   -8.117375e+001 1.100000e+002 3.195092e+001
    endloop
  endfacet
  facet normal -7.086319e-001 -2.800199e-004 -7.055783e-001
    outer loop
      vertex   -8.122508e+001 1.162500e+002 3.200000e+001
      vertex   -8.098374e+001 1.162500e+002 3.175761e+001
      vertex   -8.117375e+001 1.100000e+002 3.195092e+001
    endloop
  endfacet
  facet normal -7.183493e-001 3.214837e-004 -6.956825e-001
    outer loop
      vertex   -8.117375e+001 1.100000e+002 3.195092e+001
      vertex   -8.098374e+001 1.162500e+002 3.175761e+001
      vertex   -8.092847e+001 1.100000e+002 3.169765e+001
    endloop
  endfacet
  facet normal 2.542979e-006 1.000000e+000 0.000000e+000
    outer loop
      vertex   -9.200000e+001 1.162500e+002 3.400000e+001
      vertex   -9.049991e+001 1.162500e+002 2.796857e+001
      vertex   -9.200000e+001 1.162500e+002 2.200000e+001
    endloop
  endfacet
  facet normal 2.307405e-006 1.000000e+000 -5.859020e-008
    outer loop
      vertex   -9.200000e+001 1.162500e+002 3.400000e+001
      vertex   -9.049123e+001 1.162500e+002 2.831052e+001
      vertex   -9.049991e+001 1.162500e+002 2.796857e+001
    endloop
  endfacet
  facet normal 1.899385e-006 1.000000e+000 -1.667915e-007
    outer loop
      vertex   -9.200000e+001 1.162500e+002 3.400000e+001
      vertex   -9.046131e+001 1.162500e+002 2.865126e+001
      vertex   -9.049123e+001 1.162500e+002 2.831052e+001
    endloop
  endfacet
  facet normal 1.626090e-006 1.000000e+000 -2.454115e-007
    outer loop
      vertex   -9.200000e+001 1.162500e+002 3.400000e+001
      vertex   -9.041026e+001 1.162500e+002 2.898949e+001
      vertex   -9.046131e+001 1.162500e+002 2.865126e+001
    endloop
  endfacet
  facet normal 1.429724e-006 1.000000e+000 -3.077146e-007
    outer loop
      vertex   -9.200000e+001 1.162500e+002 3.400000e+001
      vertex   -9.033829e+001 1.162500e+002 2.932389e+001
      vertex   -9.041026e+001 1.162500e+002 2.898949e+001
    endloop
  endfacet
  facet normal 1.281387e-006 1.000000e+000 -3.604278e-007
    outer loop
      vertex   -9.200000e+001 1.162500e+002 3.400000e+001
      vertex   -9.024567e+001 1.162500e+002 2.965316e+001
      vertex   -9.033829e+001 1.162500e+002 2.932389e+001
    endloop
  endfacet
  facet normal 1.165019e-006 1.000000e+000 -4.073928e-007
    outer loop
      vertex   -9.200000e+001 1.162500e+002 3.400000e+001
      vertex   -9.013276e+001 1.162500e+002 2.997605e+001
      vertex   -9.024567e+001 1.162500e+002 2.965316e+001
    endloop
  endfacet
  facet normal 1.070974e-006 1.000000e+000 -4.510325e-007
    outer loop
      vertex   -9.200000e+001 1.162500e+002 3.400000e+001
      vertex   -9.000000e+001 1.162500e+002 3.029129e+001
      vertex   -9.013276e+001 1.162500e+002 2.997605e+001
    endloop
  endfacet
  facet normal -1.066469e-005 1.000000e+000 -6.779731e-006
    outer loop
      vertex   -9.200000e+001 1.162500e+002 3.400000e+001
      vertex   -8.984294e+001 1.162500e+002 3.060690e+001
      vertex   -9.000000e+001 1.162500e+002 3.029129e+001
    endloop
  endfacet
  facet normal 0.000000e+000 1.000000e+000 0.000000e+000
    outer loop
      vertex   -9.200000e+001 1.162500e+002 3.400000e+001
      vertex   -8.966599e+001 1.162500e+002 3.091179e+001
      vertex   -8.984294e+001 1.162500e+002 3.060690e+001
    endloop
  endfacet
  facet normal 0.000000e+000 1.000000e+000 0.000000e+000
    outer loop
      vertex   -9.200000e+001 1.162500e+002 3.400000e+001
      vertex   -8.946987e+001 1.162500e+002 3.120473e+001
      vertex   -8.966599e+001 1.162500e+002 3.091179e+001
    endloop
  endfacet
  facet normal 0.000000e+000 1.000000e+000 0.000000e+000
    outer loop
      vertex   -9.200000e+001 1.162500e+002 3.400000e+001
      vertex   -8.925538e+001 1.162500e+002 3.148450e+001
      vertex   -8.946987e+001 1.162500e+002 3.120473e+001
    endloop
  endfacet
  facet normal 0.000000e+000 1.000000e+000 0.000000e+000
    outer loop
      vertex   -9.200000e+001 1.162500e+002 3.400000e+001
      vertex   -8.902341e+001 1.162500e+002 3.174995e+001
      vertex   -8.925538e+001 1.162500e+002 3.148450e+001
    endloop
  endfacet
  facet normal 6.585175e-006 1.000000e+000 8.711518e-006
    outer loop
      vertex   -9.200000e+001 1.162500e+002 3.400000e+001
      vertex   -8.877492e+001 1.162500e+002 3.200000e+001
      vertex   -8.902341e+001 1.162500e+002 3.174995e+001
    endloop
  endfacet
  facet normal 0.000000e+000 1.000000e+000 -1.907349e-006
    outer loop
      vertex   -9.200000e+001 1.162500e+002 3.400000e+001
      vertex   -8.122508e+001 1.162500e+002 3.200000e+001
      vertex   -8.877492e+001 1.162500e+002 3.200000e+001
    endloop
  endfacet
  facet normal 0.000000e+000 1.000000e+000 -1.907349e-006
    outer loop
      vertex   -9.200000e+001 1.162500e+002 3.400000e+001
      vertex   -7.800000e+001 1.162500e+002 3.400000e+001
      vertex   -8.122508e+001 1.162500e+002 3.200000e+001
    endloop
  endfacet
  facet normal -7.312802e-007 1.000000e+000 -7.281290e-007
    outer loop
      vertex   -8.122508e+001 1.162500e+002 3.200000e+001
      vertex   -7.800000e+001 1.162500e+002 3.400000e+001
      vertex   -8.098374e+001 1.162500e+002 3.175761e+001
    endloop
  endfacet
  facet normal -7.699330e-007 1.000000e+000 -6.766974e-007
    outer loop
      vertex   -8.098374e+001 1.162500e+002 3.175761e+001
      vertex   -7.800000e+001 1.162500e+002 3.400000e+001
      vertex   -8.075792e+001 1.162500e+002 3.150068e+001
    endloop
  endfacet
  facet normal -8.128494e-007 1.000000e+000 -6.293404e-007
    outer loop
      vertex   -8.075792e+001 1.162500e+002 3.150068e+001
      vertex   -7.800000e+001 1.162500e+002 3.400000e+001
      vertex   -8.054852e+001 1.162500e+002 3.123022e+001
    endloop
  endfacet
  facet normal -8.611505e-007 1.000000e+000 -5.848979e-007
    outer loop
      vertex   -8.054852e+001 1.162500e+002 3.123022e+001
      vertex   -7.800000e+001 1.162500e+002 3.400000e+001
      vertex   -8.035633e+001 1.162500e+002 3.094726e+001
    endloop
  endfacet
  facet normal -9.162894e-007 1.000000e+000 -5.423377e-007
    outer loop
      vertex   -8.035633e+001 1.162500e+002 3.094726e+001
      vertex   -7.800000e+001 1.162500e+002 3.400000e+001
      vertex   -8.018210e+001 1.162500e+002 3.065290e+001
    endloop
  endfacet
  facet normal -9.802103e-007 1.000000e+000 -5.006652e-007
    outer loop
      vertex   -8.018210e+001 1.162500e+002 3.065290e+001
      vertex   -7.800000e+001 1.162500e+002 3.400000e+001
      vertex   -8.002651e+001 1.162500e+002 3.034828e+001
    endloop
  endfacet
  facet normal -1.055597e-006 1.000000e+000 -4.588295e-007
    outer loop
      vertex   -8.002651e+001 1.162500e+002 3.034828e+001
      vertex   -7.800000e+001 1.162500e+002 3.400000e+001
      vertex   -7.989016e+001 1.162500e+002 3.003458e+001
    endloop
  endfacet
  facet normal -1.146283e-006 1.000000e+000 -4.156031e-007
    outer loop
      vertex   -7.989016e+001 1.162500e+002 3.003458e+001
      vertex   -7.800000e+001 1.162500e+002 3.400000e+001
      vertex   -7.977357e+001 1.162500e+002 2.971300e+001
    endloop
  endfacet
  facet normal -1.257958e-006 1.000000e+000 -3.694023e-007
    outer loop
      vertex   -7.977357e+001 1.162500e+002 2.971300e+001
      vertex   -7.800000e+001 1.162500e+002 3.400000e+001
      vertex   -7.967719e+001 1.162500e+002 2.938481e+001
    endloop
  endfacet
  facet normal -1.399464e-006 1.000000e+000 -3.179783e-007
    outer loop
      vertex   -7.967719e+001 1.162500e+002 2.938481e+001
      vertex   -7.800000e+001 1.162500e+002 3.400000e+001
      vertex   -7.960140e+001 1.162500e+002 2.905125e+001
    endloop
  endfacet
  facet normal -1.585349e-006 1.000000e+000 -2.578263e-007
    outer loop
      vertex   -7.960140e+001 1.162500e+002 2.905125e+001
      vertex   -7.800000e+001 1.162500e+002 3.400000e+001
      vertex   -7.954649e+001 1.162500e+002 2.871363e+001
    endloop
  endfacet
  facet normal -1.841379e-006 1.000000e+000 -1.829264e-007
    outer loop
      vertex   -7.954649e+001 1.162500e+002 2.871363e+001
      vertex   -7.800000e+001 1.162500e+002 3.400000e+001
      vertex   -7.951268e+001 1.162500e+002 2.837325e+001
    endloop
  endfacet
  facet normal -2.217946e-006 1.000000e+000 -8.169102e-008
    outer loop
      vertex   -7.951268e+001 1.162500e+002 2.837325e+001
      vertex   -7.800000e+001 1.162500e+002 3.400000e+001
      vertex   -7.950009e+001 1.162500e+002 2.803143e+001
    endloop
  endfacet
  facet normal -2.542979e-006 1.000000e+000 0.000000e+000
    outer loop
      vertex   -7.950009e+001 1.162500e+002 2.803143e+001
      vertex   -7.800000e+001 1.162500e+002 3.400000e+001
      vertex   -7.800000e+001 1.162500e+002 2.200000e+001
    endloop
  endfacet
  facet normal -1.899385e-006 1.000000e+000 1.667915e-007
    outer loop
      vertex   -7.950877e+001 1.162500e+002 2.768948e+001
      vertex   -7.800000e+001 1.162500e+002 2.200000e+001
      vertex   -7.953869e+001 1.162500e+002 2.734874e+001
    endloop
  endfacet
  facet normal -2.307405e-006 1.000000e+000 5.859020e-008
    outer loop
      vertex   -7.950877e+001 1.162500e+002 2.768948e+001
      vertex   -7.950009e+001 1.162500e+002 2.803143e+001
      vertex   -7.800000e+001 1.162500e+002 2.200000e+001
    endloop
  endfacet
  facet normal 0.000000e+000 1.000000e+000 1.907349e-006
    outer loop
      vertex   -9.200000e+001 1.162500e+002 2.200000e+001
      vertex   -8.122508e+001 1.162500e+002 2.400000e+001
      vertex   -7.800000e+001 1.162500e+002 2.200000e+001
    endloop
  endfacet
  facet normal -0.000000e+000 1.000000e+000 1.907349e-006
    outer loop
      vertex   -9.200000e+001 1.162500e+002 2.200000e+001
      vertex   -8.877492e+001 1.162500e+002 2.400000e+001
      vertex   -8.122508e+001 1.162500e+002 2.400000e+001
    endloop
  endfacet
  facet normal 7.312802e-007 1.000000e+000 7.281290e-007
    outer loop
      vertex   -9.200000e+001 1.162500e+002 2.200000e+001
      vertex   -8.901626e+001 1.162500e+002 2.424239e+001
      vertex   -8.877492e+001 1.162500e+002 2.400000e+001
    endloop
  endfacet
  facet normal 7.699330e-007 1.000000e+000 6.766974e-007
    outer loop
      vertex   -9.200000e+001 1.162500e+002 2.200000e+001
      vertex   -8.924208e+001 1.162500e+002 2.449932e+001
      vertex   -8.901626e+001 1.162500e+002 2.424239e+001
    endloop
  endfacet
  facet normal 8.128494e-007 1.000000e+000 6.293404e-007
    outer loop
      vertex   -9.200000e+001 1.162500e+002 2.200000e+001
      vertex   -8.945148e+001 1.162500e+002 2.476978e+001
      vertex   -8.924208e+001 1.162500e+002 2.449932e+001
    endloop
  endfacet
  facet normal 8.611505e-007 1.000000e+000 5.848979e-007
    outer loop
      vertex   -9.200000e+001 1.162500e+002 2.200000e+001
      vertex   -8.964367e+001 1.162500e+002 2.505274e+001
      vertex   -8.945148e+001 1.162500e+002 2.476978e+001
    endloop
  endfacet
  facet normal 9.162894e-007 1.000000e+000 5.423377e-007
    outer loop
      vertex   -9.200000e+001 1.162500e+002 2.200000e+001
      vertex   -8.981790e+001 1.162500e+002 2.534710e+001
      vertex   -8.964367e+001 1.162500e+002 2.505274e+001
    endloop
  endfacet
  facet normal 9.802103e-007 1.000000e+000 5.006652e-007
    outer loop
      vertex   -9.200000e+001 1.162500e+002 2.200000e+001
      vertex   -8.997349e+001 1.162500e+002 2.565172e+001
      vertex   -8.981790e+001 1.162500e+002 2.534710e+001
    endloop
  endfacet
  facet normal 1.055597e-006 1.000000e+000 4.588295e-007
    outer loop
      vertex   -9.200000e+001 1.162500e+002 2.200000e+001
      vertex   -9.010984e+001 1.162500e+002 2.596542e+001
      vertex   -8.997349e+001 1.162500e+002 2.565172e+001
    endloop
  endfacet
  facet normal 1.146283e-006 1.000000e+000 4.156031e-007
    outer loop
      vertex   -9.200000e+001 1.162500e+002 2.200000e+001
      vertex   -9.022643e+001 1.162500e+002 2.628700e+001
      vertex   -9.010984e+001 1.162500e+002 2.596542e+001
    endloop
  endfacet
  facet normal 1.257958e-006 1.000000e+000 3.694023e-007
    outer loop
      vertex   -9.200000e+001 1.162500e+002 2.200000e+001
      vertex   -9.032281e+001 1.162500e+002 2.661519e+001
      vertex   -9.022643e+001 1.162500e+002 2.628700e+001
    endloop
  endfacet
  facet normal 1.399464e-006 1.000000e+000 3.179783e-007
    outer loop
      vertex   -9.200000e+001 1.162500e+002 2.200000e+001
      vertex   -9.039860e+001 1.162500e+002 2.694875e+001
      vertex   -9.032281e+001 1.162500e+002 2.661519e+001
    endloop
  endfacet
  facet normal 1.585349e-006 1.000000e+000 2.578263e-007
    outer loop
      vertex   -9.200000e+001 1.162500e+002 2.200000e+001
      vertex   -9.045351e+001 1.162500e+002 2.728637e+001
      vertex   -9.039860e+001 1.162500e+002 2.694875e+001
    endloop
  endfacet
  facet normal 1.841379e-006 1.000000e+000 1.829264e-007
    outer loop
      vertex   -9.200000e+001 1.162500e+002 2.200000e+001
      vertex   -9.048732e+001 1.162500e+002 2.762675e+001
      vertex   -9.045351e+001 1.162500e+002 2.728637e+001
    endloop
  endfacet
  facet normal 2.217946e-006 1.000000e+000 8.169102e-008
    outer loop
      vertex   -9.200000e+001 1.162500e+002 2.200000e+001
      vertex   -9.049991e+001 1.162500e+002 2.796857e+001
      vertex   -9.048732e+001 1.162500e+002 2.762675e+001
    endloop
  endfacet
  facet normal -6.585175e-006 1.000000e+000 -8.711518e-006
    outer loop
      vertex   -8.122508e+001 1.162500e+002 2.400000e+001
      vertex   -8.097659e+001 1.162500e+002 2.425005e+001
      vertex   -7.800000e+001 1.162500e+002 2.200000e+001
    endloop
  endfacet
  facet normal 0.000000e+000 1.000000e+000 -0.000000e+000
    outer loop
      vertex   -7.800000e+001 1.162500e+002 2.200000e+001
      vertex   -8.097659e+001 1.162500e+002 2.425005e+001
      vertex   -8.074462e+001 1.162500e+002 2.451550e+001
    endloop
  endfacet
  facet normal 0.000000e+000 1.000000e+000 0.000000e+000
    outer loop
      vertex   -8.053013e+001 1.162500e+002 2.479527e+001
      vertex   -7.800000e+001 1.162500e+002 2.200000e+001
      vertex   -8.074462e+001 1.162500e+002 2.451550e+001
    endloop
  endfacet
  facet normal -0.000000e+000 1.000000e+000 0.000000e+000
    outer loop
      vertex   -8.053013e+001 1.162500e+002 2.479527e+001
      vertex   -8.033401e+001 1.162500e+002 2.508821e+001
      vertex   -7.800000e+001 1.162500e+002 2.200000e+001
    endloop
  endfacet
  facet normal 0.000000e+000 1.000000e+000 -0.000000e+000
    outer loop
      vertex   -7.800000e+001 1.162500e+002 2.200000e+001
      vertex   -8.033401e+001 1.162500e+002 2.508821e+001
      vertex   -8.015706e+001 1.162500e+002 2.539310e+001
    endloop
  endfacet
  facet normal 1.066469e-005 1.000000e+000 6.779731e-006
    outer loop
      vertex   -8.000000e+001 1.162500e+002 2.570871e+001
      vertex   -7.800000e+001 1.162500e+002 2.200000e+001
      vertex   -8.015706e+001 1.162500e+002 2.539310e+001
    endloop
  endfacet
  facet normal -1.070974e-006 1.000000e+000 4.510325e-007
    outer loop
      vertex   -8.000000e+001 1.162500e+002 2.570871e+001
      vertex   -7.986724e+001 1.162500e+002 2.602395e+001
      vertex   -7.800000e+001 1.162500e+002 2.200000e+001
    endloop
  endfacet
  facet normal -1.165019e-006 1.000000e+000 4.073928e-007
    outer loop
      vertex   -7.800000e+001 1.162500e+002 2.200000e+001
      vertex   -7.986724e+001 1.162500e+002 2.602395e+001
      vertex   -7.975433e+001 1.162500e+002 2.634684e+001
    endloop
  endfacet
  facet normal -1.281387e-006 1.000000e+000 3.604278e-007
    outer loop
      vertex   -7.966171e+001 1.162500e+002 2.667611e+001
      vertex   -7.800000e+001 1.162500e+002 2.200000e+001
      vertex   -7.975433e+001 1.162500e+002 2.634684e+001
    endloop
  endfacet
  facet normal -1.429724e-006 1.000000e+000 3.077146e-007
    outer loop
      vertex   -7.966171e+001 1.162500e+002 2.667611e+001
      vertex   -7.958974e+001 1.162500e+002 2.701051e+001
      vertex   -7.800000e+001 1.162500e+002 2.200000e+001
    endloop
  endfacet
  facet normal -1.626090e-006 1.000000e+000 2.454115e-007
    outer loop
      vertex   -7.800000e+001 1.162500e+002 2.200000e+001
      vertex   -7.958974e+001 1.162500e+002 2.701051e+001
      vertex   -7.953869e+001 1.162500e+002 2.734874e+001
    endloop
  endfacet
  facet normal 0.000000e+000 -1.000000e+000 0.000000e+000
    outer loop
      vertex   -8.901792e+001 1.037500e+002 3.175584e+001
      vertex   -8.877492e+001 1.037500e+002 3.200000e+001
      vertex   -9.200000e+001 1.037500e+002 3.400000e+001
    endloop
  endfacet
  facet normal -0.000000e+000 -1.000000e+000 -0.000000e+000
    outer loop
      vertex   -8.924515e+001 1.037500e+002 3.149695e+001
      vertex   -9.200000e+001 1.037500e+002 3.400000e+001
      vertex   -8.945574e+001 1.037500e+002 3.122434e+001
    endloop
  endfacet
  facet normal 0.000000e+000 -1.000000e+000 0.000000e+000
    outer loop
      vertex   -8.924515e+001 1.037500e+002 3.149695e+001
      vertex   -8.901792e+001 1.037500e+002 3.175584e+001
      vertex   -9.200000e+001 1.037500e+002 3.400000e+001
    endloop
  endfacet
  facet normal -0.000000e+000 -1.000000e+000 0.000000e+000
    outer loop
      vertex   -8.098208e+001 1.037500e+002 3.175584e+001
      vertex   -7.800000e+001 1.037500e+002 3.400000e+001
      vertex   -8.122508e+001 1.037500e+002 3.200000e+001
    endloop
  endfacet
  facet normal 0.000000e+000 -1.000000e+000 0.000000e+000
    outer loop
      vertex   -8.098208e+001 1.037500e+002 3.175584e+001
      vertex   -8.075485e+001 1.037500e+002 3.149695e+001
      vertex   -7.800000e+001 1.037500e+002 3.400000e+001
    endloop
  endfacet
  facet normal 0.000000e+000 -1.000000e+000 -0.000000e+000
    outer loop
      vertex   -7.800000e+001 1.037500e+002 3.400000e+001
      vertex   -8.075485e+001 1.037500e+002 3.149695e+001
      vertex   -8.054426e+001 1.037500e+002 3.122434e+001
    endloop
  endfacet
  facet normal -0.000000e+000 -1.000000e+000 0.000000e+000
    outer loop
      vertex   -8.035116e+001 1.037500e+002 3.093909e+001
      vertex   -7.800000e+001 1.037500e+002 3.400000e+001
      vertex   -8.054426e+001 1.037500e+002 3.122434e+001
    endloop
  endfacet
  facet normal 0.000000e+000 -1.000000e+000 0.000000e+000
    outer loop
      vertex   -8.035116e+001 1.037500e+002 3.093909e+001
      vertex   -8.017628e+001 1.037500e+002 3.064230e+001
      vertex   -7.800000e+001 1.037500e+002 3.400000e+001
    endloop
  endfacet
  facet normal 0.000000e+000 -1.000000e+000 -0.000000e+000
    outer loop
      vertex   -7.800000e+001 1.037500e+002 3.400000e+001
      vertex   -8.017628e+001 1.037500e+002 3.064230e+001
      vertex   -8.002034e+001 1.037500e+002 3.033515e+001
    endloop
  endfacet
  facet normal -0.000000e+000 -1.000000e+000 0.000000e+000
    outer loop
      vertex   -7.988392e+001 1.037500e+002 3.001884e+001
      vertex   -7.800000e+001 1.037500e+002 3.400000e+001
      vertex   -8.002034e+001 1.037500e+002 3.033515e+001
    endloop
  endfacet
  facet normal 0.000000e+000 -1.000000e+000 0.000000e+000
    outer loop
      vertex   -7.988392e+001 1.037500e+002 3.001884e+001
      vertex   -7.976757e+001 1.037500e+002 2.969462e+001
      vertex   -7.800000e+001 1.037500e+002 3.400000e+001
    endloop
  endfacet
  facet normal 0.000000e+000 -1.000000e+000 -0.000000e+000
    outer loop
      vertex   -7.800000e+001 1.037500e+002 3.400000e+001
      vertex   -7.976757e+001 1.037500e+002 2.969462e+001
      vertex   -7.967175e+001 1.037500e+002 2.936374e+001
    endloop
  endfacet
  facet normal -0.000000e+000 -1.000000e+000 0.000000e+000
    outer loop
      vertex   -7.959683e+001 1.037500e+002 2.902751e+001
      vertex   -7.800000e+001 1.037500e+002 3.400000e+001
      vertex   -7.967175e+001 1.037500e+002 2.936374e+001
    endloop
  endfacet
  facet normal 0.000000e+000 -1.000000e+000 0.000000e+000
    outer loop
      vertex   -7.959683e+001 1.037500e+002 2.902751e+001
      vertex   -7.954311e+001 1.037500e+002 2.868726e+001
      vertex   -7.800000e+001 1.037500e+002 3.400000e+001
    endloop
  endfacet
  facet normal 0.000000e+000 -1.000000e+000 -0.000000e+000
    outer loop
      vertex   -7.800000e+001 1.037500e+002 3.400000e+001
      vertex   -7.954311e+001 1.037500e+002 2.868726e+001
      vertex   -7.951079e+001 1.037500e+002 2.834430e+001
    endloop
  endfacet
  facet normal -0.000000e+000 -1.000000e+000 0.000000e+000
    outer loop
      vertex   -7.950000e+001 1.037500e+002 2.800000e+001
      vertex   -7.800000e+001 1.037500e+002 3.400000e+001
      vertex   -7.951079e+001 1.037500e+002 2.834430e+001
    endloop
  endfacet
  facet normal 9.473903e-015 -1.000000e+000 -2.368476e-015
    outer loop
      vertex   -7.950000e+001 1.037500e+002 2.800000e+001
      vertex   -7.800000e+001 1.037500e+002 2.200000e+001
      vertex   -7.800000e+001 1.037500e+002 3.400000e+001
    endloop
  endfacet
  facet normal 1.683764e-014 -1.000000e+000 -5.275405e-016
    outer loop
      vertex   -7.950000e+001 1.037500e+002 2.800000e+001
      vertex   -7.951079e+001 1.037500e+002 2.765570e+001
      vertex   -7.800000e+001 1.037500e+002 2.200000e+001
    endloop
  endfacet
  facet normal 1.390645e-014 -1.000000e+000 -1.310541e-015
    outer loop
      vertex   -7.800000e+001 1.037500e+002 2.200000e+001
      vertex   -7.951079e+001 1.037500e+002 2.765570e+001
      vertex   -7.954311e+001 1.037500e+002 2.731274e+001
    endloop
  endfacet
  facet normal 1.193201e-014 -1.000000e+000 -1.884025e-015
    outer loop
      vertex   -7.959683e+001 1.037500e+002 2.697249e+001
      vertex   -7.800000e+001 1.037500e+002 2.200000e+001
      vertex   -7.954311e+001 1.037500e+002 2.731274e+001
    endloop
  endfacet
  facet normal 1.050773e-014 -1.000000e+000 -2.341408e-015
    outer loop
      vertex   -7.959683e+001 1.037500e+002 2.697249e+001
      vertex   -7.967175e+001 1.037500e+002 2.663626e+001
      vertex   -7.800000e+001 1.037500e+002 2.200000e+001
    endloop
  endfacet
  facet normal 9.428625e-015 -1.000000e+000 -2.730514e-015
    outer loop
      vertex   -7.800000e+001 1.037500e+002 2.200000e+001
      vertex   -7.967175e+001 1.037500e+002 2.663626e+001
      vertex   -7.976757e+001 1.037500e+002 2.630538e+001
    endloop
  endfacet
  facet normal 8.580089e-015 -1.000000e+000 -3.078881e-015
    outer loop
      vertex   -7.988392e+001 1.037500e+002 2.598116e+001
      vertex   -7.800000e+001 1.037500e+002 2.200000e+001
      vertex   -7.976757e+001 1.037500e+002 2.630538e+001
    endloop
  endfacet
  facet normal 7.892998e-015 -1.000000e+000 -3.404019e-015
    outer loop
      vertex   -7.988392e+001 1.037500e+002 2.598116e+001
      vertex   -8.002034e+001 1.037500e+002 2.566485e+001
      vertex   -7.800000e+001 1.037500e+002 2.200000e+001
    endloop
  endfacet
  facet normal 7.323138e-015 -1.000000e+000 -3.718168e-015
    outer loop
      vertex   -7.800000e+001 1.037500e+002 2.200000e+001
      vertex   -8.002034e+001 1.037500e+002 2.566485e+001
      vertex   -8.017628e+001 1.037500e+002 2.535770e+001
    endloop
  endfacet
  facet normal 6.840864e-015 -1.000000e+000 -4.030753e-015
    outer loop
      vertex   -8.035116e+001 1.037500e+002 2.506091e+001
      vertex   -7.800000e+001 1.037500e+002 2.200000e+001
      vertex   -8.017628e+001 1.037500e+002 2.535770e+001
    endloop
  endfacet
  facet normal 6.425500e-015 -1.000000e+000 -4.349803e-015
    outer loop
      vertex   -8.035116e+001 1.037500e+002 2.506091e+001
      vertex   -8.054426e+001 1.037500e+002 2.477566e+001
      vertex   -7.800000e+001 1.037500e+002 2.200000e+001
    endloop
  endfacet
  facet normal 6.062120e-015 -1.000000e+000 -4.682889e-015
    outer loop
      vertex   -7.800000e+001 1.037500e+002 2.200000e+001
      vertex   -8.054426e+001 1.037500e+002 2.477566e+001
      vertex   -8.075485e+001 1.037500e+002 2.450305e+001
    endloop
  endfacet
  facet normal 5.739600e-015 -1.000000e+000 -5.037855e-015
    outer loop
      vertex   -8.098208e+001 1.037500e+002 2.424416e+001
      vertex   -7.800000e+001 1.037500e+002 2.200000e+001
      vertex   -8.075485e+001 1.037500e+002 2.450305e+001
    endloop
  endfacet
  facet normal 5.449376e-015 -1.000000e+000 -5.423510e-015
    outer loop
      vertex   -8.098208e+001 1.037500e+002 2.424416e+001
      vertex   -8.122508e+001 1.037500e+002 2.400000e+001
      vertex   -7.800000e+001 1.037500e+002 2.200000e+001
    endloop
  endfacet
  facet normal 0.000000e+000 -1.000000e+000 -1.421085e-014
    outer loop
      vertex   -7.800000e+001 1.037500e+002 2.200000e+001
      vertex   -8.122508e+001 1.037500e+002 2.400000e+001
      vertex   -9.200000e+001 1.037500e+002 2.200000e+001
    endloop
  endfacet
  facet normal -0.000000e+000 -1.000000e+000 -1.421085e-014
    outer loop
      vertex   -9.200000e+001 1.037500e+002 2.200000e+001
      vertex   -8.122508e+001 1.037500e+002 2.400000e+001
      vertex   -8.877492e+001 1.037500e+002 2.400000e+001
    endloop
  endfacet
  facet normal -5.449376e-015 -1.000000e+000 -5.423510e-015
    outer loop
      vertex   -8.901792e+001 1.037500e+002 2.424416e+001
      vertex   -9.200000e+001 1.037500e+002 2.200000e+001
      vertex   -8.877492e+001 1.037500e+002 2.400000e+001
    endloop
  endfacet
  facet normal -5.739600e-015 -1.000000e+000 -5.037855e-015
    outer loop
      vertex   -8.901792e+001 1.037500e+002 2.424416e+001
      vertex   -8.924515e+001 1.037500e+002 2.450305e+001
      vertex   -9.200000e+001 1.037500e+002 2.200000e+001
    endloop
  endfacet
  facet normal -6.062120e-015 -1.000000e+000 -4.682889e-015
    outer loop
      vertex   -9.200000e+001 1.037500e+002 2.200000e+001
      vertex   -8.924515e+001 1.037500e+002 2.450305e+001
      vertex   -8.945574e+001 1.037500e+002 2.477566e+001
    endloop
  endfacet
  facet normal -6.425500e-015 -1.000000e+000 -4.349803e-015
    outer loop
      vertex   -8.964884e+001 1.037500e+002 2.506091e+001
      vertex   -9.200000e+001 1.037500e+002 2.200000e+001
      vertex   -8.945574e+001 1.037500e+002 2.477566e+001
    endloop
  endfacet
  facet normal -6.840864e-015 -1.000000e+000 -4.030753e-015
    outer loop
      vertex   -8.964884e+001 1.037500e+002 2.506091e+001
      vertex   -8.982372e+001 1.037500e+002 2.535770e+001
      vertex   -9.200000e+001 1.037500e+002 2.200000e+001
    endloop
  endfacet
  facet normal -7.323138e-015 -1.000000e+000 -3.718168e-015
    outer loop
      vertex   -9.200000e+001 1.037500e+002 2.200000e+001
      vertex   -8.982372e+001 1.037500e+002 2.535770e+001
      vertex   -8.997966e+001 1.037500e+002 2.566485e+001
    endloop
  endfacet
  facet normal -7.892998e-015 -1.000000e+000 -3.404019e-015
    outer loop
      vertex   -9.011608e+001 1.037500e+002 2.598116e+001
      vertex   -9.200000e+001 1.037500e+002 2.200000e+001
      vertex   -8.997966e+001 1.037500e+002 2.566485e+001
    endloop
  endfacet
  facet normal -8.580089e-015 -1.000000e+000 -3.078881e-015
    outer loop
      vertex   -9.011608e+001 1.037500e+002 2.598116e+001
      vertex   -9.023243e+001 1.037500e+002 2.630538e+001
      vertex   -9.200000e+001 1.037500e+002 2.200000e+001
    endloop
  endfacet
  facet normal -9.428625e-015 -1.000000e+000 -2.730514e-015
    outer loop
      vertex   -9.200000e+001 1.037500e+002 2.200000e+001
      vertex   -9.023243e+001 1.037500e+002 2.630538e+001
      vertex   -9.032825e+001 1.037500e+002 2.663626e+001
    endloop
  endfacet
  facet normal -1.050773e-014 -1.000000e+000 -2.341408e-015
    outer loop
      vertex   -9.040317e+001 1.037500e+002 2.697249e+001
      vertex   -9.200000e+001 1.037500e+002 2.200000e+001
      vertex   -9.032825e+001 1.037500e+002 2.663626e+001
    endloop
  endfacet
  facet normal -1.193201e-014 -1.000000e+000 -1.884025e-015
    outer loop
      vertex   -9.040317e+001 1.037500e+002 2.697249e+001
      vertex   -9.045689e+001 1.037500e+002 2.731274e+001
      vertex   -9.200000e+001 1.037500e+002 2.200000e+001
    endloop
  endfacet
  facet normal -1.390645e-014 -1.000000e+000 -1.310541e-015
    outer loop
      vertex   -9.200000e+001 1.037500e+002 2.200000e+001
      vertex   -9.045689e+001 1.037500e+002 2.731274e+001
      vertex   -9.048921e+001 1.037500e+002 2.765570e+001
    endloop
  endfacet
  facet normal -1.683764e-014 -1.000000e+000 -5.275405e-016
    outer loop
      vertex   -9.050000e+001 1.037500e+002 2.800000e+001
      vertex   -9.200000e+001 1.037500e+002 2.200000e+001
      vertex   -9.048921e+001 1.037500e+002 2.765570e+001
    endloop
  endfacet
  facet normal -9.473903e-015 -1.000000e+000 -2.368476e-015
    outer loop
      vertex   -9.050000e+001 1.037500e+002 2.800000e+001
      vertex   -9.200000e+001 1.037500e+002 3.400000e+001
      vertex   -9.200000e+001 1.037500e+002 2.200000e+001
    endloop
  endfacet
  facet normal 0.000000e+000 -1.000000e+000 0.000000e+000
    outer loop
      vertex   -9.050000e+001 1.037500e+002 2.800000e+001
      vertex   -9.048921e+001 1.037500e+002 2.834430e+001
      vertex   -9.200000e+001 1.037500e+002 3.400000e+001
    endloop
  endfacet
  facet normal 0.000000e+000 -1.000000e+000 0.000000e+000
    outer loop
      vertex   -9.200000e+001 1.037500e+002 3.400000e+001
      vertex   -9.048921e+001 1.037500e+002 2.834430e+001
      vertex   -9.045689e+001 1.037500e+002 2.868726e+001
    endloop
  endfacet
  facet normal -0.000000e+000 -1.000000e+000 -0.000000e+000
    outer loop
      vertex   -9.040317e+001 1.037500e+002 2.902751e+001
      vertex   -9.200000e+001 1.037500e+002 3.400000e+001
      vertex   -9.045689e+001 1.037500e+002 2.868726e+001
    endloop
  endfacet
  facet normal 0.000000e+000 -1.000000e+000 0.000000e+000
    outer loop
      vertex   -9.040317e+001 1.037500e+002 2.902751e+001
      vertex   -9.032825e+001 1.037500e+002 2.936374e+001
      vertex   -9.200000e+001 1.037500e+002 3.400000e+001
    endloop
  endfacet
  facet normal 0.000000e+000 -1.000000e+000 0.000000e+000
    outer loop
      vertex   -9.200000e+001 1.037500e+002 3.400000e+001
      vertex   -9.032825e+001 1.037500e+002 2.936374e+001
      vertex   -9.023243e+001 1.037500e+002 2.969462e+001
    endloop
  endfacet
  facet normal -0.000000e+000 -1.000000e+000 -0.000000e+000
    outer loop
      vertex   -9.011608e+001 1.037500e+002 3.001884e+001
      vertex   -9.200000e+001 1.037500e+002 3.400000e+001
      vertex   -9.023243e+001 1.037500e+002 2.969462e+001
    endloop
  endfacet
  facet normal 0.000000e+000 -1.000000e+000 0.000000e+000
    outer loop
      vertex   -9.011608e+001 1.037500e+002 3.001884e+001
      vertex   -8.997966e+001 1.037500e+002 3.033515e+001
      vertex   -9.200000e+001 1.037500e+002 3.400000e+001
    endloop
  endfacet
  facet normal 0.000000e+000 -1.000000e+000 0.000000e+000
    outer loop
      vertex   -9.200000e+001 1.037500e+002 3.400000e+001
      vertex   -8.997966e+001 1.037500e+002 3.033515e+001
      vertex   -8.982372e+001 1.037500e+002 3.064230e+001
    endloop
  endfacet
  facet normal -0.000000e+000 -1.000000e+000 -0.000000e+000
    outer loop
      vertex   -8.964884e+001 1.037500e+002 3.093909e+001
      vertex   -9.200000e+001 1.037500e+002 3.400000e+001
      vertex   -8.982372e+001 1.037500e+002 3.064230e+001
    endloop
  endfacet
  facet normal 0.000000e+000 -1.000000e+000 0.000000e+000
    outer loop
      vertex   -8.964884e+001 1.037500e+002 3.093909e+001
      vertex   -8.945574e+001 1.037500e+002 3.122434e+001
      vertex   -9.200000e+001 1.037500e+002 3.400000e+001
    endloop
  endfacet
  facet normal -0.000000e+000 -1.000000e+000 -0.000000e+000
    outer loop
      vertex   -7.800000e+001 1.037500e+002 3.400000e+001
      vertex   -9.200000e+001 1.037500e+002 3.400000e+001
      vertex   -8.122508e+001 1.037500e+002 3.200000e+001
    endloop
  endfacet
  facet normal -0.000000e+000 -1.000000e+000 -0.000000e+000
    outer loop
      vertex   -8.122508e+001 1.037500e+002 3.200000e+001
      vertex   -9.200000e+001 1.037500e+002 3.400000e+001
      vertex   -8.877492e+001 1.037500e+002 3.200000e+001
    endloop
  endfacet
  facet normal 0.000000e+000 1.421085e-015 -1.000000e+000
    outer loop
      vertex   -8.877492e+001 1.037500e+002 3.200000e+001
      vertex   -8.877492e+001 1.162500e+002 3.200000e+001
      vertex   -8.122508e+001 1.037500e+002 3.200000e+001
    endloop
  endfacet
  facet normal 0.000000e+000 1.421085e-015 -1.000000e+000
    outer loop
      vertex   -8.122508e+001 1.037500e+002 3.200000e+001
      vertex   -8.877492e+001 1.162500e+002 3.200000e+001
      vertex   -8.122508e+001 1.162500e+002 3.200000e+001
    endloop
  endfacet
  facet normal 0.000000e+000 1.421085e-015 1.000000e+000
    outer loop
      vertex   -8.877492e+001 1.162500e+002 2.400000e+001
      vertex   -8.877492e+001 1.037500e+002 2.400000e+001
      vertex   -8.122508e+001 1.162500e+002 2.400000e+001
    endloop
  endfacet
  facet normal -0.000000e+000 1.421085e-015 1.000000e+000
    outer loop
      vertex   -8.122508e+001 1.162500e+002 2.400000e+001
      vertex   -8.877492e+001 1.037500e+002 2.400000e+001
      vertex   -8.122508e+001 1.037500e+002 2.400000e+001
    endloop
  endfacet
  facet normal -1.000000e+000 -0.000000e+000 -0.000000e+000
    outer loop
      vertex   -9.200000e+001 1.162500e+002 3.400000e+001
      vertex   -9.200000e+001 1.162500e+002 2.200000e+001
      vertex   -9.200000e+001 1.037500e+002 3.400000e+001
    endloop
  endfacet
  facet normal -1.000000e+000 0.000000e+000 -0.000000e+000
    outer loop
      vertex   -9.200000e+001 1.037500e+002 3.400000e+001
      vertex   -9.200000e+001 1.162500e+002 2.200000e+001
      vertex   -9.200000e+001 1.037500e+002 2.200000e+001
    endloop
  endfacet
  facet normal 0.000000e+000 8.526510e-016 -1.000000e+000
    outer loop
      vertex   -7.800000e+001 1.162500e+002 2.200000e+001
      vertex   -7.800000e+001 1.037500e+002 2.200000e+001
      vertex   -9.200000e+001 1.162500e+002 2.200000e+001
    endloop
  endfacet
  facet normal 0.000000e+000 8.526510e-016 -1.000000e+000
    outer loop
      vertex   -9.200000e+001 1.162500e+002 2.200000e+001
      vertex   -7.800000e+001 1.037500e+002 2.200000e+001
      vertex   -9.200000e+001 1.037500e+002 2.200000e+001
    endloop
  endfacet
endsolid
