solid ascii
  facet normal -0.000000e+000 0.000000e+000 1.000000e+000
    outer loop
      vertex   -9.000000e+001 1.095235e+002 -1.800000e+001
      vertex   -9.000000e+001 7.500000e+001 -1.800000e+001
      vertex   -8.700000e+001 1.095235e+002 -1.800000e+001
    endloop
  endfacet
  facet normal 0.000000e+000 0.000000e+000 1.000000e+000
    outer loop
      vertex   -8.700000e+001 1.095235e+002 -1.800000e+001
      vertex   -9.000000e+001 7.500000e+001 -1.800000e+001
      vertex   -8.700000e+001 7.200000e+001 -1.800000e+001
    endloop
  endfacet
  facet normal 0.000000e+000 0.000000e+000 1.000000e+000
    outer loop
      vertex   -8.700000e+001 7.200000e+001 -1.800000e+001
      vertex   -9.000000e+001 7.500000e+001 -1.800000e+001
      vertex   -1.250000e+002 7.200000e+001 -1.800000e+001
    endloop
  endfacet
  facet normal 0.000000e+000 -0.000000e+000 1.000000e+000
    outer loop
      vertex   -1.250000e+002 7.200000e+001 -1.800000e+001
      vertex   -9.000000e+001 7.500000e+001 -1.800000e+001
      vertex   -1.250000e+002 7.500000e+001 -1.800000e+001
    endloop
  endfacet
  facet normal -0.000000e+000 0.000000e+000 1.000000e+000
    outer loop
      vertex   -1.600000e+002 7.500000e+001 -1.800000e+001
      vertex   -1.250000e+002 7.200000e+001 -1.800000e+001
      vertex   -1.250000e+002 7.500000e+001 -1.800000e+001
    endloop
  endfacet
  facet normal -0.000000e+000 0.000000e+000 1.000000e+000
    outer loop
      vertex   -1.600000e+002 7.500000e+001 -1.800000e+001
      vertex   -1.630000e+002 7.200000e+001 -1.800000e+001
      vertex   -1.250000e+002 7.200000e+001 -1.800000e+001
    endloop
  endfacet
  facet normal 0.000000e+000 0.000000e+000 1.000000e+000
    outer loop
      vertex   -1.600000e+002 7.500000e+001 -1.800000e+001
      vertex   -1.630000e+002 1.095235e+002 -1.800000e+001
      vertex   -1.630000e+002 7.200000e+001 -1.800000e+001
    endloop
  endfacet
  facet normal 0.000000e+000 -0.000000e+000 1.000000e+000
    outer loop
      vertex   -1.600000e+002 7.500000e+001 -1.800000e+001
      vertex   -1.600000e+002 1.095235e+002 -1.800000e+001
      vertex   -1.630000e+002 1.095235e+002 -1.800000e+001
    endloop
  endfacet
  facet normal -1.000000e+000 -0.000000e+000 -0.000000e+000
    outer loop
      vertex   -1.630000e+002 1.095235e+002 -1.800000e+001
      vertex   -1.630000e+002 1.095235e+002 -2.800000e+001
      vertex   -1.630000e+002 7.200000e+001 -1.800000e+001
    endloop
  endfacet
  facet normal -1.000000e+000 -0.000000e+000 -0.000000e+000
    outer loop
      vertex   -1.630000e+002 7.200000e+001 -1.800000e+001
      vertex   -1.630000e+002 1.095235e+002 -2.800000e+001
      vertex   -1.630000e+002 7.200000e+001 -2.800000e+001
    endloop
  endfacet
  facet normal 0.000000e+000 1.000000e+000 0.000000e+000
    outer loop
      vertex   -1.600000e+002 1.095235e+002 -1.800000e+001
      vertex   -1.600000e+002 1.095235e+002 -2.800000e+001
      vertex   -1.630000e+002 1.095235e+002 -1.800000e+001
    endloop
  endfacet
  facet normal 0.000000e+000 1.000000e+000 0.000000e+000
    outer loop
      vertex   -1.630000e+002 1.095235e+002 -1.800000e+001
      vertex   -1.600000e+002 1.095235e+002 -2.800000e+001
      vertex   -1.630000e+002 1.095235e+002 -2.800000e+001
    endloop
  endfacet
  facet normal 1.000000e+000 0.000000e+000 0.000000e+000
    outer loop
      vertex   -1.600000e+002 1.095235e+002 -1.800000e+001
      vertex   -1.600000e+002 7.500000e+001 -1.800000e+001
      vertex   -1.600000e+002 1.095235e+002 -2.800000e+001
    endloop
  endfacet
  facet normal 1.000000e+000 0.000000e+000 0.000000e+000
    outer loop
      vertex   -1.600000e+002 1.095235e+002 -2.800000e+001
      vertex   -1.600000e+002 7.500000e+001 -1.800000e+001
      vertex   -1.600000e+002 7.500000e+001 -2.800000e+001
    endloop
  endfacet
  facet normal -0.000000e+000 1.000000e+000 0.000000e+000
    outer loop
      vertex   -1.600000e+002 7.500000e+001 -1.800000e+001
      vertex   -1.250000e+002 7.500000e+001 -1.800000e+001
      vertex   -1.600000e+002 7.500000e+001 -2.800000e+001
    endloop
  endfacet
  facet normal -0.000000e+000 1.000000e+000 0.000000e+000
    outer loop
      vertex   -1.600000e+002 7.500000e+001 -2.800000e+001
      vertex   -1.250000e+002 7.500000e+001 -1.800000e+001
      vertex   -1.250000e+002 7.500000e+001 -2.800000e+001
    endloop
  endfacet
  facet normal 0.000000e+000 1.000000e+000 0.000000e+000
    outer loop
      vertex   -1.250000e+002 7.500000e+001 -2.800000e+001
      vertex   -1.250000e+002 7.500000e+001 -1.800000e+001
      vertex   -9.000000e+001 7.500000e+001 -1.800000e+001
    endloop
  endfacet
  facet normal 0.000000e+000 1.000000e+000 -0.000000e+000
    outer loop
      vertex   -9.000000e+001 7.500000e+001 -2.800000e+001
      vertex   -1.250000e+002 7.500000e+001 -2.800000e+001
      vertex   -9.000000e+001 7.500000e+001 -1.800000e+001
    endloop
  endfacet
  facet normal -0.000000e+000 -1.000000e+000 0.000000e+000
    outer loop
      vertex   -8.700000e+001 7.200000e+001 -2.800000e+001
      vertex   -8.700000e+001 7.200000e+001 -1.800000e+001
      vertex   -1.250000e+002 7.200000e+001 -2.800000e+001
    endloop
  endfacet
  facet normal 0.000000e+000 -1.000000e+000 0.000000e+000
    outer loop
      vertex   -1.250000e+002 7.200000e+001 -2.800000e+001
      vertex   -8.700000e+001 7.200000e+001 -1.800000e+001
      vertex   -1.250000e+002 7.200000e+001 -1.800000e+001
    endloop
  endfacet
  facet normal 0.000000e+000 -1.000000e+000 0.000000e+000
    outer loop
      vertex   -1.630000e+002 7.200000e+001 -2.800000e+001
      vertex   -1.250000e+002 7.200000e+001 -1.800000e+001
      vertex   -1.630000e+002 7.200000e+001 -1.800000e+001
    endloop
  endfacet
  facet normal 0.000000e+000 -1.000000e+000 0.000000e+000
    outer loop
      vertex   -1.630000e+002 7.200000e+001 -2.800000e+001
      vertex   -1.250000e+002 7.200000e+001 -2.800000e+001
      vertex   -1.250000e+002 7.200000e+001 -1.800000e+001
    endloop
  endfacet
  facet normal -1.000000e+000 0.000000e+000 -0.000000e+000
    outer loop
      vertex   -9.000000e+001 7.500000e+001 -1.800000e+001
      vertex   -9.000000e+001 1.095235e+002 -1.800000e+001
      vertex   -9.000000e+001 7.500000e+001 -2.800000e+001
    endloop
  endfacet
  facet normal -1.000000e+000 0.000000e+000 0.000000e+000
    outer loop
      vertex   -9.000000e+001 7.500000e+001 -2.800000e+001
      vertex   -9.000000e+001 1.095235e+002 -1.800000e+001
      vertex   -9.000000e+001 1.095235e+002 -2.800000e+001
    endloop
  endfacet
  facet normal 1.000000e+000 -0.000000e+000 0.000000e+000
    outer loop
      vertex   -8.700000e+001 7.200000e+001 -1.800000e+001
      vertex   -8.700000e+001 7.200000e+001 -2.800000e+001
      vertex   -8.700000e+001 1.095235e+002 -1.800000e+001
    endloop
  endfacet
  facet normal 1.000000e+000 -0.000000e+000 0.000000e+000
    outer loop
      vertex   -8.700000e+001 1.095235e+002 -1.800000e+001
      vertex   -8.700000e+001 7.200000e+001 -2.800000e+001
      vertex   -8.700000e+001 1.095235e+002 -2.800000e+001
    endloop
  endfacet
  facet normal -0.000000e+000 -0.000000e+000 -1.000000e+000
    outer loop
      vertex   -1.600000e+002 1.095235e+002 -2.800000e+001
      vertex   -1.600000e+002 7.500000e+001 -2.800000e+001
      vertex   -1.630000e+002 1.095235e+002 -2.800000e+001
    endloop
  endfacet
  facet normal 0.000000e+000 -0.000000e+000 -1.000000e+000
    outer loop
      vertex   -1.630000e+002 1.095235e+002 -2.800000e+001
      vertex   -1.600000e+002 7.500000e+001 -2.800000e+001
      vertex   -1.630000e+002 7.200000e+001 -2.800000e+001
    endloop
  endfacet
  facet normal 0.000000e+000 0.000000e+000 -1.000000e+000
    outer loop
      vertex   -1.630000e+002 7.200000e+001 -2.800000e+001
      vertex   -1.600000e+002 7.500000e+001 -2.800000e+001
      vertex   -1.250000e+002 7.200000e+001 -2.800000e+001
    endloop
  endfacet
  facet normal 0.000000e+000 0.000000e+000 -1.000000e+000
    outer loop
      vertex   -1.250000e+002 7.200000e+001 -2.800000e+001
      vertex   -1.600000e+002 7.500000e+001 -2.800000e+001
      vertex   -1.250000e+002 7.500000e+001 -2.800000e+001
    endloop
  endfacet
  facet normal -0.000000e+000 0.000000e+000 -1.000000e+000
    outer loop
      vertex   -9.000000e+001 7.500000e+001 -2.800000e+001
      vertex   -1.250000e+002 7.200000e+001 -2.800000e+001
      vertex   -1.250000e+002 7.500000e+001 -2.800000e+001
    endloop
  endfacet
  facet normal -0.000000e+000 -0.000000e+000 -1.000000e+000
    outer loop
      vertex   -9.000000e+001 7.500000e+001 -2.800000e+001
      vertex   -8.700000e+001 7.200000e+001 -2.800000e+001
      vertex   -1.250000e+002 7.200000e+001 -2.800000e+001
    endloop
  endfacet
  facet normal 0.000000e+000 0.000000e+000 -1.000000e+000
    outer loop
      vertex   -9.000000e+001 7.500000e+001 -2.800000e+001
      vertex   -8.700000e+001 1.095235e+002 -2.800000e+001
      vertex   -8.700000e+001 7.200000e+001 -2.800000e+001
    endloop
  endfacet
  facet normal 0.000000e+000 0.000000e+000 -1.000000e+000
    outer loop
      vertex   -9.000000e+001 7.500000e+001 -2.800000e+001
      vertex   -9.000000e+001 1.095235e+002 -2.800000e+001
      vertex   -8.700000e+001 1.095235e+002 -2.800000e+001
    endloop
  endfacet
  facet normal 0.000000e+000 1.000000e+000 0.000000e+000
    outer loop
      vertex   -8.700000e+001 1.095235e+002 -1.800000e+001
      vertex   -8.700000e+001 1.095235e+002 -2.800000e+001
      vertex   -9.000000e+001 1.095235e+002 -1.800000e+001
    endloop
  endfacet
  facet normal 0.000000e+000 1.000000e+000 0.000000e+000
    outer loop
      vertex   -9.000000e+001 1.095235e+002 -1.800000e+001
      vertex   -8.700000e+001 1.095235e+002 -2.800000e+001
      vertex   -9.000000e+001 1.095235e+002 -2.800000e+001
    endloop
  endfacet
endsolid
