solid ascii
  facet normal 1.869849e-016 -1.000000e+000 1.040891e-016
    outer loop
      vertex   -1.250000e+002 -2.800000e+001 -1.800000e+001
      vertex   -1.310000e+002 -2.800000e+001 -7.221644e+000
      vertex   -1.630000e+002 -2.800000e+001 -1.800000e+001
    endloop
  endfacet
  facet normal 0.000000e+000 -1.000000e+000 0.000000e+000
    outer loop
      vertex   -1.250000e+002 -2.800000e+001 -1.800000e+001
      vertex   -1.190000e+002 -2.800000e+001 -7.221644e+000
      vertex   -1.310000e+002 -2.800000e+001 -7.221644e+000
    endloop
  endfacet
  facet normal -1.869849e-016 -1.000000e+000 1.040891e-016
    outer loop
      vertex   -1.250000e+002 -2.800000e+001 -1.800000e+001
      vertex   -8.700000e+001 -2.800000e+001 -1.800000e+001
      vertex   -1.190000e+002 -2.800000e+001 -7.221644e+000
    endloop
  endfacet
  facet normal -4.838663e-017 -1.000000e+000 5.155754e-016
    outer loop
      vertex   -1.190000e+002 -2.800000e+001 -7.221644e+000
      vertex   -8.700000e+001 -2.800000e+001 -1.800000e+001
      vertex   -9.000000e+001 -2.800000e+001 -4.500000e+000
    endloop
  endfacet
  facet normal 0.000000e+000 -1.000000e+000 0.000000e+000
    outer loop
      vertex   -1.190000e+002 -2.800000e+001 2.999565e+000
      vertex   -9.000000e+001 -2.800000e+001 -4.500000e+000
      vertex   -9.000000e+001 -2.800000e+001 2.999565e+000
    endloop
  endfacet
  facet normal 0.000000e+000 -1.000000e+000 0.000000e+000
    outer loop
      vertex   -1.190000e+002 -2.800000e+001 2.999565e+000
      vertex   -1.190000e+002 -2.800000e+001 -7.221644e+000
      vertex   -9.000000e+001 -2.800000e+001 -4.500000e+000
    endloop
  endfacet
  facet normal 0.000000e+000 -1.000000e+000 5.263280e-016
    outer loop
      vertex   -8.700000e+001 -2.800000e+001 -1.800000e+001
      vertex   -8.700000e+001 -2.800000e+001 -4.500000e+000
      vertex   -9.000000e+001 -2.800000e+001 -4.500000e+000
    endloop
  endfacet
  facet normal 4.838663e-017 -1.000000e+000 5.155754e-016
    outer loop
      vertex   -1.630000e+002 -2.800000e+001 -1.800000e+001
      vertex   -1.310000e+002 -2.800000e+001 -7.221644e+000
      vertex   -1.600000e+002 -2.800000e+001 -4.500000e+000
    endloop
  endfacet
  facet normal 0.000000e+000 -1.000000e+000 5.263280e-016
    outer loop
      vertex   -1.630000e+002 -2.800000e+001 -4.500000e+000
      vertex   -1.630000e+002 -2.800000e+001 -1.800000e+001
      vertex   -1.600000e+002 -2.800000e+001 -4.500000e+000
    endloop
  endfacet
  facet normal 0.000000e+000 -1.000000e+000 0.000000e+000
    outer loop
      vertex   -1.600000e+002 -2.800000e+001 2.999565e+000
      vertex   -1.600000e+002 -2.800000e+001 -4.500000e+000
      vertex   -1.310000e+002 -2.800000e+001 2.999565e+000
    endloop
  endfacet
  facet normal 0.000000e+000 -1.000000e+000 -0.000000e+000
    outer loop
      vertex   -1.310000e+002 -2.800000e+001 2.999565e+000
      vertex   -1.600000e+002 -2.800000e+001 -4.500000e+000
      vertex   -1.310000e+002 -2.800000e+001 -7.221644e+000
    endloop
  endfacet
  facet normal -1.000000e+000 0.000000e+000 0.000000e+000
    outer loop
      vertex   -9.000000e+001 9.523506e+000 -1.800000e+001
      vertex   -9.000000e+001 -2.500000e+001 -1.800000e+001
      vertex   -9.000000e+001 9.523506e+000 -7.500000e+000
    endloop
  endfacet
  facet normal -1.000000e+000 4.116284e-016 -1.353415e-015
    outer loop
      vertex   -9.000000e+001 9.523506e+000 -7.500000e+000
      vertex   -9.000000e+001 -2.500000e+001 -1.800000e+001
      vertex   -9.000000e+001 -2.500000e+001 -7.500000e+000
    endloop
  endfacet
  facet normal 1.000000e+000 -0.000000e+000 0.000000e+000
    outer loop
      vertex   -1.310000e+002 -2.800000e+001 2.999565e+000
      vertex   -1.310000e+002 -2.800000e+001 -7.221644e+000
      vertex   -1.310000e+002 -2.500000e+001 2.999565e+000
    endloop
  endfacet
  facet normal 1.000000e+000 -0.000000e+000 0.000000e+000
    outer loop
      vertex   -1.310000e+002 -2.500000e+001 2.999565e+000
      vertex   -1.310000e+002 -2.800000e+001 -7.221644e+000
      vertex   -1.310000e+002 -2.500000e+001 -7.221644e+000
    endloop
  endfacet
  facet normal 0.000000e+000 -0.000000e+000 1.000000e+000
    outer loop
      vertex   -1.310000e+002 -2.800000e+001 -7.221644e+000
      vertex   -1.190000e+002 -2.800000e+001 -7.221644e+000
      vertex   -1.310000e+002 -2.500000e+001 -7.221644e+000
    endloop
  endfacet
  facet normal -0.000000e+000 0.000000e+000 1.000000e+000
    outer loop
      vertex   -1.310000e+002 -2.500000e+001 -7.221644e+000
      vertex   -1.190000e+002 -2.800000e+001 -7.221644e+000
      vertex   -1.190000e+002 -2.500000e+001 -7.221644e+000
    endloop
  endfacet
  facet normal -1.000000e+000 0.000000e+000 0.000000e+000
    outer loop
      vertex   -1.190000e+002 -2.800000e+001 -7.221644e+000
      vertex   -1.190000e+002 -2.800000e+001 2.999565e+000
      vertex   -1.190000e+002 -2.500000e+001 -7.221644e+000
    endloop
  endfacet
  facet normal -1.000000e+000 0.000000e+000 0.000000e+000
    outer loop
      vertex   -1.190000e+002 -2.500000e+001 -7.221644e+000
      vertex   -1.190000e+002 -2.800000e+001 2.999565e+000
      vertex   -1.190000e+002 -2.500000e+001 2.999565e+000
    endloop
  endfacet
  facet normal -3.381130e-009 0.000000e+000 1.000000e+000
    outer loop
      vertex   -1.310000e+002 -2.500000e+001 2.999565e+000
      vertex   -1.600000e+002 -2.500000e+001 2.999565e+000
      vertex   -1.310000e+002 -2.800000e+001 2.999565e+000
    endloop
  endfacet
  facet normal -3.381130e-009 0.000000e+000 1.000000e+000
    outer loop
      vertex   -1.310000e+002 -2.800000e+001 2.999565e+000
      vertex   -1.600000e+002 -2.500000e+001 2.999565e+000
      vertex   -1.600000e+002 -2.800000e+001 2.999565e+000
    endloop
  endfacet
  facet normal -0.000000e+000 0.000000e+000 1.000000e+000
    outer loop
      vertex   -9.000000e+001 -2.500000e+001 -4.500000e+000
      vertex   -9.000000e+001 -2.800000e+001 -4.500000e+000
      vertex   -8.700000e+001 -2.500000e+001 -4.500000e+000
    endloop
  endfacet
  facet normal -0.000000e+000 0.000000e+000 1.000000e+000
    outer loop
      vertex   -8.700000e+001 -2.500000e+001 -4.500000e+000
      vertex   -9.000000e+001 -2.800000e+001 -4.500000e+000
      vertex   -8.700000e+001 -2.800000e+001 -4.500000e+000
    endloop
  endfacet
  facet normal 3.381130e-009 0.000000e+000 1.000000e+000
    outer loop
      vertex   -1.190000e+002 -2.800000e+001 2.999565e+000
      vertex   -9.000000e+001 -2.800000e+001 2.999565e+000
      vertex   -1.190000e+002 -2.500000e+001 2.999565e+000
    endloop
  endfacet
  facet normal 3.381130e-009 -0.000000e+000 1.000000e+000
    outer loop
      vertex   -1.190000e+002 -2.500000e+001 2.999565e+000
      vertex   -9.000000e+001 -2.800000e+001 2.999565e+000
      vertex   -9.000000e+001 -2.500000e+001 2.999565e+000
    endloop
  endfacet
  facet normal 1.000000e+000 0.000000e+000 -0.000000e+000
    outer loop
      vertex   -9.000000e+001 -2.500000e+001 -4.500000e+000
      vertex   -9.000000e+001 -2.500000e+001 2.999565e+000
      vertex   -9.000000e+001 -2.800000e+001 -4.500000e+000
    endloop
  endfacet
  facet normal 1.000000e+000 0.000000e+000 -0.000000e+000
    outer loop
      vertex   -9.000000e+001 -2.800000e+001 -4.500000e+000
      vertex   -9.000000e+001 -2.500000e+001 2.999565e+000
      vertex   -9.000000e+001 -2.800000e+001 2.999565e+000
    endloop
  endfacet
  facet normal -1.000000e+000 -0.000000e+000 0.000000e+000
    outer loop
      vertex   -1.600000e+002 -2.500000e+001 2.999565e+000
      vertex   -1.600000e+002 -2.500000e+001 -4.500000e+000
      vertex   -1.600000e+002 -2.800000e+001 2.999565e+000
    endloop
  endfacet
  facet normal -1.000000e+000 -0.000000e+000 -0.000000e+000
    outer loop
      vertex   -1.600000e+002 -2.800000e+001 2.999565e+000
      vertex   -1.600000e+002 -2.500000e+001 -4.500000e+000
      vertex   -1.600000e+002 -2.800000e+001 -4.500000e+000
    endloop
  endfacet
  facet normal -1.012536e-015 1.000000e+000 -3.383537e-015
    outer loop
      vertex   -9.000000e+001 -2.500000e+001 -7.500000e+000
      vertex   -9.000000e+001 -2.500000e+001 -1.800000e+001
      vertex   -1.190000e+002 -2.500000e+001 -7.221644e+000
    endloop
  endfacet
  facet normal 2.450147e-016 1.000000e+000 -0.000000e+000
    outer loop
      vertex   -9.000000e+001 -2.500000e+001 -4.500000e+000
      vertex   -1.190000e+002 -2.500000e+001 -7.221644e+000
      vertex   -1.190000e+002 -2.500000e+001 2.999565e+000
    endloop
  endfacet
  facet normal -3.203436e-024 1.000000e+000 -9.474453e-016
    outer loop
      vertex   -9.000000e+001 -2.500000e+001 2.999565e+000
      vertex   -9.000000e+001 -2.500000e+001 -4.500000e+000
      vertex   -1.190000e+002 -2.500000e+001 2.999565e+000
    endloop
  endfacet
  facet normal -2.030122e-016 1.000000e+000 -1.130110e-016
    outer loop
      vertex   -1.600000e+002 -2.500000e+001 -1.800000e+001
      vertex   -1.310000e+002 -2.500000e+001 -7.221644e+000
      vertex   -1.250000e+002 -2.500000e+001 -1.800000e+001
    endloop
  endfacet
  facet normal 1.012536e-015 1.000000e+000 -3.383537e-015
    outer loop
      vertex   -1.600000e+002 -2.500000e+001 -1.800000e+001
      vertex   -1.600000e+002 -2.500000e+001 -7.500000e+000
      vertex   -1.310000e+002 -2.500000e+001 -7.221644e+000
    endloop
  endfacet
  facet normal 8.663899e-016 1.000000e+000 1.184238e-014
    outer loop
      vertex   -1.310000e+002 -2.500000e+001 -7.221644e+000
      vertex   -1.600000e+002 -2.500000e+001 -7.500000e+000
      vertex   -1.600000e+002 -2.500000e+001 -4.500000e+000
    endloop
  endfacet
  facet normal 3.203436e-024 1.000000e+000 -9.474453e-016
    outer loop
      vertex   -1.310000e+002 -2.500000e+001 2.999565e+000
      vertex   -1.600000e+002 -2.500000e+001 -4.500000e+000
      vertex   -1.600000e+002 -2.500000e+001 2.999565e+000
    endloop
  endfacet
  facet normal -2.450147e-016 1.000000e+000 0.000000e+000
    outer loop
      vertex   -1.310000e+002 -2.500000e+001 2.999565e+000
      vertex   -1.310000e+002 -2.500000e+001 -7.221644e+000
      vertex   -1.600000e+002 -2.500000e+001 -4.500000e+000
    endloop
  endfacet
  facet normal -0.000000e+000 1.000000e+000 0.000000e+000
    outer loop
      vertex   -1.630000e+002 -2.500000e+001 -7.500000e+000
      vertex   -1.630000e+002 -2.500000e+001 -4.500000e+000
      vertex   -1.600000e+002 -2.500000e+001 -7.500000e+000
    endloop
  endfacet
  facet normal 1.184238e-014 1.000000e+000 1.184238e-014
    outer loop
      vertex   -1.600000e+002 -2.500000e+001 -7.500000e+000
      vertex   -1.630000e+002 -2.500000e+001 -4.500000e+000
      vertex   -1.600000e+002 -2.500000e+001 -4.500000e+000
    endloop
  endfacet
  facet normal -0.000000e+000 1.000000e+000 0.000000e+000
    outer loop
      vertex   -1.310000e+002 -2.500000e+001 -7.221644e+000
      vertex   -1.190000e+002 -2.500000e+001 -7.221644e+000
      vertex   -1.250000e+002 -2.500000e+001 -1.800000e+001
    endloop
  endfacet
  facet normal 2.030122e-016 1.000000e+000 -1.130110e-016
    outer loop
      vertex   -1.250000e+002 -2.500000e+001 -1.800000e+001
      vertex   -1.190000e+002 -2.500000e+001 -7.221644e+000
      vertex   -9.000000e+001 -2.500000e+001 -1.800000e+001
    endloop
  endfacet
  facet normal -8.663899e-016 1.000000e+000 1.184238e-014
    outer loop
      vertex   -9.000000e+001 -2.500000e+001 -7.500000e+000
      vertex   -1.190000e+002 -2.500000e+001 -7.221644e+000
      vertex   -9.000000e+001 -2.500000e+001 -4.500000e+000
    endloop
  endfacet
  facet normal -1.184238e-014 1.000000e+000 1.184238e-014
    outer loop
      vertex   -8.700000e+001 -2.500000e+001 -4.500000e+000
      vertex   -9.000000e+001 -2.500000e+001 -7.500000e+000
      vertex   -9.000000e+001 -2.500000e+001 -4.500000e+000
    endloop
  endfacet
  facet normal 0.000000e+000 1.000000e+000 0.000000e+000
    outer loop
      vertex   -8.700000e+001 -2.500000e+001 -4.500000e+000
      vertex   -8.700000e+001 -2.500000e+001 -7.500000e+000
      vertex   -9.000000e+001 -2.500000e+001 -7.500000e+000
    endloop
  endfacet
  facet normal -1.000000e+000 -0.000000e+000 -0.000000e+000
    outer loop
      vertex   -1.630000e+002 9.523506e+000 -7.500000e+000
      vertex   -1.630000e+002 9.523506e+000 -1.800000e+001
      vertex   -1.630000e+002 -2.500000e+001 -7.500000e+000
    endloop
  endfacet
  facet normal -1.000000e+000 -0.000000e+000 -0.000000e+000
    outer loop
      vertex   -1.630000e+002 -2.500000e+001 -7.500000e+000
      vertex   -1.630000e+002 9.523506e+000 -1.800000e+001
      vertex   -1.630000e+002 -2.800000e+001 -1.800000e+001
    endloop
  endfacet
  facet normal -1.000000e+000 0.000000e+000 -0.000000e+000
    outer loop
      vertex   -1.630000e+002 -2.800000e+001 -4.500000e+000
      vertex   -1.630000e+002 -2.500000e+001 -7.500000e+000
      vertex   -1.630000e+002 -2.800000e+001 -1.800000e+001
    endloop
  endfacet
  facet normal -1.000000e+000 0.000000e+000 0.000000e+000
    outer loop
      vertex   -1.630000e+002 -2.800000e+001 -4.500000e+000
      vertex   -1.630000e+002 -2.500000e+001 -4.500000e+000
      vertex   -1.630000e+002 -2.500000e+001 -7.500000e+000
    endloop
  endfacet
  facet normal -0.000000e+000 0.000000e+000 1.000000e+000
    outer loop
      vertex   -1.630000e+002 -2.500000e+001 -4.500000e+000
      vertex   -1.630000e+002 -2.800000e+001 -4.500000e+000
      vertex   -1.600000e+002 -2.500000e+001 -4.500000e+000
    endloop
  endfacet
  facet normal -0.000000e+000 0.000000e+000 1.000000e+000
    outer loop
      vertex   -1.600000e+002 -2.500000e+001 -4.500000e+000
      vertex   -1.630000e+002 -2.800000e+001 -4.500000e+000
      vertex   -1.600000e+002 -2.800000e+001 -4.500000e+000
    endloop
  endfacet
  facet normal -0.000000e+000 0.000000e+000 1.000000e+000
    outer loop
      vertex   -1.630000e+002 9.523506e+000 -7.500000e+000
      vertex   -1.630000e+002 -2.500000e+001 -7.500000e+000
      vertex   -1.600000e+002 9.523506e+000 -7.500000e+000
    endloop
  endfacet
  facet normal -0.000000e+000 0.000000e+000 1.000000e+000
    outer loop
      vertex   -1.600000e+002 9.523506e+000 -7.500000e+000
      vertex   -1.630000e+002 -2.500000e+001 -7.500000e+000
      vertex   -1.600000e+002 -2.500000e+001 -7.500000e+000
    endloop
  endfacet
  facet normal -0.000000e+000 0.000000e+000 1.000000e+000
    outer loop
      vertex   -9.000000e+001 9.523506e+000 -7.500000e+000
      vertex   -9.000000e+001 -2.500000e+001 -7.500000e+000
      vertex   -8.700000e+001 9.523506e+000 -7.500000e+000
    endloop
  endfacet
  facet normal -0.000000e+000 0.000000e+000 1.000000e+000
    outer loop
      vertex   -8.700000e+001 9.523506e+000 -7.500000e+000
      vertex   -9.000000e+001 -2.500000e+001 -7.500000e+000
      vertex   -8.700000e+001 -2.500000e+001 -7.500000e+000
    endloop
  endfacet
  facet normal 1.000000e+000 0.000000e+000 0.000000e+000
    outer loop
      vertex   -8.700000e+001 9.523506e+000 -7.500000e+000
      vertex   -8.700000e+001 -2.500000e+001 -7.500000e+000
      vertex   -8.700000e+001 9.523506e+000 -1.800000e+001
    endloop
  endfacet
  facet normal 1.000000e+000 0.000000e+000 0.000000e+000
    outer loop
      vertex   -8.700000e+001 9.523506e+000 -1.800000e+001
      vertex   -8.700000e+001 -2.500000e+001 -7.500000e+000
      vertex   -8.700000e+001 -2.800000e+001 -1.800000e+001
    endloop
  endfacet
  facet normal 1.000000e+000 0.000000e+000 -0.000000e+000
    outer loop
      vertex   -8.700000e+001 -2.800000e+001 -1.800000e+001
      vertex   -8.700000e+001 -2.500000e+001 -7.500000e+000
      vertex   -8.700000e+001 -2.800000e+001 -4.500000e+000
    endloop
  endfacet
  facet normal 1.000000e+000 -0.000000e+000 0.000000e+000
    outer loop
      vertex   -8.700000e+001 -2.800000e+001 -4.500000e+000
      vertex   -8.700000e+001 -2.500000e+001 -7.500000e+000
      vertex   -8.700000e+001 -2.500000e+001 -4.500000e+000
    endloop
  endfacet
  facet normal -0.000000e+000 -0.000000e+000 -1.000000e+000
    outer loop
      vertex   -1.600000e+002 9.523506e+000 -1.800000e+001
      vertex   -1.600000e+002 -2.500000e+001 -1.800000e+001
      vertex   -1.630000e+002 9.523506e+000 -1.800000e+001
    endloop
  endfacet
  facet normal 0.000000e+000 -0.000000e+000 -1.000000e+000
    outer loop
      vertex   -1.630000e+002 9.523506e+000 -1.800000e+001
      vertex   -1.600000e+002 -2.500000e+001 -1.800000e+001
      vertex   -1.630000e+002 -2.800000e+001 -1.800000e+001
    endloop
  endfacet
  facet normal 0.000000e+000 0.000000e+000 -1.000000e+000
    outer loop
      vertex   -1.630000e+002 -2.800000e+001 -1.800000e+001
      vertex   -1.600000e+002 -2.500000e+001 -1.800000e+001
      vertex   -1.250000e+002 -2.800000e+001 -1.800000e+001
    endloop
  endfacet
  facet normal 0.000000e+000 0.000000e+000 -1.000000e+000
    outer loop
      vertex   -1.250000e+002 -2.800000e+001 -1.800000e+001
      vertex   -1.600000e+002 -2.500000e+001 -1.800000e+001
      vertex   -1.250000e+002 -2.500000e+001 -1.800000e+001
    endloop
  endfacet
  facet normal -0.000000e+000 0.000000e+000 -1.000000e+000
    outer loop
      vertex   -9.000000e+001 -2.500000e+001 -1.800000e+001
      vertex   -1.250000e+002 -2.800000e+001 -1.800000e+001
      vertex   -1.250000e+002 -2.500000e+001 -1.800000e+001
    endloop
  endfacet
  facet normal -0.000000e+000 -0.000000e+000 -1.000000e+000
    outer loop
      vertex   -9.000000e+001 -2.500000e+001 -1.800000e+001
      vertex   -8.700000e+001 -2.800000e+001 -1.800000e+001
      vertex   -1.250000e+002 -2.800000e+001 -1.800000e+001
    endloop
  endfacet
  facet normal 0.000000e+000 0.000000e+000 -1.000000e+000
    outer loop
      vertex   -9.000000e+001 -2.500000e+001 -1.800000e+001
      vertex   -8.700000e+001 9.523506e+000 -1.800000e+001
      vertex   -8.700000e+001 -2.800000e+001 -1.800000e+001
    endloop
  endfacet
  facet normal 0.000000e+000 0.000000e+000 -1.000000e+000
    outer loop
      vertex   -9.000000e+001 -2.500000e+001 -1.800000e+001
      vertex   -9.000000e+001 9.523506e+000 -1.800000e+001
      vertex   -8.700000e+001 9.523506e+000 -1.800000e+001
    endloop
  endfacet
  facet normal 1.000000e+000 0.000000e+000 0.000000e+000
    outer loop
      vertex   -1.600000e+002 9.523506e+000 -7.500000e+000
      vertex   -1.600000e+002 -2.500000e+001 -7.500000e+000
      vertex   -1.600000e+002 9.523506e+000 -1.800000e+001
    endloop
  endfacet
  facet normal 1.000000e+000 0.000000e+000 0.000000e+000
    outer loop
      vertex   -1.600000e+002 9.523506e+000 -1.800000e+001
      vertex   -1.600000e+002 -2.500000e+001 -7.500000e+000
      vertex   -1.600000e+002 -2.500000e+001 -1.800000e+001
    endloop
  endfacet
  facet normal 0.000000e+000 1.000000e+000 0.000000e+000
    outer loop
      vertex   -1.600000e+002 9.523506e+000 -7.500000e+000
      vertex   -1.600000e+002 9.523506e+000 -1.800000e+001
      vertex   -1.630000e+002 9.523506e+000 -7.500000e+000
    endloop
  endfacet
  facet normal 0.000000e+000 1.000000e+000 0.000000e+000
    outer loop
      vertex   -1.630000e+002 9.523506e+000 -7.500000e+000
      vertex   -1.600000e+002 9.523506e+000 -1.800000e+001
      vertex   -1.630000e+002 9.523506e+000 -1.800000e+001
    endloop
  endfacet
  facet normal 0.000000e+000 1.000000e+000 0.000000e+000
    outer loop
      vertex   -8.700000e+001 9.523506e+000 -7.500000e+000
      vertex   -8.700000e+001 9.523506e+000 -1.800000e+001
      vertex   -9.000000e+001 9.523506e+000 -7.500000e+000
    endloop
  endfacet
  facet normal 0.000000e+000 1.000000e+000 0.000000e+000
    outer loop
      vertex   -9.000000e+001 9.523506e+000 -7.500000e+000
      vertex   -8.700000e+001 9.523506e+000 -1.800000e+001
      vertex   -9.000000e+001 9.523506e+000 -1.800000e+001
    endloop
  endfacet
endsolid
