solid ascii
  facet normal 0.000000e+000 1.000000e+000 -0.000000e+000
    outer loop
      vertex   -9.050000e+001 1.450000e+002 -5.268100e+000
      vertex   -9.550000e+001 1.450000e+002 -5.268100e+000
      vertex   -9.050000e+001 1.450000e+002 -2.680995e-001
    endloop
  endfacet
  facet normal 0.000000e+000 1.000000e+000 -0.000000e+000
    outer loop
      vertex   -9.050000e+001 1.450000e+002 -2.680995e-001
      vertex   -9.550000e+001 1.450000e+002 -5.268100e+000
      vertex   -9.550000e+001 1.450000e+002 -2.680995e-001
    endloop
  endfacet
  facet normal -0.000000e+000 -1.000000e+000 -0.000000e+000
    outer loop
      vertex   -9.050000e+001 1.380000e+002 -2.680995e-001
      vertex   -9.550000e+001 1.380000e+002 -2.680995e-001
      vertex   -9.050000e+001 1.380000e+002 -5.268100e+000
    endloop
  endfacet
  facet normal -0.000000e+000 -1.000000e+000 -0.000000e+000
    outer loop
      vertex   -9.050000e+001 1.380000e+002 -5.268100e+000
      vertex   -9.550000e+001 1.380000e+002 -2.680995e-001
      vertex   -9.550000e+001 1.380000e+002 -5.268100e+000
    endloop
  endfacet
  facet normal -0.000000e+000 0.000000e+000 1.000000e+000
    outer loop
      vertex   -9.550000e+001 1.450000e+002 -2.680995e-001
      vertex   -9.550000e+001 1.380000e+002 -2.680995e-001
      vertex   -9.050000e+001 1.450000e+002 -2.680995e-001
    endloop
  endfacet
  facet normal -0.000000e+000 0.000000e+000 1.000000e+000
    outer loop
      vertex   -9.050000e+001 1.450000e+002 -2.680995e-001
      vertex   -9.550000e+001 1.380000e+002 -2.680995e-001
      vertex   -9.050000e+001 1.380000e+002 -2.680995e-001
    endloop
  endfacet
  facet normal -1.000000e+000 0.000000e+000 0.000000e+000
    outer loop
      vertex   -9.550000e+001 1.450000e+002 -5.268100e+000
      vertex   -9.550000e+001 1.380000e+002 -5.268100e+000
      vertex   -9.550000e+001 1.450000e+002 -2.680995e-001
    endloop
  endfacet
  facet normal -1.000000e+000 -0.000000e+000 0.000000e+000
    outer loop
      vertex   -9.550000e+001 1.450000e+002 -2.680995e-001
      vertex   -9.550000e+001 1.380000e+002 -5.268100e+000
      vertex   -9.550000e+001 1.380000e+002 -2.680995e-001
    endloop
  endfacet
  facet normal -0.000000e+000 -0.000000e+000 -1.000000e+000
    outer loop
      vertex   -9.050000e+001 1.450000e+002 -5.268100e+000
      vertex   -9.050000e+001 1.380000e+002 -5.268100e+000
      vertex   -9.550000e+001 1.450000e+002 -5.268100e+000
    endloop
  endfacet
  facet normal -0.000000e+000 -0.000000e+000 -1.000000e+000
    outer loop
      vertex   -9.550000e+001 1.450000e+002 -5.268100e+000
      vertex   -9.050000e+001 1.380000e+002 -5.268100e+000
      vertex   -9.550000e+001 1.380000e+002 -5.268100e+000
    endloop
  endfacet
  facet normal 1.000000e+000 0.000000e+000 0.000000e+000
    outer loop
      vertex   -9.050000e+001 1.450000e+002 -2.680995e-001
      vertex   -9.050000e+001 1.380000e+002 -2.680995e-001
      vertex   -9.050000e+001 1.450000e+002 -5.268100e+000
    endloop
  endfacet
  facet normal 1.000000e+000 0.000000e+000 0.000000e+000
    outer loop
      vertex   -9.050000e+001 1.450000e+002 -5.268100e+000
      vertex   -9.050000e+001 1.380000e+002 -2.680995e-001
      vertex   -9.050000e+001 1.380000e+002 -5.268100e+000
    endloop
  endfacet
endsolid
