solid ascii
  facet normal -0.000000e+000 -1.000000e+000 0.000000e+000
    outer loop
      vertex   -1.600000e+002 2.095235e+002 -1.800000e+001
      vertex   -1.600000e+002 2.095235e+002 -7.500000e+000
      vertex   -1.630000e+002 2.095235e+002 -1.800000e+001
    endloop
  endfacet
  facet normal 0.000000e+000 -1.000000e+000 0.000000e+000
    outer loop
      vertex   -1.630000e+002 2.095235e+002 -1.800000e+001
      vertex   -1.600000e+002 2.095235e+002 -7.500000e+000
      vertex   -1.630000e+002 2.095235e+002 -7.500000e+000
    endloop
  endfacet
  facet normal 0.000000e+000 -1.000000e+000 0.000000e+000
    outer loop
      vertex   -9.000000e+001 2.095235e+002 -7.500000e+000
      vertex   -9.000000e+001 2.095235e+002 -1.800000e+001
      vertex   -8.700000e+001 2.095235e+002 -7.500000e+000
    endloop
  endfacet
  facet normal 0.000000e+000 -1.000000e+000 -0.000000e+000
    outer loop
      vertex   -8.700000e+001 2.095235e+002 -7.500000e+000
      vertex   -9.000000e+001 2.095235e+002 -1.800000e+001
      vertex   -8.700000e+001 2.095235e+002 -1.800000e+001
    endloop
  endfacet
  facet normal -1.000000e+000 0.000000e+000 -0.000000e+000
    outer loop
      vertex   -1.630000e+002 2.095235e+002 -7.500000e+000
      vertex   -1.630000e+002 2.450000e+002 -7.500000e+000
      vertex   -1.630000e+002 2.095235e+002 -1.800000e+001
    endloop
  endfacet
  facet normal -1.000000e+000 0.000000e+000 0.000000e+000
    outer loop
      vertex   -1.630000e+002 2.095235e+002 -1.800000e+001
      vertex   -1.630000e+002 2.450000e+002 -7.500000e+000
      vertex   -1.630000e+002 2.480000e+002 -1.800000e+001
    endloop
  endfacet
  facet normal -1.000000e+000 0.000000e+000 0.000000e+000
    outer loop
      vertex   -1.630000e+002 2.480000e+002 -1.800000e+001
      vertex   -1.630000e+002 2.450000e+002 -7.500000e+000
      vertex   -1.630000e+002 2.480000e+002 -4.500000e+000
    endloop
  endfacet
  facet normal -1.000000e+000 -0.000000e+000 0.000000e+000
    outer loop
      vertex   -1.630000e+002 2.480000e+002 -4.500000e+000
      vertex   -1.630000e+002 2.450000e+002 -7.500000e+000
      vertex   -1.630000e+002 2.450000e+002 -4.500000e+000
    endloop
  endfacet
  facet normal 0.000000e+000 -0.000000e+000 1.000000e+000
    outer loop
      vertex   -1.600000e+002 2.095235e+002 -7.500000e+000
      vertex   -1.600000e+002 2.450000e+002 -7.500000e+000
      vertex   -1.630000e+002 2.095235e+002 -7.500000e+000
    endloop
  endfacet
  facet normal 0.000000e+000 -0.000000e+000 1.000000e+000
    outer loop
      vertex   -1.630000e+002 2.095235e+002 -7.500000e+000
      vertex   -1.600000e+002 2.450000e+002 -7.500000e+000
      vertex   -1.630000e+002 2.450000e+002 -7.500000e+000
    endloop
  endfacet
  facet normal -1.000000e+000 -4.005710e-016 0.000000e+000
    outer loop
      vertex   -9.000000e+001 2.095235e+002 -7.500000e+000
      vertex   -9.000000e+001 2.450000e+002 -7.500000e+000
      vertex   -9.000000e+001 2.095235e+002 -1.800000e+001
    endloop
  endfacet
  facet normal -1.000000e+000 0.000000e+000 -1.353415e-015
    outer loop
      vertex   -9.000000e+001 2.095235e+002 -1.800000e+001
      vertex   -9.000000e+001 2.450000e+002 -7.500000e+000
      vertex   -9.000000e+001 2.450000e+002 -1.800000e+001
    endloop
  endfacet
  facet normal 1.000000e+000 -4.736952e-015 0.000000e+000
    outer loop
      vertex   -9.000000e+001 2.450000e+002 3.000000e+000
      vertex   -9.000000e+001 2.450000e+002 -4.500000e+000
      vertex   -9.000000e+001 2.480000e+002 3.000000e+000
    endloop
  endfacet
  facet normal 1.000000e+000 0.000000e+000 -1.894781e-015
    outer loop
      vertex   -9.000000e+001 2.480000e+002 3.000000e+000
      vertex   -9.000000e+001 2.450000e+002 -4.500000e+000
      vertex   -9.000000e+001 2.480000e+002 -4.500000e+000
    endloop
  endfacet
  facet normal -1.000000e+000 0.000000e+000 0.000000e+000
    outer loop
      vertex   -1.600000e+002 2.450000e+002 -4.500000e+000
      vertex   -1.600000e+002 2.450000e+002 3.000000e+000
      vertex   -1.600000e+002 2.480000e+002 -4.500000e+000
    endloop
  endfacet
  facet normal -1.000000e+000 0.000000e+000 0.000000e+000
    outer loop
      vertex   -1.600000e+002 2.480000e+002 -4.500000e+000
      vertex   -1.600000e+002 2.450000e+002 3.000000e+000
      vertex   -1.600000e+002 2.480000e+002 3.000000e+000
    endloop
  endfacet
  facet normal 0.000000e+000 -0.000000e+000 1.000000e+000
    outer loop
      vertex   -8.700000e+001 2.450000e+002 -4.500000e+000
      vertex   -8.700000e+001 2.480000e+002 -4.500000e+000
      vertex   -9.000000e+001 2.450000e+002 -4.500000e+000
    endloop
  endfacet
  facet normal 0.000000e+000 -0.000000e+000 1.000000e+000
    outer loop
      vertex   -9.000000e+001 2.450000e+002 -4.500000e+000
      vertex   -8.700000e+001 2.480000e+002 -4.500000e+000
      vertex   -9.000000e+001 2.480000e+002 -4.500000e+000
    endloop
  endfacet
  facet normal 0.000000e+000 -0.000000e+000 1.000000e+000
    outer loop
      vertex   -1.600000e+002 2.450000e+002 -4.500000e+000
      vertex   -1.600000e+002 2.480000e+002 -4.500000e+000
      vertex   -1.630000e+002 2.450000e+002 -4.500000e+000
    endloop
  endfacet
  facet normal 0.000000e+000 -0.000000e+000 1.000000e+000
    outer loop
      vertex   -1.630000e+002 2.450000e+002 -4.500000e+000
      vertex   -1.600000e+002 2.480000e+002 -4.500000e+000
      vertex   -1.630000e+002 2.480000e+002 -4.500000e+000
    endloop
  endfacet
  facet normal -0.000000e+000 1.000000e+000 0.000000e+000
    outer loop
      vertex   -1.250000e+002 2.480000e+002 -1.800000e+001
      vertex   -1.145000e+002 2.480000e+002 -7.000000e+000
      vertex   -8.700000e+001 2.480000e+002 -1.800000e+001
    endloop
  endfacet
  facet normal 0.000000e+000 1.000000e+000 -0.000000e+000
    outer loop
      vertex   -1.250000e+002 2.480000e+002 -1.800000e+001
      vertex   -1.355000e+002 2.480000e+002 -7.000000e+000
      vertex   -1.145000e+002 2.480000e+002 -7.000000e+000
    endloop
  endfacet
  facet normal 0.000000e+000 1.000000e+000 -0.000000e+000
    outer loop
      vertex   -1.250000e+002 2.480000e+002 -1.800000e+001
      vertex   -1.630000e+002 2.480000e+002 -1.800000e+001
      vertex   -1.355000e+002 2.480000e+002 -7.000000e+000
    endloop
  endfacet
  facet normal 0.000000e+000 1.000000e+000 -0.000000e+000
    outer loop
      vertex   -1.355000e+002 2.480000e+002 -7.000000e+000
      vertex   -1.630000e+002 2.480000e+002 -1.800000e+001
      vertex   -1.600000e+002 2.480000e+002 -4.500000e+000
    endloop
  endfacet
  facet normal 0.000000e+000 1.000000e+000 -0.000000e+000
    outer loop
      vertex   -1.355000e+002 2.480000e+002 3.000000e+000
      vertex   -1.600000e+002 2.480000e+002 -4.500000e+000
      vertex   -1.600000e+002 2.480000e+002 3.000000e+000
    endloop
  endfacet
  facet normal 0.000000e+000 1.000000e+000 0.000000e+000
    outer loop
      vertex   -1.355000e+002 2.480000e+002 3.000000e+000
      vertex   -1.355000e+002 2.480000e+002 -7.000000e+000
      vertex   -1.600000e+002 2.480000e+002 -4.500000e+000
    endloop
  endfacet
  facet normal 0.000000e+000 1.000000e+000 0.000000e+000
    outer loop
      vertex   -1.630000e+002 2.480000e+002 -1.800000e+001
      vertex   -1.630000e+002 2.480000e+002 -4.500000e+000
      vertex   -1.600000e+002 2.480000e+002 -4.500000e+000
    endloop
  endfacet
  facet normal 0.000000e+000 1.000000e+000 -0.000000e+000
    outer loop
      vertex   -8.700000e+001 2.480000e+002 -1.800000e+001
      vertex   -1.145000e+002 2.480000e+002 -7.000000e+000
      vertex   -9.000000e+001 2.480000e+002 -4.500000e+000
    endloop
  endfacet
  facet normal 0.000000e+000 1.000000e+000 0.000000e+000
    outer loop
      vertex   -8.700000e+001 2.480000e+002 -4.500000e+000
      vertex   -8.700000e+001 2.480000e+002 -1.800000e+001
      vertex   -9.000000e+001 2.480000e+002 -4.500000e+000
    endloop
  endfacet
  facet normal 0.000000e+000 1.000000e+000 0.000000e+000
    outer loop
      vertex   -9.000000e+001 2.480000e+002 3.000000e+000
      vertex   -9.000000e+001 2.480000e+002 -4.500000e+000
      vertex   -1.145000e+002 2.480000e+002 3.000000e+000
    endloop
  endfacet
  facet normal 0.000000e+000 1.000000e+000 0.000000e+000
    outer loop
      vertex   -1.145000e+002 2.480000e+002 3.000000e+000
      vertex   -9.000000e+001 2.480000e+002 -4.500000e+000
      vertex   -1.145000e+002 2.480000e+002 -7.000000e+000
    endloop
  endfacet
  facet normal 0.000000e+000 0.000000e+000 1.000000e+000
    outer loop
      vertex   -1.355000e+002 2.480000e+002 3.000000e+000
      vertex   -1.600000e+002 2.480000e+002 3.000000e+000
      vertex   -1.355000e+002 2.450000e+002 3.000000e+000
    endloop
  endfacet
  facet normal 0.000000e+000 0.000000e+000 1.000000e+000
    outer loop
      vertex   -1.355000e+002 2.450000e+002 3.000000e+000
      vertex   -1.600000e+002 2.480000e+002 3.000000e+000
      vertex   -1.600000e+002 2.450000e+002 3.000000e+000
    endloop
  endfacet
  facet normal 0.000000e+000 -0.000000e+000 1.000000e+000
    outer loop
      vertex   -1.145000e+002 2.450000e+002 3.000000e+000
      vertex   -9.000000e+001 2.450000e+002 3.000000e+000
      vertex   -1.145000e+002 2.480000e+002 3.000000e+000
    endloop
  endfacet
  facet normal -0.000000e+000 0.000000e+000 1.000000e+000
    outer loop
      vertex   -1.145000e+002 2.480000e+002 3.000000e+000
      vertex   -9.000000e+001 2.450000e+002 3.000000e+000
      vertex   -9.000000e+001 2.480000e+002 3.000000e+000
    endloop
  endfacet
  facet normal -1.000000e+000 -0.000000e+000 -0.000000e+000
    outer loop
      vertex   -1.145000e+002 2.480000e+002 3.000000e+000
      vertex   -1.145000e+002 2.480000e+002 -7.000000e+000
      vertex   -1.145000e+002 2.450000e+002 3.000000e+000
    endloop
  endfacet
  facet normal -1.000000e+000 -0.000000e+000 -0.000000e+000
    outer loop
      vertex   -1.145000e+002 2.450000e+002 3.000000e+000
      vertex   -1.145000e+002 2.480000e+002 -7.000000e+000
      vertex   -1.145000e+002 2.450000e+002 -7.000000e+000
    endloop
  endfacet
  facet normal 1.000000e+000 -0.000000e+000 0.000000e+000
    outer loop
      vertex   -1.355000e+002 2.450000e+002 3.000000e+000
      vertex   -1.355000e+002 2.450000e+002 -7.000000e+000
      vertex   -1.355000e+002 2.480000e+002 3.000000e+000
    endloop
  endfacet
  facet normal 1.000000e+000 -0.000000e+000 0.000000e+000
    outer loop
      vertex   -1.355000e+002 2.480000e+002 3.000000e+000
      vertex   -1.355000e+002 2.450000e+002 -7.000000e+000
      vertex   -1.355000e+002 2.480000e+002 -7.000000e+000
    endloop
  endfacet
  facet normal 0.000000e+000 0.000000e+000 1.000000e+000
    outer loop
      vertex   -1.145000e+002 2.480000e+002 -7.000000e+000
      vertex   -1.355000e+002 2.480000e+002 -7.000000e+000
      vertex   -1.145000e+002 2.450000e+002 -7.000000e+000
    endloop
  endfacet
  facet normal 0.000000e+000 0.000000e+000 1.000000e+000
    outer loop
      vertex   -1.145000e+002 2.450000e+002 -7.000000e+000
      vertex   -1.355000e+002 2.480000e+002 -7.000000e+000
      vertex   -1.355000e+002 2.450000e+002 -7.000000e+000
    endloop
  endfacet
  facet normal 0.000000e+000 -1.000000e+000 0.000000e+000
    outer loop
      vertex   -1.600000e+002 2.450000e+002 -7.500000e+000
      vertex   -1.600000e+002 2.450000e+002 -1.800000e+001
      vertex   -1.355000e+002 2.450000e+002 -7.000000e+000
    endloop
  endfacet
  facet normal 0.000000e+000 -1.000000e+000 0.000000e+000
    outer loop
      vertex   -1.600000e+002 2.450000e+002 -4.500000e+000
      vertex   -1.355000e+002 2.450000e+002 -7.000000e+000
      vertex   -1.355000e+002 2.450000e+002 3.000000e+000
    endloop
  endfacet
  facet normal 0.000000e+000 -1.000000e+000 0.000000e+000
    outer loop
      vertex   -1.600000e+002 2.450000e+002 3.000000e+000
      vertex   -1.600000e+002 2.450000e+002 -4.500000e+000
      vertex   -1.355000e+002 2.450000e+002 3.000000e+000
    endloop
  endfacet
  facet normal -0.000000e+000 -1.000000e+000 0.000000e+000
    outer loop
      vertex   -9.000000e+001 2.450000e+002 -1.800000e+001
      vertex   -1.145000e+002 2.450000e+002 -7.000000e+000
      vertex   -1.250000e+002 2.450000e+002 -1.800000e+001
    endloop
  endfacet
  facet normal 0.000000e+000 -1.000000e+000 0.000000e+000
    outer loop
      vertex   -9.000000e+001 2.450000e+002 -1.800000e+001
      vertex   -9.000000e+001 2.450000e+002 -7.500000e+000
      vertex   -1.145000e+002 2.450000e+002 -7.000000e+000
    endloop
  endfacet
  facet normal 0.000000e+000 -1.000000e+000 0.000000e+000
    outer loop
      vertex   -1.145000e+002 2.450000e+002 -7.000000e+000
      vertex   -9.000000e+001 2.450000e+002 -7.500000e+000
      vertex   -9.000000e+001 2.450000e+002 -4.500000e+000
    endloop
  endfacet
  facet normal 0.000000e+000 -1.000000e+000 0.000000e+000
    outer loop
      vertex   -1.145000e+002 2.450000e+002 3.000000e+000
      vertex   -9.000000e+001 2.450000e+002 -4.500000e+000
      vertex   -9.000000e+001 2.450000e+002 3.000000e+000
    endloop
  endfacet
  facet normal 0.000000e+000 -1.000000e+000 0.000000e+000
    outer loop
      vertex   -1.145000e+002 2.450000e+002 3.000000e+000
      vertex   -1.145000e+002 2.450000e+002 -7.000000e+000
      vertex   -9.000000e+001 2.450000e+002 -4.500000e+000
    endloop
  endfacet
  facet normal -0.000000e+000 -1.000000e+000 0.000000e+000
    outer loop
      vertex   -8.700000e+001 2.450000e+002 -7.500000e+000
      vertex   -8.700000e+001 2.450000e+002 -4.500000e+000
      vertex   -9.000000e+001 2.450000e+002 -7.500000e+000
    endloop
  endfacet
  facet normal 0.000000e+000 -1.000000e+000 0.000000e+000
    outer loop
      vertex   -9.000000e+001 2.450000e+002 -7.500000e+000
      vertex   -8.700000e+001 2.450000e+002 -4.500000e+000
      vertex   -9.000000e+001 2.450000e+002 -4.500000e+000
    endloop
  endfacet
  facet normal -0.000000e+000 -1.000000e+000 -0.000000e+000
    outer loop
      vertex   -1.145000e+002 2.450000e+002 -7.000000e+000
      vertex   -1.355000e+002 2.450000e+002 -7.000000e+000
      vertex   -1.250000e+002 2.450000e+002 -1.800000e+001
    endloop
  endfacet
  facet normal -0.000000e+000 -1.000000e+000 0.000000e+000
    outer loop
      vertex   -1.250000e+002 2.450000e+002 -1.800000e+001
      vertex   -1.355000e+002 2.450000e+002 -7.000000e+000
      vertex   -1.600000e+002 2.450000e+002 -1.800000e+001
    endloop
  endfacet
  facet normal 0.000000e+000 -1.000000e+000 0.000000e+000
    outer loop
      vertex   -1.600000e+002 2.450000e+002 -7.500000e+000
      vertex   -1.355000e+002 2.450000e+002 -7.000000e+000
      vertex   -1.600000e+002 2.450000e+002 -4.500000e+000
    endloop
  endfacet
  facet normal 0.000000e+000 -1.000000e+000 0.000000e+000
    outer loop
      vertex   -1.630000e+002 2.450000e+002 -4.500000e+000
      vertex   -1.600000e+002 2.450000e+002 -7.500000e+000
      vertex   -1.600000e+002 2.450000e+002 -4.500000e+000
    endloop
  endfacet
  facet normal 0.000000e+000 -1.000000e+000 0.000000e+000
    outer loop
      vertex   -1.630000e+002 2.450000e+002 -4.500000e+000
      vertex   -1.630000e+002 2.450000e+002 -7.500000e+000
      vertex   -1.600000e+002 2.450000e+002 -7.500000e+000
    endloop
  endfacet
  facet normal 1.000000e+000 0.000000e+000 -0.000000e+000
    outer loop
      vertex   -1.600000e+002 2.095235e+002 -1.800000e+001
      vertex   -1.600000e+002 2.450000e+002 -1.800000e+001
      vertex   -1.600000e+002 2.095235e+002 -7.500000e+000
    endloop
  endfacet
  facet normal 1.000000e+000 -0.000000e+000 0.000000e+000
    outer loop
      vertex   -1.600000e+002 2.095235e+002 -7.500000e+000
      vertex   -1.600000e+002 2.450000e+002 -1.800000e+001
      vertex   -1.600000e+002 2.450000e+002 -7.500000e+000
    endloop
  endfacet
  facet normal 0.000000e+000 -0.000000e+000 1.000000e+000
    outer loop
      vertex   -8.700000e+001 2.095235e+002 -7.500000e+000
      vertex   -8.700000e+001 2.450000e+002 -7.500000e+000
      vertex   -9.000000e+001 2.095235e+002 -7.500000e+000
    endloop
  endfacet
  facet normal 0.000000e+000 -0.000000e+000 1.000000e+000
    outer loop
      vertex   -9.000000e+001 2.095235e+002 -7.500000e+000
      vertex   -8.700000e+001 2.450000e+002 -7.500000e+000
      vertex   -9.000000e+001 2.450000e+002 -7.500000e+000
    endloop
  endfacet
  facet normal 1.000000e+000 -0.000000e+000 0.000000e+000
    outer loop
      vertex   -8.700000e+001 2.095235e+002 -7.500000e+000
      vertex   -8.700000e+001 2.095235e+002 -1.800000e+001
      vertex   -8.700000e+001 2.450000e+002 -7.500000e+000
    endloop
  endfacet
  facet normal 1.000000e+000 -0.000000e+000 0.000000e+000
    outer loop
      vertex   -8.700000e+001 2.450000e+002 -7.500000e+000
      vertex   -8.700000e+001 2.095235e+002 -1.800000e+001
      vertex   -8.700000e+001 2.480000e+002 -1.800000e+001
    endloop
  endfacet
  facet normal 1.000000e+000 0.000000e+000 0.000000e+000
    outer loop
      vertex   -8.700000e+001 2.480000e+002 -4.500000e+000
      vertex   -8.700000e+001 2.450000e+002 -7.500000e+000
      vertex   -8.700000e+001 2.480000e+002 -1.800000e+001
    endloop
  endfacet
  facet normal 1.000000e+000 0.000000e+000 0.000000e+000
    outer loop
      vertex   -8.700000e+001 2.480000e+002 -4.500000e+000
      vertex   -8.700000e+001 2.450000e+002 -4.500000e+000
      vertex   -8.700000e+001 2.450000e+002 -7.500000e+000
    endloop
  endfacet
  facet normal 0.000000e+000 0.000000e+000 -1.000000e+000
    outer loop
      vertex   -1.600000e+002 2.095235e+002 -1.800000e+001
      vertex   -1.630000e+002 2.095235e+002 -1.800000e+001
      vertex   -1.600000e+002 2.450000e+002 -1.800000e+001
    endloop
  endfacet
  facet normal -0.000000e+000 0.000000e+000 -1.000000e+000
    outer loop
      vertex   -1.600000e+002 2.450000e+002 -1.800000e+001
      vertex   -1.630000e+002 2.095235e+002 -1.800000e+001
      vertex   -1.630000e+002 2.480000e+002 -1.800000e+001
    endloop
  endfacet
  facet normal -0.000000e+000 0.000000e+000 -1.000000e+000
    outer loop
      vertex   -1.250000e+002 2.480000e+002 -1.800000e+001
      vertex   -1.600000e+002 2.450000e+002 -1.800000e+001
      vertex   -1.630000e+002 2.480000e+002 -1.800000e+001
    endloop
  endfacet
  facet normal -0.000000e+000 -0.000000e+000 -1.000000e+000
    outer loop
      vertex   -1.250000e+002 2.480000e+002 -1.800000e+001
      vertex   -1.250000e+002 2.450000e+002 -1.800000e+001
      vertex   -1.600000e+002 2.450000e+002 -1.800000e+001
    endloop
  endfacet
  facet normal -0.000000e+000 -0.000000e+000 -1.000000e+000
    outer loop
      vertex   -1.250000e+002 2.480000e+002 -1.800000e+001
      vertex   -9.000000e+001 2.450000e+002 -1.800000e+001
      vertex   -1.250000e+002 2.450000e+002 -1.800000e+001
    endloop
  endfacet
  facet normal 0.000000e+000 -0.000000e+000 -1.000000e+000
    outer loop
      vertex   -1.250000e+002 2.480000e+002 -1.800000e+001
      vertex   -8.700000e+001 2.480000e+002 -1.800000e+001
      vertex   -9.000000e+001 2.450000e+002 -1.800000e+001
    endloop
  endfacet
  facet normal 0.000000e+000 0.000000e+000 -1.000000e+000
    outer loop
      vertex   -9.000000e+001 2.450000e+002 -1.800000e+001
      vertex   -8.700000e+001 2.480000e+002 -1.800000e+001
      vertex   -8.700000e+001 2.095235e+002 -1.800000e+001
    endloop
  endfacet
  facet normal 0.000000e+000 0.000000e+000 -1.000000e+000
    outer loop
      vertex   -9.000000e+001 2.095235e+002 -1.800000e+001
      vertex   -9.000000e+001 2.450000e+002 -1.800000e+001
      vertex   -8.700000e+001 2.095235e+002 -1.800000e+001
    endloop
  endfacet
endsolid
