solid ascii
  facet normal 9.981756e-001 -6.037850e-002 0.000000e+000
    outer loop
      vertex   -1.264889e+002 1.351809e+002 2.400000e+000
      vertex   -1.264889e+002 1.351809e+002 4.400000e+000
      vertex   -1.264999e+002 1.350001e+002 2.400000e+000
    endloop
  endfacet
  facet normal 9.836199e-001 -1.802550e-001 0.000000e+000
    outer loop
      vertex   -1.264889e+002 1.351809e+002 2.400000e+000
      vertex   -1.264563e+002 1.353591e+002 4.400000e+000
      vertex   -1.264889e+002 1.351809e+002 4.400000e+000
    endloop
  endfacet
  facet normal 9.836199e-001 -1.802550e-001 0.000000e+000
    outer loop
      vertex   -1.264889e+002 1.351809e+002 2.400000e+000
      vertex   -1.264563e+002 1.353591e+002 2.400000e+000
      vertex   -1.264563e+002 1.353591e+002 4.400000e+000
    endloop
  endfacet
  facet normal 9.547209e-001 -2.975031e-001 0.000000e+000
    outer loop
      vertex   -1.264563e+002 1.353591e+002 4.400000e+000
      vertex   -1.264563e+002 1.353591e+002 2.400000e+000
      vertex   -1.264024e+002 1.355320e+002 4.400000e+000
    endloop
  endfacet
  facet normal 9.547209e-001 -2.975031e-001 0.000000e+000
    outer loop
      vertex   -1.264024e+002 1.355320e+002 4.400000e+000
      vertex   -1.264563e+002 1.353591e+002 2.400000e+000
      vertex   -1.264024e+002 1.355320e+002 2.400000e+000
    endloop
  endfacet
  facet normal 9.118998e-001 -4.104128e-001 0.000000e+000
    outer loop
      vertex   -1.263281e+002 1.356972e+002 4.400000e+000
      vertex   -1.264024e+002 1.355320e+002 2.400000e+000
      vertex   -1.263281e+002 1.356972e+002 2.400000e+000
    endloop
  endfacet
  facet normal 8.557813e-001 -5.173378e-001 0.000000e+000
    outer loop
      vertex   -1.262344e+002 1.358522e+002 4.400000e+000
      vertex   -1.263281e+002 1.356972e+002 2.400000e+000
      vertex   -1.262344e+002 1.358522e+002 2.400000e+000
    endloop
  endfacet
  facet normal 7.871835e-001 -6.167189e-001 0.000000e+000
    outer loop
      vertex   -1.261226e+002 1.359948e+002 4.400000e+000
      vertex   -1.262344e+002 1.358522e+002 2.400000e+000
      vertex   -1.261226e+002 1.359948e+002 2.400000e+000
    endloop
  endfacet
  facet normal 7.071068e-001 -7.071068e-001 5.018316e-015
    outer loop
      vertex   -1.259946e+002 1.361228e+002 4.400000e+000
      vertex   -1.261226e+002 1.359948e+002 2.400000e+000
      vertex   -1.259946e+002 1.361228e+002 2.400000e+000
    endloop
  endfacet
  facet normal 6.167189e-001 -7.871835e-001 0.000000e+000
    outer loop
      vertex   -1.258520e+002 1.362346e+002 4.400000e+000
      vertex   -1.259946e+002 1.361228e+002 2.400000e+000
      vertex   -1.258520e+002 1.362346e+002 2.400000e+000
    endloop
  endfacet
  facet normal 5.173378e-001 -8.557813e-001 0.000000e+000
    outer loop
      vertex   -1.256970e+002 1.363283e+002 4.400000e+000
      vertex   -1.258520e+002 1.362346e+002 2.400000e+000
      vertex   -1.256970e+002 1.363283e+002 2.400000e+000
    endloop
  endfacet
  facet normal 4.104128e-001 -9.118998e-001 0.000000e+000
    outer loop
      vertex   -1.255318e+002 1.364026e+002 4.400000e+000
      vertex   -1.256970e+002 1.363283e+002 2.400000e+000
      vertex   -1.255318e+002 1.364026e+002 2.400000e+000
    endloop
  endfacet
  facet normal 2.975031e-001 -9.547209e-001 0.000000e+000
    outer loop
      vertex   -1.253589e+002 1.364565e+002 4.400000e+000
      vertex   -1.255318e+002 1.364026e+002 2.400000e+000
      vertex   -1.253589e+002 1.364565e+002 2.400000e+000
    endloop
  endfacet
  facet normal 1.802550e-001 -9.836199e-001 0.000000e+000
    outer loop
      vertex   -1.251807e+002 1.364891e+002 4.400000e+000
      vertex   -1.253589e+002 1.364565e+002 2.400000e+000
      vertex   -1.251807e+002 1.364891e+002 2.400000e+000
    endloop
  endfacet
  facet normal 6.037850e-002 -9.981756e-001 0.000000e+000
    outer loop
      vertex   -1.249999e+002 1.365001e+002 4.400000e+000
      vertex   -1.251807e+002 1.364891e+002 2.400000e+000
      vertex   -1.249999e+002 1.365001e+002 2.400000e+000
    endloop
  endfacet
  facet normal -6.037850e-002 -9.981756e-001 0.000000e+000
    outer loop
      vertex   -1.248191e+002 1.364891e+002 4.400000e+000
      vertex   -1.249999e+002 1.365001e+002 2.400000e+000
      vertex   -1.248191e+002 1.364891e+002 2.400000e+000
    endloop
  endfacet
  facet normal -1.802550e-001 -9.836199e-001 0.000000e+000
    outer loop
      vertex   -1.246409e+002 1.364565e+002 4.400000e+000
      vertex   -1.248191e+002 1.364891e+002 2.400000e+000
      vertex   -1.246409e+002 1.364565e+002 2.400000e+000
    endloop
  endfacet
  facet normal -2.975031e-001 -9.547209e-001 0.000000e+000
    outer loop
      vertex   -1.244680e+002 1.364026e+002 4.400000e+000
      vertex   -1.246409e+002 1.364565e+002 2.400000e+000
      vertex   -1.244680e+002 1.364026e+002 2.400000e+000
    endloop
  endfacet
  facet normal -4.104128e-001 -9.118998e-001 0.000000e+000
    outer loop
      vertex   -1.243028e+002 1.363283e+002 4.400000e+000
      vertex   -1.244680e+002 1.364026e+002 2.400000e+000
      vertex   -1.243028e+002 1.363283e+002 2.400000e+000
    endloop
  endfacet
  facet normal -5.173378e-001 -8.557813e-001 0.000000e+000
    outer loop
      vertex   -1.241478e+002 1.362346e+002 4.400000e+000
      vertex   -1.243028e+002 1.363283e+002 2.400000e+000
      vertex   -1.241478e+002 1.362346e+002 2.400000e+000
    endloop
  endfacet
  facet normal -6.167189e-001 -7.871835e-001 0.000000e+000
    outer loop
      vertex   -1.240052e+002 1.361228e+002 4.400000e+000
      vertex   -1.241478e+002 1.362346e+002 2.400000e+000
      vertex   -1.240052e+002 1.361228e+002 2.400000e+000
    endloop
  endfacet
  facet normal -7.071068e-001 -7.071068e-001 0.000000e+000
    outer loop
      vertex   -1.238771e+002 1.359948e+002 4.400000e+000
      vertex   -1.240052e+002 1.361228e+002 2.400000e+000
      vertex   -1.238771e+002 1.359948e+002 2.400000e+000
    endloop
  endfacet
  facet normal -7.871835e-001 -6.167189e-001 0.000000e+000
    outer loop
      vertex   -1.237654e+002 1.358522e+002 4.400000e+000
      vertex   -1.238771e+002 1.359948e+002 2.400000e+000
      vertex   -1.237654e+002 1.358522e+002 2.400000e+000
    endloop
  endfacet
  facet normal -8.557813e-001 -5.173378e-001 0.000000e+000
    outer loop
      vertex   -1.236717e+002 1.356972e+002 4.400000e+000
      vertex   -1.237654e+002 1.358522e+002 2.400000e+000
      vertex   -1.236717e+002 1.356972e+002 2.400000e+000
    endloop
  endfacet
  facet normal -9.118998e-001 -4.104128e-001 0.000000e+000
    outer loop
      vertex   -1.235974e+002 1.355320e+002 4.400000e+000
      vertex   -1.236717e+002 1.356972e+002 2.400000e+000
      vertex   -1.235974e+002 1.355320e+002 2.400000e+000
    endloop
  endfacet
  facet normal -9.547209e-001 -2.975031e-001 0.000000e+000
    outer loop
      vertex   -1.235435e+002 1.353591e+002 4.400000e+000
      vertex   -1.235974e+002 1.355320e+002 2.400000e+000
      vertex   -1.235435e+002 1.353591e+002 2.400000e+000
    endloop
  endfacet
  facet normal -9.836199e-001 -1.802550e-001 0.000000e+000
    outer loop
      vertex   -1.235108e+002 1.351809e+002 4.400000e+000
      vertex   -1.235435e+002 1.353591e+002 2.400000e+000
      vertex   -1.235108e+002 1.351809e+002 2.400000e+000
    endloop
  endfacet
  facet normal -9.981756e-001 -6.037850e-002 0.000000e+000
    outer loop
      vertex   -1.234999e+002 1.350001e+002 4.400000e+000
      vertex   -1.235108e+002 1.351809e+002 2.400000e+000
      vertex   -1.234999e+002 1.350001e+002 2.400000e+000
    endloop
  endfacet
  facet normal -9.981756e-001 6.037850e-002 0.000000e+000
    outer loop
      vertex   -1.235108e+002 1.348193e+002 4.400000e+000
      vertex   -1.234999e+002 1.350001e+002 2.400000e+000
      vertex   -1.235108e+002 1.348193e+002 2.400000e+000
    endloop
  endfacet
  facet normal -9.836199e-001 1.802550e-001 0.000000e+000
    outer loop
      vertex   -1.235435e+002 1.346411e+002 4.400000e+000
      vertex   -1.235108e+002 1.348193e+002 2.400000e+000
      vertex   -1.235435e+002 1.346411e+002 2.400000e+000
    endloop
  endfacet
  facet normal -9.547209e-001 2.975031e-001 0.000000e+000
    outer loop
      vertex   -1.235974e+002 1.344682e+002 4.400000e+000
      vertex   -1.235435e+002 1.346411e+002 2.400000e+000
      vertex   -1.235974e+002 1.344682e+002 2.400000e+000
    endloop
  endfacet
  facet normal -9.118998e-001 4.104128e-001 0.000000e+000
    outer loop
      vertex   -1.236717e+002 1.343030e+002 4.400000e+000
      vertex   -1.235974e+002 1.344682e+002 2.400000e+000
      vertex   -1.236717e+002 1.343030e+002 2.400000e+000
    endloop
  endfacet
  facet normal -8.557813e-001 5.173378e-001 0.000000e+000
    outer loop
      vertex   -1.237654e+002 1.341480e+002 4.400000e+000
      vertex   -1.236717e+002 1.343030e+002 2.400000e+000
      vertex   -1.237654e+002 1.341480e+002 2.400000e+000
    endloop
  endfacet
  facet normal -7.871835e-001 6.167189e-001 0.000000e+000
    outer loop
      vertex   -1.238771e+002 1.340054e+002 4.400000e+000
      vertex   -1.237654e+002 1.341480e+002 2.400000e+000
      vertex   -1.238771e+002 1.340054e+002 2.400000e+000
    endloop
  endfacet
  facet normal -7.071068e-001 7.071068e-001 0.000000e+000
    outer loop
      vertex   -1.240052e+002 1.338773e+002 4.400000e+000
      vertex   -1.238771e+002 1.340054e+002 2.400000e+000
      vertex   -1.240052e+002 1.338773e+002 2.400000e+000
    endloop
  endfacet
  facet normal -6.167189e-001 7.871835e-001 0.000000e+000
    outer loop
      vertex   -1.241478e+002 1.337656e+002 4.400000e+000
      vertex   -1.240052e+002 1.338773e+002 2.400000e+000
      vertex   -1.241478e+002 1.337656e+002 2.400000e+000
    endloop
  endfacet
  facet normal -5.173378e-001 8.557813e-001 0.000000e+000
    outer loop
      vertex   -1.243028e+002 1.336719e+002 4.400000e+000
      vertex   -1.241478e+002 1.337656e+002 2.400000e+000
      vertex   -1.243028e+002 1.336719e+002 2.400000e+000
    endloop
  endfacet
  facet normal -4.104128e-001 9.118998e-001 0.000000e+000
    outer loop
      vertex   -1.244680e+002 1.335976e+002 4.400000e+000
      vertex   -1.243028e+002 1.336719e+002 2.400000e+000
      vertex   -1.244680e+002 1.335976e+002 2.400000e+000
    endloop
  endfacet
  facet normal -2.975031e-001 9.547209e-001 0.000000e+000
    outer loop
      vertex   -1.246409e+002 1.335437e+002 4.400000e+000
      vertex   -1.244680e+002 1.335976e+002 2.400000e+000
      vertex   -1.246409e+002 1.335437e+002 2.400000e+000
    endloop
  endfacet
  facet normal -1.802550e-001 9.836199e-001 0.000000e+000
    outer loop
      vertex   -1.248191e+002 1.335110e+002 4.400000e+000
      vertex   -1.246409e+002 1.335437e+002 2.400000e+000
      vertex   -1.248191e+002 1.335110e+002 2.400000e+000
    endloop
  endfacet
  facet normal -6.037850e-002 9.981756e-001 0.000000e+000
    outer loop
      vertex   -1.249999e+002 1.335001e+002 4.400000e+000
      vertex   -1.248191e+002 1.335110e+002 2.400000e+000
      vertex   -1.249999e+002 1.335001e+002 2.400000e+000
    endloop
  endfacet
  facet normal 6.037850e-002 9.981756e-001 0.000000e+000
    outer loop
      vertex   -1.251807e+002 1.335110e+002 4.400000e+000
      vertex   -1.249999e+002 1.335001e+002 2.400000e+000
      vertex   -1.251807e+002 1.335110e+002 2.400000e+000
    endloop
  endfacet
  facet normal 1.802550e-001 9.836199e-001 0.000000e+000
    outer loop
      vertex   -1.253589e+002 1.335437e+002 4.400000e+000
      vertex   -1.251807e+002 1.335110e+002 2.400000e+000
      vertex   -1.253589e+002 1.335437e+002 2.400000e+000
    endloop
  endfacet
  facet normal 2.975031e-001 9.547209e-001 0.000000e+000
    outer loop
      vertex   -1.255318e+002 1.335976e+002 4.400000e+000
      vertex   -1.253589e+002 1.335437e+002 2.400000e+000
      vertex   -1.255318e+002 1.335976e+002 2.400000e+000
    endloop
  endfacet
  facet normal 4.104128e-001 9.118998e-001 0.000000e+000
    outer loop
      vertex   -1.256970e+002 1.336719e+002 4.400000e+000
      vertex   -1.255318e+002 1.335976e+002 2.400000e+000
      vertex   -1.256970e+002 1.336719e+002 2.400000e+000
    endloop
  endfacet
  facet normal 5.173378e-001 8.557813e-001 0.000000e+000
    outer loop
      vertex   -1.258520e+002 1.337656e+002 4.400000e+000
      vertex   -1.256970e+002 1.336719e+002 2.400000e+000
      vertex   -1.258520e+002 1.337656e+002 2.400000e+000
    endloop
  endfacet
  facet normal 6.167189e-001 7.871835e-001 -4.386238e-015
    outer loop
      vertex   -1.259946e+002 1.338773e+002 4.400000e+000
      vertex   -1.258520e+002 1.337656e+002 2.400000e+000
      vertex   -1.259946e+002 1.338773e+002 2.400000e+000
    endloop
  endfacet
  facet normal 7.071068e-001 7.071068e-001 0.000000e+000
    outer loop
      vertex   -1.261226e+002 1.340054e+002 4.400000e+000
      vertex   -1.259946e+002 1.338773e+002 2.400000e+000
      vertex   -1.261226e+002 1.340054e+002 2.400000e+000
    endloop
  endfacet
  facet normal 7.871835e-001 6.167189e-001 0.000000e+000
    outer loop
      vertex   -1.262344e+002 1.341480e+002 4.400000e+000
      vertex   -1.261226e+002 1.340054e+002 2.400000e+000
      vertex   -1.262344e+002 1.341480e+002 2.400000e+000
    endloop
  endfacet
  facet normal 8.557813e-001 5.173378e-001 0.000000e+000
    outer loop
      vertex   -1.263281e+002 1.343030e+002 4.400000e+000
      vertex   -1.262344e+002 1.341480e+002 2.400000e+000
      vertex   -1.263281e+002 1.343030e+002 2.400000e+000
    endloop
  endfacet
  facet normal 9.118998e-001 4.104128e-001 0.000000e+000
    outer loop
      vertex   -1.264024e+002 1.344682e+002 4.400000e+000
      vertex   -1.263281e+002 1.343030e+002 2.400000e+000
      vertex   -1.264024e+002 1.344682e+002 2.400000e+000
    endloop
  endfacet
  facet normal 9.547209e-001 2.975031e-001 0.000000e+000
    outer loop
      vertex   -1.264563e+002 1.346411e+002 4.400000e+000
      vertex   -1.264024e+002 1.344682e+002 2.400000e+000
      vertex   -1.264563e+002 1.346411e+002 2.400000e+000
    endloop
  endfacet
  facet normal 9.836199e-001 1.802550e-001 0.000000e+000
    outer loop
      vertex   -1.264889e+002 1.348193e+002 4.400000e+000
      vertex   -1.264563e+002 1.346411e+002 2.400000e+000
      vertex   -1.264889e+002 1.348193e+002 2.400000e+000
    endloop
  endfacet
  facet normal 9.981756e-001 6.037850e-002 0.000000e+000
    outer loop
      vertex   -1.264999e+002 1.350001e+002 4.400000e+000
      vertex   -1.264889e+002 1.348193e+002 2.400000e+000
      vertex   -1.264999e+002 1.350001e+002 2.400000e+000
    endloop
  endfacet
  facet normal 9.981756e-001 -6.037850e-002 0.000000e+000
    outer loop
      vertex   -1.264889e+002 1.351809e+002 4.400000e+000
      vertex   -1.264999e+002 1.350001e+002 4.400000e+000
      vertex   -1.264999e+002 1.350001e+002 2.400000e+000
    endloop
  endfacet
  facet normal 9.118998e-001 -4.104128e-001 0.000000e+000
    outer loop
      vertex   -1.264024e+002 1.355320e+002 4.400000e+000
      vertex   -1.264024e+002 1.355320e+002 2.400000e+000
      vertex   -1.263281e+002 1.356972e+002 4.400000e+000
    endloop
  endfacet
  facet normal 8.557813e-001 -5.173378e-001 0.000000e+000
    outer loop
      vertex   -1.263281e+002 1.356972e+002 4.400000e+000
      vertex   -1.263281e+002 1.356972e+002 2.400000e+000
      vertex   -1.262344e+002 1.358522e+002 4.400000e+000
    endloop
  endfacet
  facet normal 7.871835e-001 -6.167189e-001 0.000000e+000
    outer loop
      vertex   -1.262344e+002 1.358522e+002 4.400000e+000
      vertex   -1.262344e+002 1.358522e+002 2.400000e+000
      vertex   -1.261226e+002 1.359948e+002 4.400000e+000
    endloop
  endfacet
  facet normal 7.071068e-001 -7.071068e-001 0.000000e+000
    outer loop
      vertex   -1.261226e+002 1.359948e+002 4.400000e+000
      vertex   -1.261226e+002 1.359948e+002 2.400000e+000
      vertex   -1.259946e+002 1.361228e+002 4.400000e+000
    endloop
  endfacet
  facet normal 6.167189e-001 -7.871835e-001 4.382051e-015
    outer loop
      vertex   -1.259946e+002 1.361228e+002 4.400000e+000
      vertex   -1.259946e+002 1.361228e+002 2.400000e+000
      vertex   -1.258520e+002 1.362346e+002 4.400000e+000
    endloop
  endfacet
  facet normal 5.173378e-001 -8.557813e-001 0.000000e+000
    outer loop
      vertex   -1.258520e+002 1.362346e+002 4.400000e+000
      vertex   -1.258520e+002 1.362346e+002 2.400000e+000
      vertex   -1.256970e+002 1.363283e+002 4.400000e+000
    endloop
  endfacet
  facet normal 4.104128e-001 -9.118998e-001 0.000000e+000
    outer loop
      vertex   -1.256970e+002 1.363283e+002 4.400000e+000
      vertex   -1.256970e+002 1.363283e+002 2.400000e+000
      vertex   -1.255318e+002 1.364026e+002 4.400000e+000
    endloop
  endfacet
  facet normal 2.975031e-001 -9.547209e-001 0.000000e+000
    outer loop
      vertex   -1.255318e+002 1.364026e+002 4.400000e+000
      vertex   -1.255318e+002 1.364026e+002 2.400000e+000
      vertex   -1.253589e+002 1.364565e+002 4.400000e+000
    endloop
  endfacet
  facet normal 1.802550e-001 -9.836199e-001 0.000000e+000
    outer loop
      vertex   -1.253589e+002 1.364565e+002 4.400000e+000
      vertex   -1.253589e+002 1.364565e+002 2.400000e+000
      vertex   -1.251807e+002 1.364891e+002 4.400000e+000
    endloop
  endfacet
  facet normal 6.037850e-002 -9.981756e-001 0.000000e+000
    outer loop
      vertex   -1.251807e+002 1.364891e+002 4.400000e+000
      vertex   -1.251807e+002 1.364891e+002 2.400000e+000
      vertex   -1.249999e+002 1.365001e+002 4.400000e+000
    endloop
  endfacet
  facet normal -6.037850e-002 -9.981756e-001 -0.000000e+000
    outer loop
      vertex   -1.249999e+002 1.365001e+002 4.400000e+000
      vertex   -1.249999e+002 1.365001e+002 2.400000e+000
      vertex   -1.248191e+002 1.364891e+002 4.400000e+000
    endloop
  endfacet
  facet normal -1.802550e-001 -9.836199e-001 -0.000000e+000
    outer loop
      vertex   -1.248191e+002 1.364891e+002 4.400000e+000
      vertex   -1.248191e+002 1.364891e+002 2.400000e+000
      vertex   -1.246409e+002 1.364565e+002 4.400000e+000
    endloop
  endfacet
  facet normal -2.975031e-001 -9.547209e-001 -0.000000e+000
    outer loop
      vertex   -1.246409e+002 1.364565e+002 4.400000e+000
      vertex   -1.246409e+002 1.364565e+002 2.400000e+000
      vertex   -1.244680e+002 1.364026e+002 4.400000e+000
    endloop
  endfacet
  facet normal -4.104128e-001 -9.118998e-001 -0.000000e+000
    outer loop
      vertex   -1.244680e+002 1.364026e+002 4.400000e+000
      vertex   -1.244680e+002 1.364026e+002 2.400000e+000
      vertex   -1.243028e+002 1.363283e+002 4.400000e+000
    endloop
  endfacet
  facet normal -5.173378e-001 -8.557813e-001 -0.000000e+000
    outer loop
      vertex   -1.243028e+002 1.363283e+002 4.400000e+000
      vertex   -1.243028e+002 1.363283e+002 2.400000e+000
      vertex   -1.241478e+002 1.362346e+002 4.400000e+000
    endloop
  endfacet
  facet normal -6.167189e-001 -7.871835e-001 -0.000000e+000
    outer loop
      vertex   -1.241478e+002 1.362346e+002 4.400000e+000
      vertex   -1.241478e+002 1.362346e+002 2.400000e+000
      vertex   -1.240052e+002 1.361228e+002 4.400000e+000
    endloop
  endfacet
  facet normal -7.071068e-001 -7.071068e-001 -0.000000e+000
    outer loop
      vertex   -1.240052e+002 1.361228e+002 4.400000e+000
      vertex   -1.240052e+002 1.361228e+002 2.400000e+000
      vertex   -1.238771e+002 1.359948e+002 4.400000e+000
    endloop
  endfacet
  facet normal -7.871835e-001 -6.167189e-001 -0.000000e+000
    outer loop
      vertex   -1.238771e+002 1.359948e+002 4.400000e+000
      vertex   -1.238771e+002 1.359948e+002 2.400000e+000
      vertex   -1.237654e+002 1.358522e+002 4.400000e+000
    endloop
  endfacet
  facet normal -8.557813e-001 -5.173378e-001 -0.000000e+000
    outer loop
      vertex   -1.237654e+002 1.358522e+002 4.400000e+000
      vertex   -1.237654e+002 1.358522e+002 2.400000e+000
      vertex   -1.236717e+002 1.356972e+002 4.400000e+000
    endloop
  endfacet
  facet normal -9.118998e-001 -4.104128e-001 -0.000000e+000
    outer loop
      vertex   -1.236717e+002 1.356972e+002 4.400000e+000
      vertex   -1.236717e+002 1.356972e+002 2.400000e+000
      vertex   -1.235974e+002 1.355320e+002 4.400000e+000
    endloop
  endfacet
  facet normal -9.547209e-001 -2.975031e-001 -0.000000e+000
    outer loop
      vertex   -1.235974e+002 1.355320e+002 4.400000e+000
      vertex   -1.235974e+002 1.355320e+002 2.400000e+000
      vertex   -1.235435e+002 1.353591e+002 4.400000e+000
    endloop
  endfacet
  facet normal -9.836199e-001 -1.802550e-001 -0.000000e+000
    outer loop
      vertex   -1.235435e+002 1.353591e+002 4.400000e+000
      vertex   -1.235435e+002 1.353591e+002 2.400000e+000
      vertex   -1.235108e+002 1.351809e+002 4.400000e+000
    endloop
  endfacet
  facet normal -9.981756e-001 -6.037850e-002 -0.000000e+000
    outer loop
      vertex   -1.235108e+002 1.351809e+002 4.400000e+000
      vertex   -1.235108e+002 1.351809e+002 2.400000e+000
      vertex   -1.234999e+002 1.350001e+002 4.400000e+000
    endloop
  endfacet
  facet normal -9.981756e-001 6.037850e-002 0.000000e+000
    outer loop
      vertex   -1.234999e+002 1.350001e+002 4.400000e+000
      vertex   -1.234999e+002 1.350001e+002 2.400000e+000
      vertex   -1.235108e+002 1.348193e+002 4.400000e+000
    endloop
  endfacet
  facet normal -9.836199e-001 1.802550e-001 0.000000e+000
    outer loop
      vertex   -1.235108e+002 1.348193e+002 4.400000e+000
      vertex   -1.235108e+002 1.348193e+002 2.400000e+000
      vertex   -1.235435e+002 1.346411e+002 4.400000e+000
    endloop
  endfacet
  facet normal -9.547209e-001 2.975031e-001 0.000000e+000
    outer loop
      vertex   -1.235435e+002 1.346411e+002 4.400000e+000
      vertex   -1.235435e+002 1.346411e+002 2.400000e+000
      vertex   -1.235974e+002 1.344682e+002 4.400000e+000
    endloop
  endfacet
  facet normal -9.118998e-001 4.104128e-001 0.000000e+000
    outer loop
      vertex   -1.235974e+002 1.344682e+002 4.400000e+000
      vertex   -1.235974e+002 1.344682e+002 2.400000e+000
      vertex   -1.236717e+002 1.343030e+002 4.400000e+000
    endloop
  endfacet
  facet normal -8.557813e-001 5.173378e-001 0.000000e+000
    outer loop
      vertex   -1.236717e+002 1.343030e+002 4.400000e+000
      vertex   -1.236717e+002 1.343030e+002 2.400000e+000
      vertex   -1.237654e+002 1.341480e+002 4.400000e+000
    endloop
  endfacet
  facet normal -7.871835e-001 6.167189e-001 0.000000e+000
    outer loop
      vertex   -1.237654e+002 1.341480e+002 4.400000e+000
      vertex   -1.237654e+002 1.341480e+002 2.400000e+000
      vertex   -1.238771e+002 1.340054e+002 4.400000e+000
    endloop
  endfacet
  facet normal -7.071068e-001 7.071068e-001 0.000000e+000
    outer loop
      vertex   -1.238771e+002 1.340054e+002 4.400000e+000
      vertex   -1.238771e+002 1.340054e+002 2.400000e+000
      vertex   -1.240052e+002 1.338773e+002 4.400000e+000
    endloop
  endfacet
  facet normal -6.167189e-001 7.871835e-001 0.000000e+000
    outer loop
      vertex   -1.240052e+002 1.338773e+002 4.400000e+000
      vertex   -1.240052e+002 1.338773e+002 2.400000e+000
      vertex   -1.241478e+002 1.337656e+002 4.400000e+000
    endloop
  endfacet
  facet normal -5.173378e-001 8.557813e-001 0.000000e+000
    outer loop
      vertex   -1.241478e+002 1.337656e+002 4.400000e+000
      vertex   -1.241478e+002 1.337656e+002 2.400000e+000
      vertex   -1.243028e+002 1.336719e+002 4.400000e+000
    endloop
  endfacet
  facet normal -4.104128e-001 9.118998e-001 0.000000e+000
    outer loop
      vertex   -1.243028e+002 1.336719e+002 4.400000e+000
      vertex   -1.243028e+002 1.336719e+002 2.400000e+000
      vertex   -1.244680e+002 1.335976e+002 4.400000e+000
    endloop
  endfacet
  facet normal -2.975031e-001 9.547209e-001 0.000000e+000
    outer loop
      vertex   -1.244680e+002 1.335976e+002 4.400000e+000
      vertex   -1.244680e+002 1.335976e+002 2.400000e+000
      vertex   -1.246409e+002 1.335437e+002 4.400000e+000
    endloop
  endfacet
  facet normal -1.802550e-001 9.836199e-001 0.000000e+000
    outer loop
      vertex   -1.246409e+002 1.335437e+002 4.400000e+000
      vertex   -1.246409e+002 1.335437e+002 2.400000e+000
      vertex   -1.248191e+002 1.335110e+002 4.400000e+000
    endloop
  endfacet
  facet normal -6.037850e-002 9.981756e-001 0.000000e+000
    outer loop
      vertex   -1.248191e+002 1.335110e+002 4.400000e+000
      vertex   -1.248191e+002 1.335110e+002 2.400000e+000
      vertex   -1.249999e+002 1.335001e+002 4.400000e+000
    endloop
  endfacet
  facet normal 6.037850e-002 9.981756e-001 0.000000e+000
    outer loop
      vertex   -1.249999e+002 1.335001e+002 4.400000e+000
      vertex   -1.249999e+002 1.335001e+002 2.400000e+000
      vertex   -1.251807e+002 1.335110e+002 4.400000e+000
    endloop
  endfacet
  facet normal 1.802550e-001 9.836199e-001 0.000000e+000
    outer loop
      vertex   -1.251807e+002 1.335110e+002 4.400000e+000
      vertex   -1.251807e+002 1.335110e+002 2.400000e+000
      vertex   -1.253589e+002 1.335437e+002 4.400000e+000
    endloop
  endfacet
  facet normal 2.975031e-001 9.547209e-001 0.000000e+000
    outer loop
      vertex   -1.253589e+002 1.335437e+002 4.400000e+000
      vertex   -1.253589e+002 1.335437e+002 2.400000e+000
      vertex   -1.255318e+002 1.335976e+002 4.400000e+000
    endloop
  endfacet
  facet normal 4.104128e-001 9.118998e-001 0.000000e+000
    outer loop
      vertex   -1.255318e+002 1.335976e+002 4.400000e+000
      vertex   -1.255318e+002 1.335976e+002 2.400000e+000
      vertex   -1.256970e+002 1.336719e+002 4.400000e+000
    endloop
  endfacet
  facet normal 5.173378e-001 8.557813e-001 0.000000e+000
    outer loop
      vertex   -1.256970e+002 1.336719e+002 4.400000e+000
      vertex   -1.256970e+002 1.336719e+002 2.400000e+000
      vertex   -1.258520e+002 1.337656e+002 4.400000e+000
    endloop
  endfacet
  facet normal 6.167189e-001 7.871835e-001 0.000000e+000
    outer loop
      vertex   -1.258520e+002 1.337656e+002 4.400000e+000
      vertex   -1.258520e+002 1.337656e+002 2.400000e+000
      vertex   -1.259946e+002 1.338773e+002 4.400000e+000
    endloop
  endfacet
  facet normal 7.071068e-001 7.071068e-001 -5.024296e-015
    outer loop
      vertex   -1.259946e+002 1.338773e+002 4.400000e+000
      vertex   -1.259946e+002 1.338773e+002 2.400000e+000
      vertex   -1.261226e+002 1.340054e+002 4.400000e+000
    endloop
  endfacet
  facet normal 7.871835e-001 6.167189e-001 0.000000e+000
    outer loop
      vertex   -1.261226e+002 1.340054e+002 4.400000e+000
      vertex   -1.261226e+002 1.340054e+002 2.400000e+000
      vertex   -1.262344e+002 1.341480e+002 4.400000e+000
    endloop
  endfacet
  facet normal 8.557813e-001 5.173378e-001 0.000000e+000
    outer loop
      vertex   -1.262344e+002 1.341480e+002 4.400000e+000
      vertex   -1.262344e+002 1.341480e+002 2.400000e+000
      vertex   -1.263281e+002 1.343030e+002 4.400000e+000
    endloop
  endfacet
  facet normal 9.118998e-001 4.104128e-001 0.000000e+000
    outer loop
      vertex   -1.263281e+002 1.343030e+002 4.400000e+000
      vertex   -1.263281e+002 1.343030e+002 2.400000e+000
      vertex   -1.264024e+002 1.344682e+002 4.400000e+000
    endloop
  endfacet
  facet normal 9.547209e-001 2.975031e-001 0.000000e+000
    outer loop
      vertex   -1.264024e+002 1.344682e+002 4.400000e+000
      vertex   -1.264024e+002 1.344682e+002 2.400000e+000
      vertex   -1.264563e+002 1.346411e+002 4.400000e+000
    endloop
  endfacet
  facet normal 9.836199e-001 1.802550e-001 0.000000e+000
    outer loop
      vertex   -1.264563e+002 1.346411e+002 4.400000e+000
      vertex   -1.264563e+002 1.346411e+002 2.400000e+000
      vertex   -1.264889e+002 1.348193e+002 4.400000e+000
    endloop
  endfacet
  facet normal 9.981756e-001 6.037850e-002 0.000000e+000
    outer loop
      vertex   -1.264889e+002 1.348193e+002 4.400000e+000
      vertex   -1.264889e+002 1.348193e+002 2.400000e+000
      vertex   -1.264999e+002 1.350001e+002 4.400000e+000
    endloop
  endfacet
  facet normal -3.826834e-001 -9.238795e-001 0.000000e+000
    outer loop
      vertex   -1.192499e+002 1.342850e+002 4.399998e+000
      vertex   -1.192499e+002 1.342850e+002 9.400000e+000
      vertex   -1.212499e+002 1.351135e+002 4.400000e+000
    endloop
  endfacet
  facet normal -3.826834e-001 -9.238795e-001 1.087255e-015
    outer loop
      vertex   -1.212499e+002 1.351135e+002 4.400000e+000
      vertex   -1.192499e+002 1.342850e+002 9.400000e+000
      vertex   -1.212499e+002 1.351135e+002 9.400000e+000
    endloop
  endfacet
  facet normal 0.000000e+000 -0.000000e+000 1.000000e+000
    outer loop
      vertex   -1.307499e+002 1.342850e+002 9.400000e+000
      vertex   -1.287499e+002 1.351135e+002 9.400000e+000
      vertex   -1.307499e+002 1.405001e+002 9.400000e+000
    endloop
  endfacet
  facet normal -0.000000e+000 0.000000e+000 1.000000e+000
    outer loop
      vertex   -1.307499e+002 1.405001e+002 9.400000e+000
      vertex   -1.287499e+002 1.351135e+002 9.400000e+000
      vertex   -1.287499e+002 1.405001e+002 9.400000e+000
    endloop
  endfacet
  facet normal -1.000000e+000 0.000000e+000 -0.000000e+000
    outer loop
      vertex   -1.307499e+002 1.342850e+002 9.400000e+000
      vertex   -1.307499e+002 1.405001e+002 9.400000e+000
      vertex   -1.307499e+002 1.342850e+002 4.399998e+000
    endloop
  endfacet
  facet normal -1.000000e+000 0.000000e+000 0.000000e+000
    outer loop
      vertex   -1.307499e+002 1.342850e+002 4.399998e+000
      vertex   -1.307499e+002 1.405001e+002 9.400000e+000
      vertex   -1.307499e+002 1.405001e+002 2.400000e+000
    endloop
  endfacet
  facet normal -1.000000e+000 0.000000e+000 0.000000e+000
    outer loop
      vertex   -1.307499e+002 1.320001e+002 2.400000e+000
      vertex   -1.307499e+002 1.342850e+002 4.399998e+000
      vertex   -1.307499e+002 1.405001e+002 2.400000e+000
    endloop
  endfacet
  facet normal -1.000000e+000 0.000000e+000 0.000000e+000
    outer loop
      vertex   -1.307499e+002 1.320001e+002 2.400000e+000
      vertex   -1.307499e+002 1.320001e+002 4.399998e+000
      vertex   -1.307499e+002 1.342850e+002 4.399998e+000
    endloop
  endfacet
  facet normal 3.826834e-001 -9.238795e-001 0.000000e+000
    outer loop
      vertex   -1.287499e+002 1.351135e+002 9.400000e+000
      vertex   -1.307499e+002 1.342850e+002 9.400000e+000
      vertex   -1.287499e+002 1.351135e+002 4.400000e+000
    endloop
  endfacet
  facet normal 3.826834e-001 -9.238795e-001 0.000000e+000
    outer loop
      vertex   -1.287499e+002 1.351135e+002 4.400000e+000
      vertex   -1.307499e+002 1.342850e+002 9.400000e+000
      vertex   -1.307499e+002 1.342850e+002 4.399998e+000
    endloop
  endfacet
  facet normal 1.000000e+000 -0.000000e+000 0.000000e+000
    outer loop
      vertex   -1.287499e+002 1.351135e+002 9.400000e+000
      vertex   -1.287499e+002 1.351135e+002 4.400000e+000
      vertex   -1.287499e+002 1.405001e+002 9.400000e+000
    endloop
  endfacet
  facet normal 1.000000e+000 -0.000000e+000 0.000000e+000
    outer loop
      vertex   -1.287499e+002 1.405001e+002 9.400000e+000
      vertex   -1.287499e+002 1.351135e+002 4.400000e+000
      vertex   -1.287499e+002 1.405001e+002 4.400000e+000
    endloop
  endfacet
  facet normal 0.000000e+000 1.000000e+000 0.000000e+000
    outer loop
      vertex   -1.192499e+002 1.405001e+002 9.400000e+000
      vertex   -1.192499e+002 1.405001e+002 2.400000e+000
      vertex   -1.212499e+002 1.405001e+002 4.400000e+000
    endloop
  endfacet
  facet normal -0.000000e+000 1.000000e+000 0.000000e+000
    outer loop
      vertex   -1.212499e+002 1.405001e+002 9.400000e+000
      vertex   -1.192499e+002 1.405001e+002 9.400000e+000
      vertex   -1.212499e+002 1.405001e+002 4.400000e+000
    endloop
  endfacet
  facet normal 0.000000e+000 1.000000e+000 0.000000e+000
    outer loop
      vertex   -1.307499e+002 1.405001e+002 9.400000e+000
      vertex   -1.287499e+002 1.405001e+002 4.400000e+000
      vertex   -1.307499e+002 1.405001e+002 2.400000e+000
    endloop
  endfacet
  facet normal -0.000000e+000 1.000000e+000 0.000000e+000
    outer loop
      vertex   -1.307499e+002 1.405001e+002 9.400000e+000
      vertex   -1.287499e+002 1.405001e+002 9.400000e+000
      vertex   -1.287499e+002 1.405001e+002 4.400000e+000
    endloop
  endfacet
  facet normal -0.000000e+000 1.000000e+000 0.000000e+000
    outer loop
      vertex   -1.287499e+002 1.405001e+002 4.400000e+000
      vertex   -1.212499e+002 1.405001e+002 4.400000e+000
      vertex   -1.307499e+002 1.405001e+002 2.400000e+000
    endloop
  endfacet
  facet normal -0.000000e+000 1.000000e+000 0.000000e+000
    outer loop
      vertex   -1.307499e+002 1.405001e+002 2.400000e+000
      vertex   -1.212499e+002 1.405001e+002 4.400000e+000
      vertex   -1.192499e+002 1.405001e+002 2.400000e+000
    endloop
  endfacet
  facet normal -2.183043e-015 1.320498e-016 -1.000000e+000
    outer loop
      vertex   -1.264889e+002 1.351809e+002 2.400000e+000
      vertex   -1.264999e+002 1.350001e+002 2.400000e+000
      vertex   -1.307499e+002 1.320001e+002 2.400000e+000
    endloop
  endfacet
  facet normal -2.068616e-015 0.000000e+000 -1.000000e+000
    outer loop
      vertex   -1.264563e+002 1.353591e+002 2.400000e+000
      vertex   -1.307499e+002 1.320001e+002 2.400000e+000
      vertex   -1.307499e+002 1.405001e+002 2.400000e+000
    endloop
  endfacet
  facet normal -1.349111e-015 6.071858e-016 -1.000000e+000
    outer loop
      vertex   -1.264024e+002 1.355320e+002 2.400000e+000
      vertex   -1.307499e+002 1.405001e+002 2.400000e+000
      vertex   -1.263281e+002 1.356972e+002 2.400000e+000
    endloop
  endfacet
  facet normal -1.506512e-015 4.694480e-016 -1.000000e+000
    outer loop
      vertex   -1.264024e+002 1.355320e+002 2.400000e+000
      vertex   -1.264563e+002 1.353591e+002 2.400000e+000
      vertex   -1.307499e+002 1.405001e+002 2.400000e+000
    endloop
  endfacet
  facet normal -2.004254e-015 -1.212350e-016 -1.000000e+000
    outer loop
      vertex   -1.264999e+002 1.350001e+002 2.400000e+000
      vertex   -1.264889e+002 1.348193e+002 2.400000e+000
      vertex   -1.307499e+002 1.320001e+002 2.400000e+000
    endloop
  endfacet
  facet normal -1.859058e-015 -3.406850e-016 -1.000000e+000
    outer loop
      vertex   -1.307499e+002 1.320001e+002 2.400000e+000
      vertex   -1.264889e+002 1.348193e+002 2.400000e+000
      vertex   -1.264563e+002 1.346411e+002 2.400000e+000
    endloop
  endfacet
  facet normal -1.735888e-015 -5.409247e-016 -1.000000e+000
    outer loop
      vertex   -1.264024e+002 1.344682e+002 2.400000e+000
      vertex   -1.307499e+002 1.320001e+002 2.400000e+000
      vertex   -1.264563e+002 1.346411e+002 2.400000e+000
    endloop
  endfacet
  facet normal -1.627215e-015 -7.323499e-016 -1.000000e+000
    outer loop
      vertex   -1.264024e+002 1.344682e+002 2.400000e+000
      vertex   -1.263281e+002 1.343030e+002 2.400000e+000
      vertex   -1.307499e+002 1.320001e+002 2.400000e+000
    endloop
  endfacet
  facet normal -1.527661e-015 -9.235031e-016 -1.000000e+000
    outer loop
      vertex   -1.307499e+002 1.320001e+002 2.400000e+000
      vertex   -1.263281e+002 1.343030e+002 2.400000e+000
      vertex   -1.262344e+002 1.341480e+002 2.400000e+000
    endloop
  endfacet
  facet normal -1.432939e-015 -1.122636e-015 -1.000000e+000
    outer loop
      vertex   -1.261226e+002 1.340054e+002 2.400000e+000
      vertex   -1.307499e+002 1.320001e+002 2.400000e+000
      vertex   -1.262344e+002 1.341480e+002 2.400000e+000
    endloop
  endfacet
  facet normal -1.339121e-015 -1.339121e-015 -1.000000e+000
    outer loop
      vertex   -1.261226e+002 1.340054e+002 2.400000e+000
      vertex   -1.259946e+002 1.338773e+002 2.400000e+000
      vertex   -1.307499e+002 1.320001e+002 2.400000e+000
    endloop
  endfacet
  facet normal -1.241960e-015 -1.585244e-015 -1.000000e+000
    outer loop
      vertex   -1.307499e+002 1.320001e+002 2.400000e+000
      vertex   -1.259946e+002 1.338773e+002 2.400000e+000
      vertex   -1.258520e+002 1.337656e+002 2.400000e+000
    endloop
  endfacet
  facet normal -1.136005e-015 -1.879182e-015 -1.000000e+000
    outer loop
      vertex   -1.256970e+002 1.336719e+002 2.400000e+000
      vertex   -1.307499e+002 1.320001e+002 2.400000e+000
      vertex   -1.258520e+002 1.337656e+002 2.400000e+000
    endloop
  endfacet
  facet normal -1.013031e-015 -2.250862e-015 -1.000000e+000
    outer loop
      vertex   -1.256970e+002 1.336719e+002 2.400000e+000
      vertex   -1.255318e+002 1.335976e+002 2.400000e+000
      vertex   -1.307499e+002 1.320001e+002 2.400000e+000
    endloop
  endfacet
  facet normal -8.585937e-016 -2.755324e-015 -1.000000e+000
    outer loop
      vertex   -1.307499e+002 1.320001e+002 2.400000e+000
      vertex   -1.255318e+002 1.335976e+002 2.400000e+000
      vertex   -1.253589e+002 1.335437e+002 2.400000e+000
    endloop
  endfacet
  facet normal -6.429502e-016 -3.508466e-015 -1.000000e+000
    outer loop
      vertex   -1.251807e+002 1.335110e+002 2.400000e+000
      vertex   -1.307499e+002 1.320001e+002 2.400000e+000
      vertex   -1.253589e+002 1.335437e+002 2.400000e+000
    endloop
  endfacet
  facet normal -2.907489e-016 -4.806652e-015 -1.000000e+000
    outer loop
      vertex   -1.251807e+002 1.335110e+002 2.400000e+000
      vertex   -1.249999e+002 1.335001e+002 2.400000e+000
      vertex   -1.307499e+002 1.320001e+002 2.400000e+000
    endloop
  endfacet
  facet normal 0.000000e+000 -5.921189e-015 -1.000000e+000
    outer loop
      vertex   -1.307499e+002 1.320001e+002 2.400000e+000
      vertex   -1.249999e+002 1.335001e+002 2.400000e+000
      vertex   -1.192499e+002 1.320001e+002 2.400000e+000
    endloop
  endfacet
  facet normal 2.907489e-016 -4.806652e-015 -1.000000e+000
    outer loop
      vertex   -1.192499e+002 1.320001e+002 2.400000e+000
      vertex   -1.249999e+002 1.335001e+002 2.400000e+000
      vertex   -1.248191e+002 1.335110e+002 2.400000e+000
    endloop
  endfacet
  facet normal 6.429502e-016 -3.508466e-015 -1.000000e+000
    outer loop
      vertex   -1.246409e+002 1.335437e+002 2.400000e+000
      vertex   -1.192499e+002 1.320001e+002 2.400000e+000
      vertex   -1.248191e+002 1.335110e+002 2.400000e+000
    endloop
  endfacet
  facet normal 8.585937e-016 -2.755324e-015 -1.000000e+000
    outer loop
      vertex   -1.246409e+002 1.335437e+002 2.400000e+000
      vertex   -1.244680e+002 1.335976e+002 2.400000e+000
      vertex   -1.192499e+002 1.320001e+002 2.400000e+000
    endloop
  endfacet
  facet normal 1.013031e-015 -2.250862e-015 -1.000000e+000
    outer loop
      vertex   -1.192499e+002 1.320001e+002 2.400000e+000
      vertex   -1.244680e+002 1.335976e+002 2.400000e+000
      vertex   -1.243028e+002 1.336719e+002 2.400000e+000
    endloop
  endfacet
  facet normal 1.136005e-015 -1.879182e-015 -1.000000e+000
    outer loop
      vertex   -1.241478e+002 1.337656e+002 2.400000e+000
      vertex   -1.192499e+002 1.320001e+002 2.400000e+000
      vertex   -1.243028e+002 1.336719e+002 2.400000e+000
    endloop
  endfacet
  facet normal 1.241960e-015 -1.585244e-015 -1.000000e+000
    outer loop
      vertex   -1.241478e+002 1.337656e+002 2.400000e+000
      vertex   -1.240052e+002 1.338773e+002 2.400000e+000
      vertex   -1.192499e+002 1.320001e+002 2.400000e+000
    endloop
  endfacet
  facet normal 1.339121e-015 -1.339121e-015 -1.000000e+000
    outer loop
      vertex   -1.192499e+002 1.320001e+002 2.400000e+000
      vertex   -1.240052e+002 1.338773e+002 2.400000e+000
      vertex   -1.238771e+002 1.340054e+002 2.400000e+000
    endloop
  endfacet
  facet normal 1.432939e-015 -1.122636e-015 -1.000000e+000
    outer loop
      vertex   -1.237654e+002 1.341480e+002 2.400000e+000
      vertex   -1.192499e+002 1.320001e+002 2.400000e+000
      vertex   -1.238771e+002 1.340054e+002 2.400000e+000
    endloop
  endfacet
  facet normal 1.527661e-015 -9.235031e-016 -1.000000e+000
    outer loop
      vertex   -1.237654e+002 1.341480e+002 2.400000e+000
      vertex   -1.236717e+002 1.343030e+002 2.400000e+000
      vertex   -1.192499e+002 1.320001e+002 2.400000e+000
    endloop
  endfacet
  facet normal 1.627215e-015 -7.323499e-016 -1.000000e+000
    outer loop
      vertex   -1.192499e+002 1.320001e+002 2.400000e+000
      vertex   -1.236717e+002 1.343030e+002 2.400000e+000
      vertex   -1.235974e+002 1.344682e+002 2.400000e+000
    endloop
  endfacet
  facet normal 1.735888e-015 -5.409247e-016 -1.000000e+000
    outer loop
      vertex   -1.235435e+002 1.346411e+002 2.400000e+000
      vertex   -1.192499e+002 1.320001e+002 2.400000e+000
      vertex   -1.235974e+002 1.344682e+002 2.400000e+000
    endloop
  endfacet
  facet normal 1.859058e-015 -3.406850e-016 -1.000000e+000
    outer loop
      vertex   -1.235435e+002 1.346411e+002 2.400000e+000
      vertex   -1.235108e+002 1.348193e+002 2.400000e+000
      vertex   -1.192499e+002 1.320001e+002 2.400000e+000
    endloop
  endfacet
  facet normal 2.004254e-015 -1.212350e-016 -1.000000e+000
    outer loop
      vertex   -1.192499e+002 1.320001e+002 2.400000e+000
      vertex   -1.235108e+002 1.348193e+002 2.400000e+000
      vertex   -1.234999e+002 1.350001e+002 2.400000e+000
    endloop
  endfacet
  facet normal 2.183043e-015 1.320498e-016 -1.000000e+000
    outer loop
      vertex   -1.235108e+002 1.351809e+002 2.400000e+000
      vertex   -1.192499e+002 1.320001e+002 2.400000e+000
      vertex   -1.234999e+002 1.350001e+002 2.400000e+000
    endloop
  endfacet
  facet normal 2.414819e-015 4.425321e-016 -1.000000e+000
    outer loop
      vertex   -1.235108e+002 1.351809e+002 2.400000e+000
      vertex   -1.235435e+002 1.353591e+002 2.400000e+000
      vertex   -1.192499e+002 1.320001e+002 2.400000e+000
    endloop
  endfacet
  facet normal 2.068616e-015 0.000000e+000 -1.000000e+000
    outer loop
      vertex   -1.192499e+002 1.320001e+002 2.400000e+000
      vertex   -1.235435e+002 1.353591e+002 2.400000e+000
      vertex   -1.192499e+002 1.405001e+002 2.400000e+000
    endloop
  endfacet
  facet normal 1.506512e-015 4.694480e-016 -1.000000e+000
    outer loop
      vertex   -1.192499e+002 1.405001e+002 2.400000e+000
      vertex   -1.235435e+002 1.353591e+002 2.400000e+000
      vertex   -1.235974e+002 1.355320e+002 2.400000e+000
    endloop
  endfacet
  facet normal 1.349111e-015 6.071858e-016 -1.000000e+000
    outer loop
      vertex   -1.236717e+002 1.356972e+002 2.400000e+000
      vertex   -1.192499e+002 1.405001e+002 2.400000e+000
      vertex   -1.235974e+002 1.355320e+002 2.400000e+000
    endloop
  endfacet
  facet normal 1.212484e-015 7.329721e-016 -1.000000e+000
    outer loop
      vertex   -1.236717e+002 1.356972e+002 2.400000e+000
      vertex   -1.237654e+002 1.358522e+002 2.400000e+000
      vertex   -1.192499e+002 1.405001e+002 2.400000e+000
    endloop
  endfacet
  facet normal 1.088864e-015 8.530708e-016 -1.000000e+000
    outer loop
      vertex   -1.192499e+002 1.405001e+002 2.400000e+000
      vertex   -1.237654e+002 1.358522e+002 2.400000e+000
      vertex   -1.238771e+002 1.359948e+002 2.400000e+000
    endloop
  endfacet
  facet normal 9.725415e-016 9.725415e-016 -1.000000e+000
    outer loop
      vertex   -1.240052e+002 1.361228e+002 2.400000e+000
      vertex   -1.192499e+002 1.405001e+002 2.400000e+000
      vertex   -1.238771e+002 1.359948e+002 2.400000e+000
    endloop
  endfacet
  facet normal 8.587705e-016 1.096140e-015 -1.000000e+000
    outer loop
      vertex   -1.240052e+002 1.361228e+002 2.400000e+000
      vertex   -1.241478e+002 1.362346e+002 2.400000e+000
      vertex   -1.192499e+002 1.405001e+002 2.400000e+000
    endloop
  endfacet
  facet normal 7.430005e-016 1.229073e-015 -1.000000e+000
    outer loop
      vertex   -1.192499e+002 1.405001e+002 2.400000e+000
      vertex   -1.241478e+002 1.362346e+002 2.400000e+000
      vertex   -1.243028e+002 1.363283e+002 2.400000e+000
    endloop
  endfacet
  facet normal 6.201363e-016 1.377886e-015 -1.000000e+000
    outer loop
      vertex   -1.244680e+002 1.364026e+002 2.400000e+000
      vertex   -1.192499e+002 1.405001e+002 2.400000e+000
      vertex   -1.243028e+002 1.363283e+002 2.400000e+000
    endloop
  endfacet
  facet normal 4.835636e-016 1.551810e-015 -1.000000e+000
    outer loop
      vertex   -1.244680e+002 1.364026e+002 2.400000e+000
      vertex   -1.246409e+002 1.364565e+002 2.400000e+000
      vertex   -1.192499e+002 1.405001e+002 2.400000e+000
    endloop
  endfacet
  facet normal 3.234896e-016 1.765225e-015 -1.000000e+000
    outer loop
      vertex   -1.192499e+002 1.405001e+002 2.400000e+000
      vertex   -1.246409e+002 1.364565e+002 2.400000e+000
      vertex   -1.248191e+002 1.364891e+002 2.400000e+000
    endloop
  endfacet
  facet normal 1.235677e-016 2.042817e-015 -1.000000e+000
    outer loop
      vertex   -1.249999e+002 1.365001e+002 2.400000e+000
      vertex   -1.192499e+002 1.405001e+002 2.400000e+000
      vertex   -1.248191e+002 1.364891e+002 2.400000e+000
    endloop
  endfacet
  facet normal 0.000000e+000 2.220446e-015 -1.000000e+000
    outer loop
      vertex   -1.249999e+002 1.365001e+002 2.400000e+000
      vertex   -1.307499e+002 1.405001e+002 2.400000e+000
      vertex   -1.192499e+002 1.405001e+002 2.400000e+000
    endloop
  endfacet
  facet normal -1.235677e-016 2.042817e-015 -1.000000e+000
    outer loop
      vertex   -1.249999e+002 1.365001e+002 2.400000e+000
      vertex   -1.251807e+002 1.364891e+002 2.400000e+000
      vertex   -1.307499e+002 1.405001e+002 2.400000e+000
    endloop
  endfacet
  facet normal -3.234896e-016 1.765225e-015 -1.000000e+000
    outer loop
      vertex   -1.307499e+002 1.405001e+002 2.400000e+000
      vertex   -1.251807e+002 1.364891e+002 2.400000e+000
      vertex   -1.253589e+002 1.364565e+002 2.400000e+000
    endloop
  endfacet
  facet normal -4.835636e-016 1.551810e-015 -1.000000e+000
    outer loop
      vertex   -1.255318e+002 1.364026e+002 2.400000e+000
      vertex   -1.307499e+002 1.405001e+002 2.400000e+000
      vertex   -1.253589e+002 1.364565e+002 2.400000e+000
    endloop
  endfacet
  facet normal -6.201363e-016 1.377886e-015 -1.000000e+000
    outer loop
      vertex   -1.255318e+002 1.364026e+002 2.400000e+000
      vertex   -1.256970e+002 1.363283e+002 2.400000e+000
      vertex   -1.307499e+002 1.405001e+002 2.400000e+000
    endloop
  endfacet
  facet normal -7.430005e-016 1.229073e-015 -1.000000e+000
    outer loop
      vertex   -1.307499e+002 1.405001e+002 2.400000e+000
      vertex   -1.256970e+002 1.363283e+002 2.400000e+000
      vertex   -1.258520e+002 1.362346e+002 2.400000e+000
    endloop
  endfacet
  facet normal -8.587705e-016 1.096140e-015 -1.000000e+000
    outer loop
      vertex   -1.259946e+002 1.361228e+002 2.400000e+000
      vertex   -1.307499e+002 1.405001e+002 2.400000e+000
      vertex   -1.258520e+002 1.362346e+002 2.400000e+000
    endloop
  endfacet
  facet normal -9.725415e-016 9.725415e-016 -1.000000e+000
    outer loop
      vertex   -1.259946e+002 1.361228e+002 2.400000e+000
      vertex   -1.261226e+002 1.359948e+002 2.400000e+000
      vertex   -1.307499e+002 1.405001e+002 2.400000e+000
    endloop
  endfacet
  facet normal -1.088864e-015 8.530708e-016 -1.000000e+000
    outer loop
      vertex   -1.307499e+002 1.405001e+002 2.400000e+000
      vertex   -1.261226e+002 1.359948e+002 2.400000e+000
      vertex   -1.262344e+002 1.358522e+002 2.400000e+000
    endloop
  endfacet
  facet normal -1.212484e-015 7.329721e-016 -1.000000e+000
    outer loop
      vertex   -1.263281e+002 1.356972e+002 2.400000e+000
      vertex   -1.307499e+002 1.405001e+002 2.400000e+000
      vertex   -1.262344e+002 1.358522e+002 2.400000e+000
    endloop
  endfacet
  facet normal -2.414819e-015 4.425321e-016 -1.000000e+000
    outer loop
      vertex   -1.264563e+002 1.353591e+002 2.400000e+000
      vertex   -1.264889e+002 1.351809e+002 2.400000e+000
      vertex   -1.307499e+002 1.320001e+002 2.400000e+000
    endloop
  endfacet
  facet normal 0.000000e+000 -1.000000e+000 0.000000e+000
    outer loop
      vertex   -1.307499e+002 1.320001e+002 4.399998e+000
      vertex   -1.307499e+002 1.320001e+002 2.400000e+000
      vertex   -1.192499e+002 1.320001e+002 4.399998e+000
    endloop
  endfacet
  facet normal 0.000000e+000 -1.000000e+000 -0.000000e+000
    outer loop
      vertex   -1.192499e+002 1.320001e+002 4.399998e+000
      vertex   -1.307499e+002 1.320001e+002 2.400000e+000
      vertex   -1.192499e+002 1.320001e+002 2.400000e+000
    endloop
  endfacet
  facet normal 0.000000e+000 0.000000e+000 1.000000e+000
    outer loop
      vertex   -1.264889e+002 1.348193e+002 4.400000e+000
      vertex   -1.264999e+002 1.350001e+002 4.400000e+000
      vertex   -1.287499e+002 1.351135e+002 4.400000e+000
    endloop
  endfacet
  facet normal 0.000000e+000 0.000000e+000 1.000000e+000
    outer loop
      vertex   -1.264563e+002 1.346411e+002 4.400000e+000
      vertex   -1.287499e+002 1.351135e+002 4.400000e+000
      vertex   -1.264024e+002 1.344682e+002 4.400000e+000
    endloop
  endfacet
  facet normal 0.000000e+000 0.000000e+000 1.000000e+000
    outer loop
      vertex   -1.264563e+002 1.346411e+002 4.400000e+000
      vertex   -1.264889e+002 1.348193e+002 4.400000e+000
      vertex   -1.287499e+002 1.351135e+002 4.400000e+000
    endloop
  endfacet
  facet normal 0.000000e+000 -0.000000e+000 1.000000e+000
    outer loop
      vertex   -1.264999e+002 1.350001e+002 4.400000e+000
      vertex   -1.264889e+002 1.351809e+002 4.400000e+000
      vertex   -1.287499e+002 1.351135e+002 4.400000e+000
    endloop
  endfacet
  facet normal 0.000000e+000 0.000000e+000 1.000000e+000
    outer loop
      vertex   -1.287499e+002 1.351135e+002 4.400000e+000
      vertex   -1.264889e+002 1.351809e+002 4.400000e+000
      vertex   -1.264563e+002 1.353591e+002 4.400000e+000
    endloop
  endfacet
  facet normal -0.000000e+000 0.000000e+000 1.000000e+000
    outer loop
      vertex   -1.264024e+002 1.355320e+002 4.400000e+000
      vertex   -1.287499e+002 1.351135e+002 4.400000e+000
      vertex   -1.264563e+002 1.353591e+002 4.400000e+000
    endloop
  endfacet
  facet normal 0.000000e+000 -0.000000e+000 1.000000e+000
    outer loop
      vertex   -1.264024e+002 1.355320e+002 4.400000e+000
      vertex   -1.263281e+002 1.356972e+002 4.400000e+000
      vertex   -1.287499e+002 1.351135e+002 4.400000e+000
    endloop
  endfacet
  facet normal 0.000000e+000 0.000000e+000 1.000000e+000
    outer loop
      vertex   -1.287499e+002 1.351135e+002 4.400000e+000
      vertex   -1.263281e+002 1.356972e+002 4.400000e+000
      vertex   -1.262344e+002 1.358522e+002 4.400000e+000
    endloop
  endfacet
  facet normal -0.000000e+000 0.000000e+000 1.000000e+000
    outer loop
      vertex   -1.261226e+002 1.359948e+002 4.400000e+000
      vertex   -1.287499e+002 1.351135e+002 4.400000e+000
      vertex   -1.262344e+002 1.358522e+002 4.400000e+000
    endloop
  endfacet
  facet normal 0.000000e+000 -0.000000e+000 1.000000e+000
    outer loop
      vertex   -1.261226e+002 1.359948e+002 4.400000e+000
      vertex   -1.259946e+002 1.361228e+002 4.400000e+000
      vertex   -1.287499e+002 1.351135e+002 4.400000e+000
    endloop
  endfacet
  facet normal 0.000000e+000 -0.000000e+000 1.000000e+000
    outer loop
      vertex   -1.287499e+002 1.351135e+002 4.400000e+000
      vertex   -1.259946e+002 1.361228e+002 4.400000e+000
      vertex   -1.287499e+002 1.405001e+002 4.400000e+000
    endloop
  endfacet
  facet normal -0.000000e+000 0.000000e+000 1.000000e+000
    outer loop
      vertex   -1.287499e+002 1.405001e+002 4.400000e+000
      vertex   -1.259946e+002 1.361228e+002 4.400000e+000
      vertex   -1.258520e+002 1.362346e+002 4.400000e+000
    endloop
  endfacet
  facet normal 0.000000e+000 0.000000e+000 1.000000e+000
    outer loop
      vertex   -1.256970e+002 1.363283e+002 4.400000e+000
      vertex   -1.287499e+002 1.405001e+002 4.400000e+000
      vertex   -1.258520e+002 1.362346e+002 4.400000e+000
    endloop
  endfacet
  facet normal 0.000000e+000 -0.000000e+000 1.000000e+000
    outer loop
      vertex   -1.256970e+002 1.363283e+002 4.400000e+000
      vertex   -1.255318e+002 1.364026e+002 4.400000e+000
      vertex   -1.287499e+002 1.405001e+002 4.400000e+000
    endloop
  endfacet
  facet normal -0.000000e+000 0.000000e+000 1.000000e+000
    outer loop
      vertex   -1.287499e+002 1.405001e+002 4.400000e+000
      vertex   -1.255318e+002 1.364026e+002 4.400000e+000
      vertex   -1.253589e+002 1.364565e+002 4.400000e+000
    endloop
  endfacet
  facet normal 0.000000e+000 0.000000e+000 1.000000e+000
    outer loop
      vertex   -1.251807e+002 1.364891e+002 4.400000e+000
      vertex   -1.287499e+002 1.405001e+002 4.400000e+000
      vertex   -1.253589e+002 1.364565e+002 4.400000e+000
    endloop
  endfacet
  facet normal 0.000000e+000 -0.000000e+000 1.000000e+000
    outer loop
      vertex   -1.251807e+002 1.364891e+002 4.400000e+000
      vertex   -1.249999e+002 1.365001e+002 4.400000e+000
      vertex   -1.287499e+002 1.405001e+002 4.400000e+000
    endloop
  endfacet
  facet normal -0.000000e+000 0.000000e+000 1.000000e+000
    outer loop
      vertex   -1.287499e+002 1.405001e+002 4.400000e+000
      vertex   -1.249999e+002 1.365001e+002 4.400000e+000
      vertex   -1.212499e+002 1.405001e+002 4.400000e+000
    endloop
  endfacet
  facet normal 0.000000e+000 0.000000e+000 1.000000e+000
    outer loop
      vertex   -1.212499e+002 1.405001e+002 4.400000e+000
      vertex   -1.249999e+002 1.365001e+002 4.400000e+000
      vertex   -1.248191e+002 1.364891e+002 4.400000e+000
    endloop
  endfacet
  facet normal 0.000000e+000 -0.000000e+000 1.000000e+000
    outer loop
      vertex   -1.246409e+002 1.364565e+002 4.400000e+000
      vertex   -1.212499e+002 1.405001e+002 4.400000e+000
      vertex   -1.248191e+002 1.364891e+002 4.400000e+000
    endloop
  endfacet
  facet normal -0.000000e+000 0.000000e+000 1.000000e+000
    outer loop
      vertex   -1.246409e+002 1.364565e+002 4.400000e+000
      vertex   -1.244680e+002 1.364026e+002 4.400000e+000
      vertex   -1.212499e+002 1.405001e+002 4.400000e+000
    endloop
  endfacet
  facet normal 0.000000e+000 0.000000e+000 1.000000e+000
    outer loop
      vertex   -1.212499e+002 1.405001e+002 4.400000e+000
      vertex   -1.244680e+002 1.364026e+002 4.400000e+000
      vertex   -1.243028e+002 1.363283e+002 4.400000e+000
    endloop
  endfacet
  facet normal 0.000000e+000 -0.000000e+000 1.000000e+000
    outer loop
      vertex   -1.241478e+002 1.362346e+002 4.400000e+000
      vertex   -1.212499e+002 1.405001e+002 4.400000e+000
      vertex   -1.243028e+002 1.363283e+002 4.400000e+000
    endloop
  endfacet
  facet normal -0.000000e+000 0.000000e+000 1.000000e+000
    outer loop
      vertex   -1.241478e+002 1.362346e+002 4.400000e+000
      vertex   -1.240052e+002 1.361228e+002 4.400000e+000
      vertex   -1.212499e+002 1.405001e+002 4.400000e+000
    endloop
  endfacet
  facet normal 0.000000e+000 0.000000e+000 1.000000e+000
    outer loop
      vertex   -1.212499e+002 1.405001e+002 4.400000e+000
      vertex   -1.240052e+002 1.361228e+002 4.400000e+000
      vertex   -1.212499e+002 1.351135e+002 4.400000e+000
    endloop
  endfacet
  facet normal 0.000000e+000 0.000000e+000 1.000000e+000
    outer loop
      vertex   -1.212499e+002 1.351135e+002 4.400000e+000
      vertex   -1.240052e+002 1.361228e+002 4.400000e+000
      vertex   -1.238771e+002 1.359948e+002 4.400000e+000
    endloop
  endfacet
  facet normal -0.000000e+000 -0.000000e+000 1.000000e+000
    outer loop
      vertex   -1.237654e+002 1.358522e+002 4.400000e+000
      vertex   -1.212499e+002 1.351135e+002 4.400000e+000
      vertex   -1.238771e+002 1.359948e+002 4.400000e+000
    endloop
  endfacet
  facet normal 0.000000e+000 0.000000e+000 1.000000e+000
    outer loop
      vertex   -1.237654e+002 1.358522e+002 4.400000e+000
      vertex   -1.236717e+002 1.356972e+002 4.400000e+000
      vertex   -1.212499e+002 1.351135e+002 4.400000e+000
    endloop
  endfacet
  facet normal 0.000000e+000 0.000000e+000 1.000000e+000
    outer loop
      vertex   -1.212499e+002 1.351135e+002 4.400000e+000
      vertex   -1.236717e+002 1.356972e+002 4.400000e+000
      vertex   -1.235974e+002 1.355320e+002 4.400000e+000
    endloop
  endfacet
  facet normal -0.000000e+000 -0.000000e+000 1.000000e+000
    outer loop
      vertex   -1.235435e+002 1.353591e+002 4.400000e+000
      vertex   -1.212499e+002 1.351135e+002 4.400000e+000
      vertex   -1.235974e+002 1.355320e+002 4.400000e+000
    endloop
  endfacet
  facet normal 0.000000e+000 0.000000e+000 1.000000e+000
    outer loop
      vertex   -1.235435e+002 1.353591e+002 4.400000e+000
      vertex   -1.235108e+002 1.351809e+002 4.400000e+000
      vertex   -1.212499e+002 1.351135e+002 4.400000e+000
    endloop
  endfacet
  facet normal 0.000000e+000 0.000000e+000 1.000000e+000
    outer loop
      vertex   -1.212499e+002 1.351135e+002 4.400000e+000
      vertex   -1.235108e+002 1.351809e+002 4.400000e+000
      vertex   -1.234999e+002 1.350001e+002 4.400000e+000
    endloop
  endfacet
  facet normal 0.000000e+000 -0.000000e+000 1.000000e+000
    outer loop
      vertex   -1.235108e+002 1.348193e+002 4.400000e+000
      vertex   -1.212499e+002 1.351135e+002 4.400000e+000
      vertex   -1.234999e+002 1.350001e+002 4.400000e+000
    endloop
  endfacet
  facet normal -0.000000e+000 0.000000e+000 1.000000e+000
    outer loop
      vertex   -1.235108e+002 1.348193e+002 4.400000e+000
      vertex   -1.235435e+002 1.346411e+002 4.400000e+000
      vertex   -1.212499e+002 1.351135e+002 4.400000e+000
    endloop
  endfacet
  facet normal 0.000000e+000 0.000000e+000 1.000000e+000
    outer loop
      vertex   -1.212499e+002 1.351135e+002 4.400000e+000
      vertex   -1.235435e+002 1.346411e+002 4.400000e+000
      vertex   -1.235974e+002 1.344682e+002 4.400000e+000
    endloop
  endfacet
  facet normal 0.000000e+000 -0.000000e+000 1.000000e+000
    outer loop
      vertex   -1.236717e+002 1.343030e+002 4.400000e+000
      vertex   -1.212499e+002 1.351135e+002 4.400000e+000
      vertex   -1.235974e+002 1.344682e+002 4.400000e+000
    endloop
  endfacet
  facet normal -0.000000e+000 0.000000e+000 1.000000e+000
    outer loop
      vertex   -1.236717e+002 1.343030e+002 4.400000e+000
      vertex   -1.237654e+002 1.341480e+002 4.400000e+000
      vertex   -1.212499e+002 1.351135e+002 4.400000e+000
    endloop
  endfacet
  facet normal 1.886270e-007 -4.914556e-007 1.000000e+000
    outer loop
      vertex   -1.212499e+002 1.351135e+002 4.400000e+000
      vertex   -1.237654e+002 1.341480e+002 4.400000e+000
      vertex   -1.192499e+002 1.320001e+002 4.399998e+000
    endloop
  endfacet
  facet normal 9.536743e-007 -3.887053e-015 1.000000e+000
    outer loop
      vertex   -1.192499e+002 1.342850e+002 4.399998e+000
      vertex   -1.212499e+002 1.351135e+002 4.400000e+000
      vertex   -1.192499e+002 1.320001e+002 4.399998e+000
    endloop
  endfacet
  facet normal 3.077213e-007 -2.410843e-007 1.000000e+000
    outer loop
      vertex   -1.237654e+002 1.341480e+002 4.400000e+000
      vertex   -1.238771e+002 1.340054e+002 4.400000e+000
      vertex   -1.192499e+002 1.320001e+002 4.399998e+000
    endloop
  endfacet
  facet normal 2.875740e-007 -2.875740e-007 1.000000e+000
    outer loop
      vertex   -1.192499e+002 1.320001e+002 4.399998e+000
      vertex   -1.238771e+002 1.340054e+002 4.400000e+000
      vertex   -1.240052e+002 1.338773e+002 4.400000e+000
    endloop
  endfacet
  facet normal 2.667088e-007 -3.404286e-007 1.000000e+000
    outer loop
      vertex   -1.241478e+002 1.337656e+002 4.400000e+000
      vertex   -1.192499e+002 1.320001e+002 4.399998e+000
      vertex   -1.240052e+002 1.338773e+002 4.400000e+000
    endloop
  endfacet
  facet normal 2.439552e-007 -4.035513e-007 1.000000e+000
    outer loop
      vertex   -1.241478e+002 1.337656e+002 4.400000e+000
      vertex   -1.243028e+002 1.336719e+002 4.400000e+000
      vertex   -1.192499e+002 1.320001e+002 4.399998e+000
    endloop
  endfacet
  facet normal 2.175467e-007 -4.833689e-007 1.000000e+000
    outer loop
      vertex   -1.192499e+002 1.320001e+002 4.399998e+000
      vertex   -1.243028e+002 1.336719e+002 4.400000e+000
      vertex   -1.244680e+002 1.335976e+002 4.400000e+000
    endloop
  endfacet
  facet normal 1.843816e-007 -5.917013e-007 1.000000e+000
    outer loop
      vertex   -1.246409e+002 1.335437e+002 4.400000e+000
      vertex   -1.192499e+002 1.320001e+002 4.399998e+000
      vertex   -1.244680e+002 1.335976e+002 4.400000e+000
    endloop
  endfacet
  facet normal 1.380725e-007 -7.534372e-007 1.000000e+000
    outer loop
      vertex   -1.246409e+002 1.335437e+002 4.400000e+000
      vertex   -1.248191e+002 1.335110e+002 4.400000e+000
      vertex   -1.192499e+002 1.320001e+002 4.399998e+000
    endloop
  endfacet
  facet normal 6.243785e-008 -1.032221e-006 1.000000e+000
    outer loop
      vertex   -1.192499e+002 1.320001e+002 4.399998e+000
      vertex   -1.248191e+002 1.335110e+002 4.400000e+000
      vertex   -1.249999e+002 1.335001e+002 4.400000e+000
    endloop
  endfacet
  facet normal -6.243785e-008 -1.032221e-006 1.000000e+000
    outer loop
      vertex   -1.307499e+002 1.320001e+002 4.399998e+000
      vertex   -1.249999e+002 1.335001e+002 4.400000e+000
      vertex   -1.251807e+002 1.335110e+002 4.400000e+000
    endloop
  endfacet
  facet normal -1.380725e-007 -7.534372e-007 1.000000e+000
    outer loop
      vertex   -1.253589e+002 1.335437e+002 4.400000e+000
      vertex   -1.307499e+002 1.320001e+002 4.399998e+000
      vertex   -1.251807e+002 1.335110e+002 4.400000e+000
    endloop
  endfacet
  facet normal -1.843816e-007 -5.917013e-007 1.000000e+000
    outer loop
      vertex   -1.253589e+002 1.335437e+002 4.400000e+000
      vertex   -1.255318e+002 1.335976e+002 4.400000e+000
      vertex   -1.307499e+002 1.320001e+002 4.399998e+000
    endloop
  endfacet
  facet normal -2.175467e-007 -4.833689e-007 1.000000e+000
    outer loop
      vertex   -1.307499e+002 1.320001e+002 4.399998e+000
      vertex   -1.255318e+002 1.335976e+002 4.400000e+000
      vertex   -1.256970e+002 1.336719e+002 4.400000e+000
    endloop
  endfacet
  facet normal -2.439552e-007 -4.035513e-007 1.000000e+000
    outer loop
      vertex   -1.258520e+002 1.337656e+002 4.400000e+000
      vertex   -1.307499e+002 1.320001e+002 4.399998e+000
      vertex   -1.256970e+002 1.336719e+002 4.400000e+000
    endloop
  endfacet
  facet normal -2.667088e-007 -3.404286e-007 1.000000e+000
    outer loop
      vertex   -1.258520e+002 1.337656e+002 4.400000e+000
      vertex   -1.259946e+002 1.338773e+002 4.400000e+000
      vertex   -1.307499e+002 1.320001e+002 4.399998e+000
    endloop
  endfacet
  facet normal -2.875740e-007 -2.875740e-007 1.000000e+000
    outer loop
      vertex   -1.307499e+002 1.320001e+002 4.399998e+000
      vertex   -1.259946e+002 1.338773e+002 4.400000e+000
      vertex   -1.261226e+002 1.340054e+002 4.400000e+000
    endloop
  endfacet
  facet normal -3.077213e-007 -2.410843e-007 1.000000e+000
    outer loop
      vertex   -1.262344e+002 1.341480e+002 4.400000e+000
      vertex   -1.307499e+002 1.320001e+002 4.399998e+000
      vertex   -1.261226e+002 1.340054e+002 4.400000e+000
    endloop
  endfacet
  facet normal -1.886249e-007 -4.914599e-007 1.000000e+000
    outer loop
      vertex   -1.262344e+002 1.341480e+002 4.400000e+000
      vertex   -1.287499e+002 1.351135e+002 4.400000e+000
      vertex   -1.307499e+002 1.320001e+002 4.399998e+000
    endloop
  endfacet
  facet normal 0.000000e+000 0.000000e+000 1.000000e+000
    outer loop
      vertex   -1.262344e+002 1.341480e+002 4.400000e+000
      vertex   -1.263281e+002 1.343030e+002 4.400000e+000
      vertex   -1.287499e+002 1.351135e+002 4.400000e+000
    endloop
  endfacet
  facet normal -0.000000e+000 -0.000000e+000 1.000000e+000
    outer loop
      vertex   -1.287499e+002 1.351135e+002 4.400000e+000
      vertex   -1.263281e+002 1.343030e+002 4.400000e+000
      vertex   -1.264024e+002 1.344682e+002 4.400000e+000
    endloop
  endfacet
  facet normal 0.000000e+000 -1.271566e-006 1.000000e+000
    outer loop
      vertex   -1.192499e+002 1.320001e+002 4.399998e+000
      vertex   -1.249999e+002 1.335001e+002 4.400000e+000
      vertex   -1.307499e+002 1.320001e+002 4.399998e+000
    endloop
  endfacet
  facet normal -9.536743e-007 -3.887085e-015 1.000000e+000
    outer loop
      vertex   -1.287499e+002 1.351135e+002 4.400000e+000
      vertex   -1.307499e+002 1.342850e+002 4.399998e+000
      vertex   -1.307499e+002 1.320001e+002 4.399998e+000
    endloop
  endfacet
  facet normal -1.000000e+000 0.000000e+000 2.842171e-015
    outer loop
      vertex   -1.212499e+002 1.351135e+002 4.400000e+000
      vertex   -1.212499e+002 1.351135e+002 9.400000e+000
      vertex   -1.212499e+002 1.405001e+002 4.400000e+000
    endloop
  endfacet
  facet normal -1.000000e+000 0.000000e+000 2.842171e-015
    outer loop
      vertex   -1.212499e+002 1.405001e+002 4.400000e+000
      vertex   -1.212499e+002 1.351135e+002 9.400000e+000
      vertex   -1.212499e+002 1.405001e+002 9.400000e+000
    endloop
  endfacet
  facet normal 0.000000e+000 -0.000000e+000 1.000000e+000
    outer loop
      vertex   -1.192499e+002 1.342850e+002 9.400000e+000
      vertex   -1.192499e+002 1.405001e+002 9.400000e+000
      vertex   -1.212499e+002 1.351135e+002 9.400000e+000
    endloop
  endfacet
  facet normal 0.000000e+000 -0.000000e+000 1.000000e+000
    outer loop
      vertex   -1.212499e+002 1.351135e+002 9.400000e+000
      vertex   -1.192499e+002 1.405001e+002 9.400000e+000
      vertex   -1.212499e+002 1.405001e+002 9.400000e+000
    endloop
  endfacet
  facet normal 1.000000e+000 -0.000000e+000 0.000000e+000
    outer loop
      vertex   -1.192499e+002 1.342850e+002 9.400000e+000
      vertex   -1.192499e+002 1.342850e+002 4.399998e+000
      vertex   -1.192499e+002 1.405001e+002 9.400000e+000
    endloop
  endfacet
  facet normal 1.000000e+000 0.000000e+000 0.000000e+000
    outer loop
      vertex   -1.192499e+002 1.405001e+002 9.400000e+000
      vertex   -1.192499e+002 1.342850e+002 4.399998e+000
      vertex   -1.192499e+002 1.405001e+002 2.400000e+000
    endloop
  endfacet
  facet normal 1.000000e+000 0.000000e+000 0.000000e+000
    outer loop
      vertex   -1.192499e+002 1.405001e+002 2.400000e+000
      vertex   -1.192499e+002 1.342850e+002 4.399998e+000
      vertex   -1.192499e+002 1.320001e+002 2.400000e+000
    endloop
  endfacet
  facet normal 1.000000e+000 0.000000e+000 -0.000000e+000
    outer loop
      vertex   -1.192499e+002 1.320001e+002 2.400000e+000
      vertex   -1.192499e+002 1.342850e+002 4.399998e+000
      vertex   -1.192499e+002 1.320001e+002 4.399998e+000
    endloop
  endfacet
endsolid
