solid ascii
  facet normal 1.000000e+000 -0.000000e+000 0.000000e+000
    outer loop
      vertex   -1.274997e+002 1.082678e+002 -2.420000e+001
      vertex   -1.274997e+002 1.099998e+002 -2.720000e+001
      vertex   -1.274997e+002 1.117319e+002 -2.420000e+001
    endloop
  endfacet
  facet normal -1.000000e+000 -8.204641e-015 -4.736952e-015
    outer loop
      vertex   -1.464997e+002 1.099998e+002 -2.720000e+001
      vertex   -1.464997e+002 1.082678e+002 -2.420000e+001
      vertex   -1.464997e+002 1.117319e+002 -2.420000e+001
    endloop
  endfacet
  facet normal 0.000000e+000 0.000000e+000 1.000000e+000
    outer loop
      vertex   -1.274997e+002 1.117319e+002 -2.420000e+001
      vertex   -1.464997e+002 1.117319e+002 -2.420000e+001
      vertex   -1.274997e+002 1.082678e+002 -2.420000e+001
    endloop
  endfacet
  facet normal 0.000000e+000 0.000000e+000 1.000000e+000
    outer loop
      vertex   -1.274997e+002 1.082678e+002 -2.420000e+001
      vertex   -1.464997e+002 1.117319e+002 -2.420000e+001
      vertex   -1.464997e+002 1.082678e+002 -2.420000e+001
    endloop
  endfacet
  facet normal 0.000000e+000 8.660254e-001 -5.000000e-001
    outer loop
      vertex   -1.274997e+002 1.099998e+002 -2.720000e+001
      vertex   -1.464997e+002 1.099998e+002 -2.720000e+001
      vertex   -1.274997e+002 1.117319e+002 -2.420000e+001
    endloop
  endfacet
  facet normal 0.000000e+000 8.660254e-001 -5.000000e-001
    outer loop
      vertex   -1.274997e+002 1.117319e+002 -2.420000e+001
      vertex   -1.464997e+002 1.099998e+002 -2.720000e+001
      vertex   -1.464997e+002 1.117319e+002 -2.420000e+001
    endloop
  endfacet
  facet normal -0.000000e+000 -8.660254e-001 -5.000000e-001
    outer loop
      vertex   -1.274997e+002 1.082678e+002 -2.420000e+001
      vertex   -1.464997e+002 1.082678e+002 -2.420000e+001
      vertex   -1.274997e+002 1.099998e+002 -2.720000e+001
    endloop
  endfacet
  facet normal 0.000000e+000 -8.660254e-001 -5.000000e-001
    outer loop
      vertex   -1.274997e+002 1.099998e+002 -2.720000e+001
      vertex   -1.464997e+002 1.082678e+002 -2.420000e+001
      vertex   -1.464997e+002 1.099998e+002 -2.720000e+001
    endloop
  endfacet
endsolid
